<svg xmlns="http://www.w3.org/2000/svg" width="1096.4" height="106.5">
  <g fill="#FFF">
    <path d="M548 20.4h41.5v5.1h-36V50h35.3v5h-35.3v26h36v5.2H548V20.4zM617.5 59h-14.4V86h-5.6V20.4h24.4c11.4 0 20 7.2 20 19.2s-8.5 18.5-18.2 19l19 27.5h-6.8L617.5 59zm4-33.5H603v28.3h18.4c8.6 0 14.5-6 14.5-14.2 0-8.3-5.9-14-14.5-14zM650 20.4h5.6V81h31.7V86H650V20.4zM737.7 70h-34.9L696.2 86H690l26.9-65.7h7L750.5 86h-6.3L737.7 70zm-33.1-5.2h31.3L720.2 26l-15.6 39zM760 29.4V86h-5.7V20.4h5.7l41.1 56v-56h5.6V86h-5.5L760 29.4zM817.1 20.4h21a31.9 31.9 0 0 1 33.1 32.9 31.7 31.7 0 0 1-33.1 32.8h-21V20.4zm21 60.6c17.3 0 27.2-12.3 27.2-27.7s-9.8-27.8-27.2-27.8h-15.4V81h15.4zM494.7 33c4.9-5.4 12-8.6 20-8.6 8.4 0 15.8 3.7 20.4 9.2l4.3-3a31.1 31.1 0 0 0-24.7-11.3c-7.5 0-14.5 2.3-20 6.4v7.4zM509.2 53.5v5H534v15.8c-3.7 3.6-10.6 8-19.3 8-8 0-15.1-3.3-20-8.8v7.4a33.4 33.4 0 0 0 20 6.5 33 33 0 0 0 24.9-11V53.6h-30.4z"/>
    <g>
      <path d="M275.3 20.4h9.8v57H315v8.7h-39.6V20.4zM326.5 58.6L301 20.4h11.3l19.2 29.4 19.1-29.4H362l-25.5 38.2v27.5h-9.9V58.6zM390.2 19.3c19.6 0 33 14.5 33 34s-13.4 34-33 34c-19.5 0-33-14.5-33-34s13.5-34 33-34zm0 8.8c-14 0-22.9 10.7-22.9 25.2 0 14.4 8.9 25.2 23 25.2 13.8 0 22.8-10.8 22.8-25.2 0-14.5-9-25.2-22.9-25.2zM439 35.7V86h-9.7V20.4h10l35.8 49.3V20.4h9.8V86h-9.5L439 35.7z"/>
    </g>
    <g>
      <path d="M0 20.4h41.6v5.1h-36V50h35.3v5H5.6v26h36v5.2H0V20.4zM80.3 19.3c10.8 0 18.7 4.3 24.7 11.2l-4.2 3.1c-4.7-5.5-12.1-9.2-20.5-9.2C65 24.4 53 36.2 53 53.3c0 17 11.9 29 27.3 29 8.8 0 15.6-4.4 19.3-8V58.5H74.8v-5h30.4v23a33 33 0 0 1-24.9 10.9 32.7 32.7 0 0 1-33.2-34.1c0-20.3 14.8-34 33.2-34zM113.5 20.4h5.6V81H151V86h-37.4V20.4zM157.2 20.4h5.6V86h-5.6V20.4zM173.2 72.6c4.2 5 11 9.6 20.4 9.6 13.5 0 17.3-7.5 17.3-13.1 0-9.3-8.7-11.9-18-14.3-10.3-2.9-21.3-5.8-21.3-18 0-10.7 9.6-17.5 21.5-17.5 9.9 0 17.1 3.5 22.3 9.3l-3.8 4.1a23.5 23.5 0 0 0-18.8-8.3c-8.7 0-15.3 5-15.3 12.2 0 7.7 8.2 10 17.1 12.4 10.6 3 22.2 6.4 22.2 19.7 0 8.4-5.6 18.6-23.3 18.6-10.8 0-19-4.3-24-10.5l3.7-4.2zM224.4 20.4H266v5.1h-36V50h35.3v5H230v26h36v5.2h-41.6V20.4zM19 14.2L34 0h6.1L23.3 14.2z"/>
    </g>
    <g>
      <path d="M911.3 60.1h12.2v1.5H913v7.2h10.4v1.5H913V78h10.6v1.5h-12.2V60.1zm5.6-1.6l4.4-4.2h1.8l-5 4.2H917zM925.7 60.1h1.9l7 17.6 7-17.6h2l-8 19.4h-2l-8-19.4zM956.9 74.7h-10.3l-2 4.8h-1.8l8-19.4h2l8 19.4h-2l-1.9-4.8zm-9.8-1.5h9.3l-4.7-11.4-4.6 11.4zM965.2 62.8v16.7h-1.7V60.1h1.7l12.2 16.5V60.1h1.6v19.4h-1.6l-12.2-16.7zM993 59.8c3.1 0 5.5 1.3 7.2 3.3l-1.2 1a7.9 7.9 0 0 0-6-2.8c-4.6 0-8.1 3.5-8.1 8.5s3.5 8.6 8 8.6c2.6 0 4.6-1.3 5.7-2.4v-4.6h-7.3v-1.5h9v6.8a9.8 9.8 0 0 1-7.4 3.2c-5.4 0-9.8-4-9.8-10s4.4-10 9.8-10zM1004.5 60.1h12.3v1.5H1006v7.2h10.5v1.5H1006V78h10.7v1.5h-12.3V60.1zm5.6-1.6l4.5-4.2h1.8l-5 4.2h-1.3zM1020.9 60.1h1.6V78h9.4v1.5h-11V60.1zM1035.5 60.1h1.6v19.4h-1.6V60.1zM1057.3 77.1l2 2.2-1.1 1-2-2.1a9.2 9.2 0 0 1-5.5 1.7c-5.7 0-9.5-4.4-9.5-10 0-5.7 3.8-10 9.5-10 5.6 0 9.4 4.3 9.4 10 0 2.8-1 5.4-2.8 7.2zm-2.3 0l-3-3.2 1.2-1 3 3a9.2 9.2 0 0 0 2.1-6c0-5-3-8.6-7.6-8.6-4.8 0-7.7 3.6-7.7 8.5 0 5 3 8.6 7.7 8.6 1.6 0 3.1-.5 4.3-1.4zM1064.2 60.1h1.6v12c0 3.9 2.1 6.3 5.9 6.3 3.8 0 5.9-2.4 5.9-6.4V60.1h1.7v12c0 4.8-2.6 7.8-7.6 7.8s-7.5-3-7.5-7.8V60zM1084 60.1h12.4v1.5h-10.7v7.2h10.4v1.5h-10.4V78h10.7v1.5H1084V60.1z"/>
      <g>
        <path d="M917.2 38h-4.3v8.1h-1.6V26.7h7.2c3.3 0 5.9 2.1 5.9 5.7 0 3.5-2.5 5.4-5.4 5.6l5.6 8.1h-2l-5.4-8zm1.1-9.8H913v8.4h5.4c2.6 0 4.3-1.8 4.3-4.2 0-2.5-1.7-4.2-4.3-4.2zM928.5 26.7h12.3v1.5h-10.6v7.2h10.4V37h-10.4v7.7h10.6V46h-12.3V26.7zM944.9 26.7h12.3v1.5h-10.7v7.2H957V37h-10.5v9.2H945V26.7zM969.3 26.4c5.7 0 9.4 4.4 9.4 10 0 5.7-3.7 10-9.4 10s-9.4-4.3-9.4-10c0-5.6 3.7-10 9.4-10zm0 1.5c-4.7 0-7.7 3.6-7.7 8.5 0 5 3 8.5 7.7 8.5 4.6 0 7.7-3.6 7.7-8.5 0-5-3-8.5-7.7-8.5zM988.7 38h-4.2v8.1h-1.7V26.7h7.2c3.4 0 6 2.1 6 5.7 0 3.5-2.6 5.4-5.4 5.6l5.6 8.1h-2l-5.5-8zm1.2-9.8h-5.4v8.4h5.4c2.5 0 4.3-1.8 4.3-4.2 0-2.5-1.8-4.2-4.3-4.2zM1016.5 28.9l-7 17.2h-.7l-7.1-17.2v17.2h-1.7V26.7h2.5l6.6 16 6.6-16h2.5v19.4h-1.7V28.9zM1023 26.7h12.3v1.5h-10.7v7.2h10.5V37h-10.5v7.7h10.7V46H1023V26.7zM1039.4 26.7h12.2v1.5H1041v7.2h10.4V37H1041v7.7h10.6V46h-12.2V26.7zM934.1 24.1l4.5-4.2h1.8l-5 4.2zM1028.6 24.1l4.5-4.2h1.8l-5 4.2z"/>
      </g>
      <path d="M888.4 26.7h2.5v52.8h-2.5z"/>
    </g>
  </g>
</svg>
