<svg width="305" height="66" xmlns="http://www.w3.org/2000/svg"><path d="M16.425 60.69c2.518 0 5.01-.602 7.473-1.806a31.172 31.172 0 006.735-4.435c2.025-1.752 3.75-3.655 5.174-5.708 1.423-2.053 2.381-3.928 2.874-5.625.11-.438.164-.74.164-.904 0-.438-.137-.725-.41-.862-.274-.137-.548-.26-.822-.37-.821 2.026-1.957 4.08-3.408 6.16a31.185 31.185 0 01-5.092 5.666 26.874 26.874 0 01-6.488 4.189c-2.381 1.095-4.913 1.642-7.596 1.642a8.99 8.99 0 01-3.367-.657 8.914 8.914 0 01-2.916-1.889 9.53 9.53 0 01-2.053-2.956c-.52-1.15-.78-2.436-.78-3.86 0-2.792.452-5.598 1.355-8.418.903-2.82 1.957-5.447 3.162-7.884 1.204-2.436 2.409-4.571 3.613-6.406 1.205-1.834 2.136-3.134 2.793-3.9.547.109 1.204.177 1.97.205.767.027 1.479.04 2.136.04 1.697 0 3.367-.204 5.01-.615a29.058 29.058 0 004.845-1.684c.821-.383 1.943-1.067 3.367-2.053a34.065 34.065 0 004.188-3.449 25.902 25.902 0 003.573-4.23c1.013-1.505 1.52-2.997 1.52-4.475 0-1.698-.59-3.162-1.767-4.394C40.501.78 38.955.164 37.038.164c-1.642 0-3.435.466-5.379 1.396-1.943.931-3.983 2.19-6.118 3.778-2.135 1.588-4.312 3.49-6.53 5.708a117.465 117.465 0 00-6.528 7.104 14.672 14.672 0 01-5.174-4.517c-1.369-1.917-2.053-4.107-2.053-6.57 0-1.424.301-2.6.903-3.532.603-.93 1.615-1.396 3.039-1.396 1.423 0 2.532.534 3.326 1.602.794 1.067 1.19 2.121 1.19 3.162 0 .656-.15 1.15-.45 1.478a3.522 3.522 0 01-1.027.78c-.384.192-.726.356-1.027.493-.301.137-.452.314-.452.534 0 .273.124.547.37.82.246.275.588.411 1.027.411.656 0 1.45-.383 2.381-1.15.93-.766 1.396-1.86 1.396-3.284 0-.767-.15-1.56-.451-2.382a6.996 6.996 0 00-1.314-2.217A6.637 6.637 0 0012.03.78C11.183.37 10.238.164 9.198.164c-1.478 0-2.779.288-3.9.863a9.62 9.62 0 00-2.875 2.217A9.639 9.639 0 00.616 6.242 9.299 9.299 0 000 9.526c0 1.479.287 2.834.862 4.066a13.201 13.201 0 002.259 3.367 14.922 14.922 0 003.203 2.628 18.987 18.987 0 003.695 1.765c-.876 1.26-1.889 2.916-3.038 4.97a70.224 70.224 0 00-3.285 6.733 58.631 58.631 0 00-2.628 7.556C.356 43.21 0 45.66 0 47.96c0 4.325 1.382 7.528 4.147 9.609 2.765 2.08 6.858 3.12 12.278 3.12zm5.256-40.487c-.438 0-.849-.014-1.232-.041a23.421 23.421 0 01-1.232-.123c.438-.438.904-.986 1.396-1.643.657-.821 1.793-2.04 3.409-3.655A67.346 67.346 0 0129.4 9.937a53.92 53.92 0 015.872-4.147c1.943-1.177 3.545-1.766 4.804-1.766.493 0 .876.096 1.15.288.273.191.41.588.41 1.19 0 .712-.397 1.876-1.19 3.49-.794 1.616-2.012 3.258-3.655 4.928-1.643 1.67-3.723 3.135-6.242 4.394-2.518 1.26-5.474 1.889-8.869 1.889zm31.043 32.193c1.314 0 2.615-.507 3.901-1.52a22.39 22.39 0 003.532-3.49 32.912 32.912 0 002.792-3.983c.794-1.341 1.41-2.34 1.848-2.998.328-.547.492-.958.492-1.231 0-.329-.3-.712-.903-1.15-.11 0-.164.027-.164.082a87.901 87.901 0 01-1.93 3.162 42.332 42.332 0 01-2.792 3.9c-1.013 1.26-2.026 2.355-3.04 3.286-1.012.93-1.874 1.396-2.586 1.396-.328 0-.493-.192-.493-.575 0-.493.165-1.232.493-2.217.328-.986.725-2.108 1.19-3.368.466-1.259 1-2.56 1.602-3.9a908.435 908.435 0 011.725-3.82c.547-1.204 1.04-2.258 1.478-3.161.438-.903.74-1.547.904-1.93.383-.712.574-1.45.574-2.217 0-.548-.219-1.082-.657-1.602a7.185 7.185 0 00-1.519-1.355 8.704 8.704 0 00-1.725-.903c-.574-.22-1.026-.329-1.355-.329-.219 0-.328.082-.328.247v.246c0 .986-.397 2.642-1.19 4.969-.795 2.326-1.849 4.94-3.163 7.843l-1.806 3.818a34.87 34.87 0 01-2.423 4.312c-.904 1.369-1.848 2.546-2.834 3.531-.985.986-1.998 1.479-3.038 1.479-.93 0-1.396-.63-1.396-1.89v-.697c0-.247.055-.507.164-.78a24.56 24.56 0 011.807-5.339 143.277 143.277 0 012.463-5.01 65.046 65.046 0 002.136-4.516c.602-1.424.903-2.738.903-3.942 0-.712-.205-1.287-.616-1.725a5.756 5.756 0 00-1.437-1.109 6.864 6.864 0 00-1.643-.657c-.547-.136-.985-.287-1.314-.451h-.492a18.519 18.519 0 01-1.232 5.707 94.596 94.596 0 01-2.3 5.42 78.005 78.005 0 00-2.217 5.298 15.094 15.094 0 00-.986 5.338c0 1.97.616 3.435 1.848 4.394 1.232.958 2.806 1.437 4.723 1.437 1.259 0 2.504-.425 3.736-1.273 1.232-.849 2.204-1.875 2.916-3.08v.575c0 .821.287 1.656.862 2.505.575.848 1.738 1.273 3.49 1.273zm12.155-.082c1.478 0 3.025-.48 4.64-1.438a24.274 24.274 0 004.435-3.367c1.34-1.286 2.436-2.6 3.285-3.942.848-1.341 1.273-2.422 1.273-3.244 0-.164-.055-.355-.165-.574-.219-.439-.438-.658-.657-.658l-1.067 1.725c-.712 1.15-1.63 2.41-2.752 3.778a31.81 31.81 0 01-3.654 3.778c-1.314 1.15-2.546 1.724-3.696 1.724-.766 0-1.15-.492-1.15-1.478 0-.821.274-1.944.822-3.367a178.987 178.987 0 013.449-8.787c1.314-3.121 2.628-6.256 3.942-9.404a359.17 359.17 0 003.696-9.198c1.15-2.984 2.053-5.707 2.71-8.171.055-.22.082-.52.082-.904 0-1.095-.493-1.902-1.478-2.422-.986-.52-2.108-.945-3.368-1.273.11 0 .083.342-.082 1.026-.164.685-.41 1.56-.739 2.628a126.284 126.284 0 01-1.15 3.532 320.223 320.223 0 01-2.546 7.186 41.721 41.721 0 01-.903 2.3 5404.788 5404.788 0 00-4.517 10.84 623.495 623.495 0 00-2.956 7.227c-.767 1.916-1.314 3.463-1.643 4.64-.328 1.177-.492 2.203-.492 3.08 0 .437.068.93.205 1.478.137.547.397 1.067.78 1.56.383.493.862.903 1.437 1.232.575.328 1.328.493 2.259.493zm14.618 0c1.478 0 3.025-.48 4.64-1.438a24.274 24.274 0 004.435-3.367c1.341-1.286 2.436-2.6 3.285-3.942.848-1.341 1.273-2.422 1.273-3.244 0-.164-.055-.355-.164-.574-.22-.439-.439-.658-.658-.658l-1.067 1.725c-.712 1.15-1.629 2.41-2.751 3.778a31.81 31.81 0 01-3.655 3.778c-1.314 1.15-2.546 1.724-3.695 1.724-.767 0-1.15-.492-1.15-1.478 0-.821.274-1.944.821-3.367 1.26-3.45 2.71-7.145 4.353-11.087 1.642-3.942 3.257-7.802 4.845-11.58h1.478c1.15 0 2.177.041 3.08.124.903.082 1.656.232 2.258.451.055 0 .083-.027.083-.082-.11-1.533-.644-2.45-1.602-2.751-.958-.301-2.34-.506-4.147-.616.328-.821.698-1.697 1.108-2.628.411-.93.794-1.848 1.15-2.751.356-.904.657-1.766.904-2.587.246-.821.37-1.533.37-2.135 0-1.095-.494-1.971-1.48-2.628-.985-.657-2.107-1.15-3.366-1.479.11 0-.014.603-.37 1.807a185.641 185.641 0 01-2.956 9.075c-.575 1.615-1.027 2.806-1.355 3.572-.548.055-1.136.096-1.766.124-.63.027-1.232.095-1.807.205-.575.11-1.054.342-1.437.698-.383.356-.575.89-.575 1.601 0 .055.027.356.082.904.055.547.137.821.247.821.054 0 .178-.082.37-.246.19-.165.56-.301 1.108-.411l2.464-.493a1509.237 1509.237 0 01-4.148 10.143 246.777 246.777 0 00-2.71 6.775c-.684 1.807-1.163 3.271-1.437 4.394-.274 1.122-.41 2.121-.41 2.997 0 .438.054.945.164 1.52.11.574.328 1.108.657 1.601a4.06 4.06 0 001.314 1.232c.547.328 1.286.493 2.217.493zm16.097.082c2.573 0 4.954-.603 7.144-1.807 2.19-1.204 4.08-2.587 5.667-4.147 1.588-1.56 2.833-3.039 3.737-4.435.903-1.396 1.355-2.313 1.355-2.751 0-.22-.11-.329-.329-.329-.274 0-.835.589-1.683 1.766-.849 1.177-1.999 2.477-3.45 3.9-1.45 1.424-3.161 2.725-5.132 3.902-1.971 1.177-4.189 1.765-6.653 1.765-1.916 0-2.874-1.012-2.874-3.038 0-1.971.493-4.052 1.478-6.242a30.712 30.712 0 013.614-6.077c1.423-1.861 2.929-3.394 4.517-4.599 1.587-1.204 2.984-1.807 4.188-1.807.548 0 .904.22 1.068.657.164.438.246.876.246 1.314 0 .931-.328 1.876-.985 2.834-.657.958-1.547 1.875-2.67 2.75-1.122.877-2.463 1.67-4.024 2.383a24.26 24.26 0 01-5.05 1.642c-.22.055-.37.164-.452.328a1.093 1.093 0 00-.123.493c0 .383.082.575.246.575 2.792-.219 5.133-.78 7.022-1.683 1.889-.904 3.422-1.944 4.599-3.121s2.026-2.41 2.546-3.696.807-2.45.862-3.49v-.41c0-.877-.191-1.616-.575-2.218a4.503 4.503 0 00-1.437-1.437 5.782 5.782 0 00-1.766-.74 7.47 7.47 0 00-1.642-.205c-1.971 0-3.792.425-5.461 1.273a16.372 16.372 0 00-4.517 3.408A23.274 23.274 0 0091.57 34a36.087 36.087 0 00-2.464 5.584c-.603 1.752-.904 3.477-.904 5.174 0 2.464.657 4.353 1.971 5.667s3.121 1.97 5.42 1.97zm44.386.164c1.368 0 2.778-.397 4.23-1.19a22.012 22.012 0 004.105-2.916 26.817 26.817 0 003.49-3.778c1.04-1.369 1.862-2.628 2.464-3.778.11-.219.165-.383.165-.493 0-.109-.096-.342-.288-.698-.191-.355-.397-.533-.616-.533-.054 0-.082.027-.082.082-.274.766-.876 1.765-1.807 2.997a37.342 37.342 0 01-3.08 3.573 24.168 24.168 0 01-3.449 2.956c-1.177.822-2.148 1.232-2.915 1.232-.602 0-.903-.301-.903-.903 0-.822.342-2.163 1.026-4.024.685-1.862 1.574-3.997 2.67-6.406a511.233 511.233 0 013.572-7.679 615.63 615.63 0 003.695-7.925 346.076 346.076 0 003.162-7.104c.93-2.162 1.588-3.9 1.971-5.215.055-.219.096-.41.123-.574.028-.165.041-.356.041-.575 0-.712-.178-1.328-.533-1.848a5.991 5.991 0 00-1.273-1.355 6.42 6.42 0 00-1.56-.904 14.905 14.905 0 00-1.397-.492c-.055 0-.082.027-.082.082 0 1.204-.356 2.82-1.068 4.845a104.448 104.448 0 01-2.545 6.488c-.986 2.3-2.026 4.613-3.121 6.94a141.208 141.208 0 00-2.792 6.282 11.413 11.413 0 00-.329-1.848 4.287 4.287 0 00-.862-1.683c-.41-.493-.958-.904-1.643-1.232-.684-.329-1.574-.493-2.669-.493-1.15 0-2.491.493-4.024 1.478-1.533.986-3.052 2.355-4.558 4.107-1.506 1.752-2.888 3.832-4.147 6.241-1.26 2.41-2.19 5.037-2.792 7.884a8.434 8.434 0 00-.247 2.053c0 1.314.288 2.56.862 3.737.575 1.177 1.575 1.93 2.998 2.258a7.786 7.786 0 001.889.247c1.697 0 3.19-.438 4.476-1.314a24.094 24.094 0 003.49-2.875c0 1.26.328 2.3.986 3.121.656.821 1.779 1.232 3.367 1.232zm-11.662-2.135c-1.095 0-1.643-.685-1.643-2.053 0-.384.082-.959.247-1.725.164-.767.492-1.738.985-2.915a70.697 70.697 0 011.725-3.778 42.498 42.498 0 012.258-4.024 35.878 35.878 0 012.628-3.655c.904-1.095 1.834-1.985 2.793-2.669.958-.684 1.902-1.027 2.833-1.027.712 0 1.204.178 1.478.534.274.356.41.808.41 1.355 0 .493-.095 1.054-.287 1.684-.191.63-.41 1.26-.657 1.889a27.17 27.17 0 01-.739 1.724c-.246.52-.452.945-.616 1.273l-.246.575c-.438.712-1.013 1.78-1.725 3.203a35.07 35.07 0 01-2.546 4.27c-.985 1.424-2.053 2.67-3.202 3.737-1.15 1.068-2.382 1.602-3.696 1.602zm28.826 1.97c2.573 0 4.955-.602 7.145-1.806 2.19-1.204 4.079-2.587 5.666-4.147 1.588-1.56 2.834-3.039 3.737-4.435.903-1.396 1.355-2.313 1.355-2.751 0-.22-.11-.329-.328-.329-.274 0-.835.589-1.684 1.766s-1.998 2.477-3.45 3.9c-1.45 1.424-3.161 2.725-5.132 3.902-1.971 1.177-4.189 1.765-6.652 1.765-1.916 0-2.875-1.012-2.875-3.038 0-1.971.493-4.052 1.479-6.242a30.712 30.712 0 013.613-6.077c1.424-1.861 2.93-3.394 4.517-4.599 1.588-1.204 2.984-1.807 4.188-1.807.548 0 .904.22 1.068.657.164.438.246.876.246 1.314 0 .931-.328 1.876-.985 2.834-.657.958-1.547 1.875-2.67 2.75-1.122.877-2.463 1.67-4.023 2.383a24.26 24.26 0 01-5.051 1.642c-.219.055-.37.164-.452.328a1.093 1.093 0 00-.123.493c0 .383.082.575.246.575 2.793-.219 5.133-.78 7.022-1.683 1.89-.904 3.422-1.944 4.6-3.121 1.176-1.177 2.025-2.41 2.545-3.696s.808-2.45.862-3.49v-.41c0-.877-.191-1.616-.575-2.218a4.503 4.503 0 00-1.437-1.437 5.782 5.782 0 00-1.765-.74 7.47 7.47 0 00-1.643-.205c-1.97 0-3.791.425-5.461 1.273a16.372 16.372 0 00-4.517 3.408A23.274 23.274 0 00153.12 34a36.087 36.087 0 00-2.464 5.584c-.602 1.752-.904 3.477-.904 5.174 0 2.464.657 4.353 1.971 5.667 1.315 1.314 3.121 1.97 5.42 1.97zm47.612-44.022c-.216.274-.426.555-.628.842l-.299.435c-1.368 2.053-2.053 4.366-2.053 6.94 0 2.463.863 4.557 2.587 6.282 1.725 1.724 4.065 2.587 7.022 2.587 1.095 0 2.067-.22 2.915-.657a6.595 6.595 0 002.136-1.725c.574-.712.999-1.492 1.273-2.34.273-.85.41-1.684.41-2.505 0-1.314-.383-2.41-1.15-3.285-.766-.876-1.752-1.314-2.956-1.314-.602 0-1.027.15-1.273.451-.246.302-.37.616-.37.945 0 .438.192.657.575.657.11 0 .247-.014.41-.041a2.58 2.58 0 01.412-.041c.875 0 1.546.328 2.012.985.465.657.698 1.396.698 2.218 0 1.095-.411 2.149-1.232 3.161-.822 1.013-2.135 1.52-3.942 1.52-1.478 0-2.519-.534-3.121-1.602-.602-1.067-.903-2.368-.903-3.9 0-1.972.37-3.778 1.108-5.42a14.18 14.18 0 013.039-4.353 18.74 18.74 0 014.435-3.203 25.297 25.297 0 015.297-2.053c.547-.165 1.013-.247 1.396-.247.547 0 .821.247.821.74 0 .383-.082.848-.246 1.395a266.393 266.393 0 01-1.89 7.063 384.724 384.724 0 01-2.463 8.418c-.876 2.874-1.78 5.64-2.71 8.295-.93 2.655-1.78 4.859-2.546 6.61a372.833 372.833 0 01-3.696 7.68c-1.314 2.655-2.778 5.091-4.393 7.308-1.615 2.218-3.367 4.066-5.256 5.544-1.89 1.478-3.956 2.245-6.2 2.3-1.205 0-2.45-.138-3.737-.411a9.298 9.298 0 01-3.49-1.52c-1.04-.739-1.903-1.752-2.588-3.038-.684-1.287-1.026-2.97-1.026-5.05 0-1.424.233-2.67.698-3.738.465-1.067 1.068-1.97 1.807-2.71a7.024 7.024 0 012.546-1.642c.958-.356 1.902-.534 2.833-.534 1.26 0 2.395.356 3.408 1.068 1.013.711 1.574 1.779 1.684 3.202 0 1.752-.794 3.094-2.382 4.025-.11.11-.164.191-.164.246 0 .328.273.493.821.493.712 0 1.314-.26 1.807-.78a7.293 7.293 0 001.232-1.766 8.098 8.098 0 00.698-1.971c.137-.657.205-1.15.205-1.478 0-.876-.178-1.766-.534-2.67-.356-.903-.903-1.724-1.642-2.463-.74-.74-1.643-1.355-2.71-1.848-1.068-.493-2.341-.74-3.82-.74-1.149 0-2.312.26-3.49.781-1.177.52-2.244 1.3-3.202 2.34-.959 1.04-1.739 2.341-2.341 3.902-.602 1.56-.903 3.353-.903 5.379 0 .219.013.424.04.616.028.191.042.397.042.616l.164.944c.11.63.356 1.396.74 2.3.382.903.916 1.888 1.6 2.956.685 1.068 1.588 2.053 2.71 2.957 1.123.903 2.52 1.656 4.19 2.258 1.669.602 3.654.903 5.953.903 3.34 0 6.228-.698 8.664-2.094 2.437-1.396 4.545-3.12 6.324-5.174a35.374 35.374 0 004.558-6.652 820.175 820.175 0 013.531-6.61c.931-1.862 1.862-3.888 2.792-6.078.931-2.19 1.876-4.353 2.834-6.488a124.425 124.425 0 012.874-5.995c.958-1.862 1.903-3.422 2.833-4.681 2.3-3.066 4.353-5.338 6.16-6.817 1.807-1.478 3.203-2.217 4.188-2.217.986 0 1.478.712 1.478 2.135 0 .329-.177 1.082-.533 2.259a135.12 135.12 0 01-1.355 4.188 196.41 196.41 0 01-1.89 5.297 633.135 633.135 0 01-2.135 5.667 862.09 862.09 0 01-2.012 5.215 165.714 165.714 0 01-1.601 3.983c-1.533 3.613-2.738 6.994-3.613 10.142-.877 3.148-1.315 6.009-1.315 8.582 0 3.176.78 5.694 2.341 7.556 1.56 1.861 4.12 2.792 7.679 2.792.766 0 1.588-.15 2.464-.452a7.105 7.105 0 002.422-1.437c.74-.657 1.355-1.478 1.848-2.464.493-.985.74-2.162.74-3.531 0-1.697-.302-2.82-.904-3.367-.602-.548-1.205-.821-1.807-.821a2.9 2.9 0 00-1.314.287c-.383.192-.575.37-.575.534l.082.082c1.533 1.15 2.3 2.491 2.3 4.024 0 1.26-.48 2.354-1.437 3.285-.959.93-2.204 1.396-3.737 1.396-3.011 0-4.517-1.97-4.517-5.913 0-4.215 1.725-10.594 5.174-19.135.985-2.409 1.97-4.79 2.956-7.145.986-2.354 1.903-4.53 2.752-6.529.848-1.998 1.587-3.709 2.217-5.133.63-1.423 1.026-2.381 1.19-2.874.931-2.792 1.397-5.01 1.397-6.652 0-1.588-.465-2.847-1.396-3.778-.931-.93-2.355-1.396-4.27-1.396-1.26 0-2.574.329-3.943.986-1.369.657-2.737 1.56-4.106 2.71a46.355 46.355 0 00-4.147 3.983 70.828 70.828 0 00-4.065 4.804c.82-3.011 1.519-5.502 2.094-7.473s.862-3.532.862-4.681c0-1.917-.643-3.23-1.93-3.942C225.99.356 224.47 0 222.718 0c-2.19 0-4.517.383-6.98 1.15a24.676 24.676 0 00-6.776 3.285 19.482 19.482 0 00-3.876 3.532l-.27.335-.06.071zm44.489 44.598c1.97 0 3.709-.466 5.214-1.396a13.963 13.963 0 003.86-3.532 18.454 18.454 0 002.546-4.681c.63-1.697 1.082-3.34 1.355-4.927h.329c1.095 0 2.08.04 2.956.123.876.082 1.56.232 2.053.451.055 0 .082-.027.082-.082 0-.602-.177-1.04-.533-1.314-.356-.274-.808-.465-1.355-.575a9 9 0 00-1.766-.164h-1.684a4.192 4.192 0 01-.205-.944 2.014 2.014 0 00-.287-.863 6.352 6.352 0 001.601-2.3c.356-.875.534-1.779.534-2.71 0-1.587-.52-2.97-1.56-4.147s-2.656-1.765-4.846-1.765c-2.3.055-4.599.835-6.898 2.34-2.3 1.506-4.435 3.929-6.406 7.268-.821 1.424-1.656 3.203-2.505 5.338-.849 2.136-1.273 4.216-1.273 6.242 0 .93.137 1.848.41 2.751a6.28 6.28 0 001.438 2.464c.684.74 1.588 1.328 2.71 1.766 1.122.438 2.532.657 4.23.657zm-1.068-1.479c-1.04 0-1.848-.342-2.423-1.026-.575-.685-.862-1.602-.862-2.751 0-1.479.37-3.203 1.109-5.174.739-1.971 1.738-3.997 2.997-6.077a40.405 40.405 0 011.766-2.67 21.16 21.16 0 012.258-2.669 13.293 13.293 0 012.71-2.094c.986-.575 2.026-.862 3.121-.862.767 0 1.533.15 2.3.452.766.3 1.204.89 1.314 1.765v.41c0 .494-.11 1.068-.329 1.726-.219.657-.547 1.177-.985 1.56-.657-.657-1.191-1.068-1.602-1.232-.41-.164-.999-.246-1.765-.246-.493 0-1.096.11-1.807.328a9.76 9.76 0 00-2.053.903 6.455 6.455 0 00-1.684 1.397 2.832 2.832 0 00-.698 1.888c0 .603.246 1.068.74 1.397.492.328 1.067.492 1.724.492.547 0 .958-.013 1.232-.04.273-.028.506-.07.698-.124l.575-.164c.191-.055.479-.082.862-.082-.22 1.204-.616 2.546-1.19 4.024a24.931 24.931 0 01-2.095 4.188c-.821 1.314-1.738 2.423-2.751 3.326-1.013.904-2.067 1.355-3.162 1.355zm5.502-13.797c-.383 0-.575-.136-.575-.41 0-.165.096-.41.288-.74.191-.328.452-.656.78-.985.328-.328.67-.63 1.027-.903.355-.274.698-.41 1.026-.41h.329c.711.163 1.067.957 1.067 2.38 0 .11-.15.22-.451.33-.302.109-.657.218-1.068.328-.41.11-.835.205-1.273.287a6.344 6.344 0 01-1.15.123zm32.604-15.768c.93 0 1.807-.479 2.628-1.437a4.958 4.958 0 001.232-3.326c0-.712-.192-1.396-.575-2.053-.383-.657-.958-.986-1.725-.986-.93 0-1.807.48-2.628 1.438-.821.958-1.232 2.121-1.232 3.49 0 1.314.493 2.217 1.479 2.71.328.11.602.164.82.164zm-6.899 0c.931 0 1.807-.479 2.628-1.437a4.958 4.958 0 001.232-3.326c0-.712-.191-1.396-.575-2.053-.383-.657-.958-.986-1.724-.986-.931 0-1.807.48-2.628 1.438-.822.958-1.232 2.121-1.232 3.49 0 1.314.493 2.217 1.478 2.71.329.11.602.164.821.164zm-8.048 30.469c2.573 0 4.955-.603 7.145-1.807 2.19-1.204 4.079-2.587 5.667-4.147 1.587-1.56 2.833-3.039 3.736-4.435.904-1.396 1.355-2.313 1.355-2.751 0-.22-.11-.329-.328-.329-.274 0-.835.589-1.684 1.766-.848 1.177-1.998 2.477-3.449 3.9-1.45 1.424-3.162 2.725-5.133 3.902-1.97 1.177-4.188 1.765-6.652 1.765-1.916 0-2.874-1.012-2.874-3.038 0-1.971.492-4.052 1.478-6.242a30.712 30.712 0 013.614-6.077c1.423-1.861 2.929-3.394 4.516-4.599 1.588-1.204 2.984-1.807 4.189-1.807.547 0 .903.22 1.067.657.165.438.247.876.247 1.314 0 .931-.329 1.876-.986 2.834-.657.958-1.546 1.875-2.669 2.75-1.122.877-2.464 1.67-4.024 2.383a24.26 24.26 0 01-5.05 1.642c-.22.055-.37.164-.452.328a1.093 1.093 0 00-.123.493c0 .383.082.575.246.575 2.792-.219 5.133-.78 7.022-1.683 1.888-.904 3.421-1.944 4.599-3.121 1.177-1.177 2.025-2.41 2.545-3.696s.808-2.45.863-3.49v-.41c0-.877-.192-1.616-.575-2.218a4.503 4.503 0 00-1.437-1.437 5.782 5.782 0 00-1.766-.74 7.47 7.47 0 00-1.642-.205c-1.971 0-3.792.425-5.462 1.273a16.372 16.372 0 00-4.517 3.408 23.274 23.274 0 00-3.49 4.846 36.087 36.087 0 00-2.464 5.584c-.602 1.752-.903 3.477-.903 5.174 0 2.464.657 4.353 1.97 5.667 1.315 1.314 3.122 1.97 5.421 1.97zm17.821-.082c1.478 0 3.025-.48 4.64-1.438a24.274 24.274 0 004.435-3.367c1.341-1.286 2.436-2.6 3.285-3.942.849-1.341 1.273-2.422 1.273-3.244 0-.164-.055-.355-.164-.574-.22-.439-.438-.658-.657-.658l-1.068 1.725c-.712 1.15-1.629 2.41-2.751 3.778a31.81 31.81 0 01-3.655 3.778c-1.314 1.15-2.546 1.724-3.695 1.724-.767 0-1.15-.492-1.15-1.478 0-.821.274-1.944.821-3.367a178.987 178.987 0 013.45-8.787c1.314-3.121 2.627-6.256 3.942-9.404a359.17 359.17 0 003.695-9.198c1.15-2.984 2.053-5.707 2.71-8.171.055-.22.082-.52.082-.904 0-1.095-.492-1.902-1.478-2.422-.985-.52-2.108-.945-3.367-1.273.11 0 .082.342-.082 1.026-.164.685-.41 1.56-.74 2.628a126.285 126.285 0 01-1.149 3.532 320.224 320.224 0 01-2.546 7.186 41.721 41.721 0 01-.903 2.3 5404.788 5404.788 0 00-4.517 10.84 623.495 623.495 0 00-2.957 7.227c-.766 1.916-1.314 3.463-1.642 4.64-.329 1.177-.493 2.203-.493 3.08 0 .437.069.93.205 1.478.137.547.397 1.067.78 1.56.384.493.863.903 1.438 1.232.575.328 1.327.493 2.258.493z" fill="#FF4A4A" fill-rule="nonzero"/></svg>