<svg width="126" height="81" xmlns="http://www.w3.org/2000/svg"><path d="M56.158 35c1.228 0 2.293.25 3.195.748.901.498 1.352 1.418 1.352 2.76 0 .75-.175 1.753-.526 3.005l-.51 1.773a393.107 393.107 0 00-1.036 3.731c.921-1.188 1.87-2.31 2.849-3.363a32.473 32.473 0 012.906-2.789c.96-.805 1.919-1.437 2.878-1.898.96-.46 1.88-.69 2.763-.69 1.343 0 2.34.326 2.993.978.652.652.978 1.533.978 2.645 0 1.086-.29 2.531-.873 4.335l-.105.323c-.1.298-.322.842-.667 1.63l-.68 1.55c-.226.519-.467 1.08-.725 1.683l-1.245 2.935a666.164 666.164 0 00-3.072 7.382l-.33.824c-2.197 5.568-3.296 9.759-3.296 12.573 0 2.76 1.055 4.14 3.166 4.14 1.074 0 1.947-.326 2.618-.977.672-.652 1.008-1.419 1.008-2.3 0-1.017-.483-1.914-1.447-2.69l-.165-.128-.058-.058c0-.115.135-.24.403-.373.269-.134.576-.201.921-.201.422 0 .844.191 1.266.575.422.383.634 1.169.634 2.357 0 .958-.173 1.782-.518 2.472a5.663 5.663 0 01-1.295 1.726 4.98 4.98 0 01-1.698 1.006c-.614.21-1.19.316-1.727.316-2.494 0-4.288-.652-5.381-1.955-1.094-1.303-1.64-3.067-1.64-5.29 0-1.802.306-3.805.92-6.009.567-2.034 1.33-4.208 2.289-6.52l.51-1.222c.219-.533.464-1.148.737-1.844l.904-2.327.625-1.628c.333-.869.665-1.746.998-2.632l.499-1.335a142.22 142.22 0 001.177-3.28l.146-.43c.299-.879.557-1.666.774-2.36l.176-.572c.25-.824.374-1.351.374-1.581 0-.997-.345-1.495-1.036-1.495-.69 0-1.669.518-2.935 1.552-1.266 1.036-2.705 2.626-4.317 4.773-.652.882-1.314 1.974-1.985 3.278a87.08 87.08 0 00-2.015 4.197c-.447.997-.89 2.002-1.33 3.016l-.655 1.527a76.015 76.015 0 01-1.957 4.255l-.587 1.087a608.871 608.871 0 00-1.888 3.541 24.766 24.766 0 01-3.194 4.658 16.985 16.985 0 01-4.432 3.622c-1.707.978-3.731 1.467-6.072 1.467-1.611 0-3.002-.211-4.173-.633-1.17-.422-2.148-.949-2.935-1.581-.786-.633-1.42-1.323-1.899-2.07a14.106 14.106 0 01-1.122-2.07c-.269-.633-.442-1.17-.518-1.61l-.115-.661c0-.103-.005-.2-.013-.294l-.016-.138a3.05 3.05 0 01-.029-.431c0-1.418.211-2.674.633-3.766.422-1.093.969-2.003 1.64-2.732.672-.728 1.42-1.274 2.245-1.638.825-.364 1.64-.547 2.446-.547 1.036 0 1.928.173 2.676.518a6.513 6.513 0 011.9 1.294 5.043 5.043 0 011.15 1.725 5.07 5.07 0 01.375 1.869c0 .23-.048.575-.144 1.034-.096.46-.26.92-.49 1.38-.23.46-.517.873-.863 1.237a1.678 1.678 0 01-1.266.546c-.384 0-.575-.115-.575-.345 0-.038.038-.096.115-.172 1.112-.652 1.669-1.591 1.669-2.818-.077-.997-.47-1.744-1.18-2.242a4.06 4.06 0 00-2.389-.748c-.652 0-1.314.125-1.985.374a4.923 4.923 0 00-1.784 1.15 6.088 6.088 0 00-1.267 1.897c-.326.748-.489 1.62-.489 2.616 0 1.457.24 2.636.72 3.537.48.9 1.084 1.61 1.813 2.127a6.519 6.519 0 002.446 1.064c.901.192 1.774.287 2.618.287 1.574-.038 3.022-.575 4.346-1.61 1.323-1.035 2.551-2.328 3.683-3.88a35.132 35.132 0 003.08-5.118c.92-1.86 1.783-3.652 2.59-5.376.536-1.227 1.131-2.77 1.783-4.63.653-1.858 1.286-3.794 1.9-5.807.49-1.61.957-3.19 1.4-4.738l.567-2.021c.43-1.552.79-2.912 1.083-4.08.115-.383.173-.709.173-.977 0-.345-.192-.518-.576-.518-.224 0-.487.04-.791.12l-.187.053a17.739 17.739 0 00-3.712 1.437 13.133 13.133 0 00-3.108 2.243 9.928 9.928 0 00-2.13 3.048c-.518 1.15-.777 2.414-.777 3.794 0 1.074.211 1.984.633 2.732.422.747 1.151 1.121 2.187 1.121 1.266 0 2.187-.355 2.763-1.064.575-.709.863-1.447.863-2.213a2.62 2.62 0 00-.489-1.553c-.326-.46-.796-.69-1.41-.69-.051 0-.111.004-.18.013l-.108.016a1.81 1.81 0 01-.288.029c-.268 0-.403-.154-.403-.46 0-.23.087-.45.26-.662.172-.21.47-.316.892-.316.844 0 1.534.307 2.071.92.538.613.806 1.38.806 2.3 0 .575-.096 1.16-.288 1.754a5.063 5.063 0 01-.892 1.639 4.62 4.62 0 01-1.496 1.207c-.595.307-1.276.46-2.043.46-2.072 0-3.712-.604-4.921-1.811-1.209-1.208-1.813-2.674-1.813-4.399 0-1.702.428-3.24 1.283-4.617l.156-.242.21-.304.216-.298.265-.341.19-.235a13.648 13.648 0 012.716-2.473 17.3 17.3 0 014.748-2.3c1.727-.537 3.358-.805 4.892-.805zm65.767-7l.374.104c.905.264 1.723.591 2.452.98.833.446 1.249 1.138 1.249 2.076 0 .328-.023.586-.07.773-.555 2.11-1.318 4.443-2.29 6.999a310.018 310.018 0 01-3.123 7.877c-1.11 2.696-2.221 5.38-3.332 8.054a154.524 154.524 0 00-2.915 7.526c-.463 1.219-.694 2.18-.694 2.883 0 .844.324 1.266.972 1.266.971 0 2.012-.492 3.123-1.477a27.085 27.085 0 003.089-3.235 32.005 32.005 0 002.118-2.904l1.11-1.809c.184 0 .37.188.554.563.093.188.14.352.14.492 0 .704-.36 1.63-1.077 2.779-.717 1.148-1.642 2.274-2.776 3.376a20.545 20.545 0 01-3.748 2.883c-1.365.821-2.672 1.231-3.922 1.231-.786 0-1.422-.14-1.908-.422a4.101 4.101 0 01-1.215-1.055 3.604 3.604 0 01-.66-1.336 5.34 5.34 0 01-.173-1.266c0-.414.042-.867.127-1.36l-.405.41c-1.341 1.337-2.938 2.52-4.789 3.552-1.85 1.032-3.864 1.548-6.038 1.548-1.944 0-3.47-.563-4.581-1.688-1.11-1.126-1.666-2.743-1.666-4.853 0-1.454.254-2.931.763-4.432.102-.301.21-.601.32-.9a26.037 26.037 0 00-1.854-.082l-.687-.002-.093.512a24.54 24.54 0 01-1.052 3.708 15.871 15.871 0 01-2.152 4.009 11.86 11.86 0 01-3.262 3.024C82.562 68.601 81.093 69 79.427 69c-1.435 0-2.626-.188-3.575-.563-.948-.375-1.712-.879-2.29-1.512a5.395 5.395 0 01-1.215-2.11A8.182 8.182 0 0172 62.46c0-1.735.359-3.517 1.076-5.346.717-1.828 1.423-3.352 2.117-4.571 1.666-2.86 3.47-4.936 5.414-6.225 1.943-1.29 3.887-1.958 5.83-2.005 1.85 0 3.216.505 4.095 1.513.88 1.008 1.319 2.192 1.319 3.552 0 .797-.15 1.57-.451 2.32-.301.75-.752 1.407-1.354 1.97.111.188.185.383.222.585l.021.153c.018.194.054.394.11.6l.064.21h1.423l.315.005c.31.011.61.04.895.084l.347.065c.373-.887.792-1.759 1.254-2.616a19.927 19.927 0 012.95-4.15 13.855 13.855 0 013.817-2.919c1.411-.727 2.95-1.09 4.616-1.09.416 0 .879.058 1.388.176a4.852 4.852 0 011.492.633c.486.304.89.715 1.215 1.23.288.459.448 1.01.48 1.654l.006.246v.351l-.02.27c-.077.821-.313 1.728-.71 2.72-.439 1.101-1.156 2.156-2.15 3.165-.996 1.008-2.291 1.899-3.888 2.672-1.596.774-3.574 1.255-5.934 1.442-.139 0-.208-.164-.208-.492 0-.14.034-.282.104-.422.07-.14.196-.235.382-.282a20.314 20.314 0 004.268-1.406c1.319-.61 2.453-1.29 3.401-2.04.949-.75 1.7-1.536 2.256-2.356.555-.82.833-1.63.833-2.427 0-.375-.07-.75-.208-1.125-.14-.375-.44-.563-.903-.563-1.018 0-2.198.516-3.54 1.548-1.341 1.031-2.614 2.344-3.817 3.938a26.38 26.38 0 00-3.054 5.205c-.833 1.876-1.25 3.658-1.25 5.346 0 1.734.81 2.602 2.43 2.602 2.082 0 3.956-.504 5.622-1.512s3.112-2.122 4.338-3.341a35.192 35.192 0 001.448-1.523c.251-.743.567-1.595.947-2.557l1.194-2.986c.395-.975.83-2.043 1.304-3.203l3.818-9.284.12-.282c.148-.36.331-.837.548-1.427l.427-1.179c.17-.473.345-.966.526-1.48l.184-.52c.246-.704.493-1.418.74-2.142l.37-1.094c.37-1.102.694-2.11.972-3.024l.175-.586c.164-.56.298-1.049.4-1.464l.05-.201c.115-.489.15-.773.106-.855l-.017-.019zm-34.01 20c-.934 0-1.822.246-2.663.74a11.352 11.352 0 00-2.313 1.795c-.7.704-1.343 1.467-1.927 2.289a34.662 34.662 0 00-1.507 2.289c-1.075 1.784-1.928 3.52-2.559 5.21-.63 1.691-.946 3.17-.946 4.438 0 .985.245 1.772.736 2.359.49.587 1.18.88 2.068.88.934 0 1.834-.387 2.698-1.162.865-.775 1.648-1.725 2.348-2.852a21.419 21.419 0 001.788-3.592c.49-1.267.83-2.417 1.016-3.45-.272 0-.488.016-.647.049l-.089.021-.49.14-.13.034c-.135.03-.291.055-.466.073l-.23.017-.135.006c-.19.008-.42.012-.687.012-.56 0-1.051-.141-1.472-.423-.42-.281-.63-.68-.63-1.197 0-.61.198-1.15.595-1.62.398-.47.877-.868 1.437-1.197a8.311 8.311 0 011.753-.774c.607-.188 1.121-.282 1.542-.282.654 0 1.156.07 1.507.211.35.14.806.493 1.367 1.056.373-.328.654-.774.84-1.338.16-.483.252-.914.275-1.293l.006-.185V49.9l-.03-.182c-.128-.651-.492-1.095-1.091-1.332A5.311 5.311 0 0087.916 48zM25.367 33c.166.046.368.115.605.207a2.8 2.8 0 01.675.38c.213.161.397.351.551.57.154.219.231.478.231.777 0 .092-.006.173-.018.242-.011.07-.03.15-.053.242-.166.553-.45 1.284-.853 2.193l-.277.62c-.331.737-.695 1.526-1.092 2.368-.407.866-.83 1.75-1.268 2.653l-.741 1.524a202.47 202.47 0 00-1.137 2.386l-.23.497c-.37.813-.678 1.545-.925 2.198-.296.783-.445 1.347-.445 1.692 0 .254.13.38.392.38.331 0 .752-.173 1.262-.518.509-.345 1.007-.76 1.493-1.243.178-.178.35-.357.517-.54a6.49 6.49 0 01.389-2.086c.284-.806.64-1.589 1.067-2.349.426-.76.93-1.439 1.51-2.038a7.072 7.072 0 011.955-1.433 5.265 5.265 0 012.364-.535c.214 0 .45.028.711.086.261.057.516.161.765.31.249.15.456.352.622.605.147.225.23.496.246.812l.003.12v.174l-.01.132c-.04.404-.16.849-.364 1.336-.225.54-.592 1.059-1.102 1.554-.51.495-1.173.933-1.99 1.313-.818.38-1.831.616-3.04.708-.07 0-.106-.08-.106-.242a.45.45 0 01.053-.207c.036-.07.1-.115.195-.138a10.72 10.72 0 002.187-.691 8.725 8.725 0 001.742-1.002c.485-.368.87-.754 1.155-1.157.284-.403.427-.8.427-1.192 0-.184-.036-.368-.107-.553-.071-.184-.225-.276-.462-.276-.522 0-1.126.253-1.813.76-.688.507-1.34 1.151-1.955 1.934a12.845 12.845 0 00-1.565 2.557c-.426.92-.64 1.796-.64 2.625 0 .852.415 1.278 1.245 1.278 1.066 0 2.026-.248 2.88-.743a11.74 11.74 0 002.221-1.64 13.897 13.897 0 001.39-1.505l.103-.136c.367-.495.61-.743.729-.743.095 0 .142.046.142.138 0 .184-.196.57-.587 1.157-.39.588-.93 1.21-1.617 1.866-.687.656-1.505 1.237-2.453 1.744a6.46 6.46 0 01-3.093.76c-.995 0-1.777-.276-2.346-.83-.393-.381-.65-.88-.772-1.493-.223.23-.458.452-.703.665a9.532 9.532 0 01-1.778 1.226c-.628.334-1.238.501-1.83.501-.688 0-1.173-.173-1.458-.518-.284-.346-.426-.783-.426-1.313-.45.438-.954.84-1.511 1.21-.557.368-1.203.552-1.938.552-.26 0-.533-.035-.817-.104-.616-.138-1.049-.455-1.298-.95A3.454 3.454 0 0112 50.306c0-.24.023-.472.068-.697l.039-.167a12.63 12.63 0 011.208-3.316c.545-1.013 1.144-1.888 1.796-2.625.651-.737 1.309-1.313 1.972-1.727.664-.415 1.245-.622 1.742-.622.474 0 .86.07 1.156.207.296.138.533.311.71.518.178.208.303.444.374.708.071.265.118.524.142.778.299-.705.655-1.489 1.069-2.352l.14-.29c.474-.98.924-1.952 1.35-2.92.427-.967.795-1.876 1.103-2.728.308-.853.462-1.532.462-2.038 0-.023.012-.035.035-.035zM19.14 43c-.424 0-.855.141-1.291.423a6.55 6.55 0 00-1.273 1.1c-.412.45-.811.953-1.198 1.505-.387.553-.73 1.105-1.03 1.658-.299.553-.56 1.072-.786 1.556-.224.485-.374.886-.449 1.202-.075.315-.112.552-.112.71 0 .564.25.846.749.846.599 0 1.16-.22 1.684-.66a9.692 9.692 0 001.46-1.54c.45-.586.836-1.172 1.16-1.759l.157-.28c.228-.404.42-.725.578-.963l.052-.076.112-.237.175-.323.106-.201a10.652 10.652 0 00.636-1.49c.087-.259.131-.49.131-.693a.831.831 0 00-.187-.558c-.125-.147-.35-.22-.674-.22zm92.994-8c.623 0 1.09.295 1.4.884.311.59.467 1.204.467 1.842 0 1.13-.333 2.125-1 2.985-.667.86-1.378 1.289-2.133 1.289-.178 0-.4-.05-.667-.147-.8-.442-1.2-1.253-1.2-2.432 0-1.228.333-2.272 1-3.132.667-.86 1.378-1.289 2.133-1.289zm-6 0c.623 0 1.09.295 1.4.884.311.59.467 1.204.467 1.842 0 1.13-.333 2.125-1 2.985-.667.86-1.378 1.289-2.133 1.289-.178 0-.4-.05-.667-.147-.8-.442-1.2-1.253-1.2-2.432 0-1.228.333-2.272 1-3.132.667-.86 1.378-1.289 2.133-1.289zM17.496 0c.905 0 1.635.295 2.192.885.556.59.834 1.292.834 2.106 0 .708-.24 1.423-.718 2.144a12.368 12.368 0 01-1.688 2.026c-.646.63-1.306 1.18-1.978 1.653-.672.472-1.203.8-1.59.984-.75.34-1.514.61-2.29.806a9.59 9.59 0 01-2.366.296c-.31 0-.646-.007-1.008-.02a5.816 5.816 0 01-.931-.098l-.123.15c-.3.377-.699.95-1.196 1.719a29.255 29.255 0 00-1.707 3.069 27.553 27.553 0 00-1.494 3.777 13.33 13.33 0 00-.64 4.034c0 .682.123 1.298.369 1.849.245.55.569 1.023.97 1.416.4.394.86.696 1.377.905.517.21 1.047.315 1.59.315a8.387 8.387 0 003.588-.787 12.676 12.676 0 003.065-2.006 14.893 14.893 0 002.216-2.446l.19-.27.103-.153a5.481 5.481 0 01-.084-.988c0-.813.142-1.64.426-2.479.31-.918.699-1.81 1.164-2.675a11.148 11.148 0 011.649-2.322 7.744 7.744 0 012.134-1.633 5.547 5.547 0 012.58-.61c.232 0 .49.033.775.099.285.065.563.183.834.354.272.17.498.4.68.688.16.257.25.565.267.925l.004.138v.196l-.011.152c-.043.459-.176.966-.397 1.52-.245.617-.646 1.208-1.202 1.772-.556.563-1.28 1.062-2.173 1.495-.892.433-1.998.701-3.316.806-.078 0-.117-.091-.117-.275a.53.53 0 01.058-.236c.04-.079.11-.131.214-.158a11.346 11.346 0 002.385-.787 9.431 9.431 0 001.901-1.14c.53-.42.95-.86 1.261-1.319.31-.459.466-.911.466-1.357 0-.21-.04-.42-.117-.63-.077-.21-.245-.315-.504-.315-.569 0-1.229.289-1.979.866s-1.46 1.312-2.133 2.204a14.761 14.761 0 00-1.707 2.911c-.466 1.05-.698 2.046-.698 2.99 0 .971.452 1.457 1.357 1.457 1.164 0 2.212-.282 3.143-.846a12.864 12.864 0 002.424-1.87c.297-.294.567-.578.81-.851.14-.416.317-.893.529-1.43l.667-1.671c.22-.546.464-1.143.73-1.792l2.133-5.194.067-.158c.083-.202.185-.468.306-.798l.239-.66c.095-.264.193-.54.294-.828l.102-.291c.138-.394.276-.793.414-1.198l.207-.612c.207-.617.388-1.18.543-1.692l.098-.327c.092-.314.167-.587.224-.82l.027-.112c.065-.273.085-.433.06-.478l-.01-.01.21.057c.433.127.83.28 1.192.458l.178.09c.465.25.698.637.698 1.162 0 .183-.013.328-.039.432a39.239 39.239 0 01-1.28 3.916 173.536 173.536 0 01-1.746 4.407c-.62 1.508-1.241 3.01-1.862 4.505a86.499 86.499 0 00-1.63 4.21c-.258.682-.387 1.22-.387 1.614 0 .472.181.708.543.708.543 0 1.125-.275 1.746-.826.62-.551 1.196-1.155 1.726-1.81.091-.113.18-.225.266-.335.038-.68.176-1.368.413-2.066.31-.918.698-1.81 1.164-2.675a11.148 11.148 0 011.648-2.322 7.744 7.744 0 012.134-1.633 5.547 5.547 0 012.58-.61c.233 0 .491.033.776.099.284.065.562.183.834.354.271.17.498.4.679.688.16.257.25.565.268.925l.003.138v.196l-.01.152c-.044.459-.176.966-.397 1.52-.246.617-.647 1.208-1.203 1.772-.556.563-1.28 1.062-2.172 1.495-.892.433-1.998.701-3.317.806-.078 0-.116-.091-.116-.275a.53.53 0 01.058-.236c.039-.079.11-.131.213-.158a11.346 11.346 0 002.386-.787 9.431 9.431 0 001.9-1.14c.531-.42.951-.86 1.262-1.319.31-.459.465-.911.465-1.357 0-.21-.039-.42-.116-.63-.078-.21-.246-.315-.505-.315-.569 0-1.228.289-1.978.866s-1.461 1.312-2.134 2.204a14.761 14.761 0 00-1.707 2.911c-.465 1.05-.698 2.046-.698 2.99 0 .971.453 1.457 1.358 1.457 1.164 0 2.211-.282 3.142-.846a12.864 12.864 0 002.425-1.87l.25-.253.121-.125.235-.638c.27-.724.528-1.375.77-1.954.337-.8.68-1.587 1.029-2.361l.463-1.031c.212-.475.433-.97.662-1.487l.204-.468c.347-.803.725-1.73 1.134-2.779l.566-1.43c.429-1.086.828-2.111 1.2-3.075.5-1.3.787-2.362.861-3.183l.011-.142v-.04l.019.015a.283.283 0 00.136.025c0-.026.013-.04.04-.04.18.053.4.132.659.237.258.105.504.249.737.433.232.183.433.4.601.649.168.249.252.544.252.885 0 .315-.11.787-.33 1.417-.22.63-.504 1.35-.853 2.164a78.867 78.867 0 01-1.02 2.27l-.163.347c-.44.93-.88 1.869-1.32 2.813.44-.525.912-.951 1.417-1.279a3.03 3.03 0 011.687-.492c.88 0 1.546.368 1.998 1.102.453.735.679 1.64.679 2.715 0 .787-.103 1.627-.31 2.518a13.726 13.726 0 01-.873 2.578c-.375.826-.834 1.58-1.377 2.262-.498.626-1.05 1.107-1.657 1.446l-.167.089-.388.197-.127.045c-.174.059-.364.11-.57.151a4.09 4.09 0 01-.815.08c-.776 0-1.423-.152-1.94-.453-.485-.283-.8-.745-.943-1.385l-.027-.13v-.197l.002-.138c.017-.584.146-1.01.386-1.279.259-.288.53-.432.815-.432.155 0 .232.065.232.196 0 .117-.06.306-.184.568l-.048.101c-.156.315-.233.59-.233.827 0 .367.123.688.368.964.246.275.563.413.95.413.492 0 .997-.309 1.514-.925.517-.616.989-1.37 1.416-2.263.426-.891.782-1.83 1.067-2.813.284-.984.426-1.843.426-2.577 0-1.18-.4-1.771-1.202-1.771-.518 0-1.015.23-1.494.689-.478.459-.95 1.049-1.416 1.77a21.09 21.09 0 00-1.338 2.44 97.59 97.59 0 00-1.222 2.695 19.158 19.158 0 00-.62 1.909c-.14.53-.217.982-.231 1.354l-.003.121v.236l.003.046c.009.059.034.11.075.151 0 .026-.078.007-.233-.059l-.382-.159a50.345 50.345 0 00-.142-.057 5.25 5.25 0 01-.543-.256l-.159-.09a.816.816 0 01-.132-.087 2.247 2.247 0 01-.446-.748 2.515 2.515 0 01-.135-.826c0-.137.007-.273.021-.407a12.272 12.272 0 01-2.465 1.784 6.813 6.813 0 01-3.375.866c-1.087 0-1.94-.315-2.56-.945-.43-.435-.71-1.002-.843-1.701l-.095.099-.207.206a11.484 11.484 0 01-2.095 1.613c-.763.459-1.494.688-2.192.688-.44 0-.795-.078-1.067-.236a2.293 2.293 0 01-.678-.59 2.017 2.017 0 01-.369-.748 2.99 2.99 0 01-.097-.708c0-.231.024-.485.07-.76l-.225.229c-.75.748-1.642 1.41-2.677 1.987a6.813 6.813 0 01-3.375.866c-1.086 0-1.94-.315-2.56-.945a2.844 2.844 0 01-.401-.513 14.708 14.708 0 01-2.237 2.441 14.708 14.708 0 01-3.181 2.125c-1.164.577-2.34.866-3.53.866-2.56 0-4.494-.498-5.8-1.495C.653 26.508 0 24.973 0 22.9c0-1.102.168-2.276.504-3.522.337-1.246.75-2.452 1.242-3.62a33.852 33.852 0 011.551-3.226l.246-.441c.443-.783.84-1.43 1.19-1.94a8.913 8.913 0 01-1.746-.846 7.07 7.07 0 01-1.513-1.26A6.332 6.332 0 01.407 6.435 4.604 4.604 0 010 4.486c0-.525.097-1.05.29-1.574a4.631 4.631 0 01.854-1.436A4.553 4.553 0 012.502.413C3.032.138 3.647 0 4.345 0c.491 0 .937.098 1.338.295.401.197.737.453 1.009.767.271.315.478.67.62 1.063.143.393.214.774.214 1.14 0 .683-.22 1.208-.66 1.575-.44.367-.814.55-1.125.55-.207 0-.368-.065-.485-.196-.116-.131-.174-.262-.174-.393 0-.105.071-.19.213-.256.143-.066.304-.145.485-.236.181-.092.343-.217.485-.374.142-.158.213-.394.213-.708 0-.499-.187-1.004-.562-1.515C5.54 1.2 5.017.944 4.345.944c-.673 0-1.151.223-1.436.67-.284.445-.426 1.01-.426 1.691 0 1.18.323 2.23.97 3.148a6.961 6.961 0 002.444 2.164A55.99 55.99 0 018.98 5.214a28.309 28.309 0 013.084-2.735c1.008-.76 1.972-1.364 2.89-1.81C15.873.223 16.72 0 17.495 0zm66.912 2a5.24 5.24 0 011.609.716c.47.319.706.743.706 1.274 0 .291-.059.636-.177 1.034-.117.398-.261.816-.431 1.254-.114.291-.233.586-.358.884l-.192.449c-.196.45-.373.875-.53 1.273.864.053 1.524.153 1.982.299.458.145.713.59.766 1.333 0 .026-.013.04-.04.04a4.304 4.304 0 00-1.079-.22c-.37-.034-.783-.053-1.24-.058l-.232-.001h-.706l-1.194 2.888c-.37.898-.745 1.806-1.121 2.723l-.42 1.03a125.38 125.38 0 00-1.66 4.342c-.262.69-.393 1.233-.393 1.631 0 .478.183.716.55.716.549 0 1.138-.278 1.766-.835a15.32 15.32 0 002.005-2.157l.111-.322a44.15 44.15 0 011.062-2.655l.294-.673c.525-1.212.97-2.3 1.335-3.266.432-1.14.648-1.937.648-2.388 0-.08.091-.119.274-.119.157 0 .367.04.628.12.262.079.517.198.766.358.248.159.457.358.628.596.17.24.255.504.255.796 0 .213-.013.418-.04.617a1.983 1.983 0 01-.196.617l-.064.112c-.163.293-.417.8-.76 1.52a91.472 91.472 0 00-1.217 2.665c-.418.955-.791 1.87-1.118 2.746-.327.876-.49 1.499-.49 1.87 0 .186.045.299.137.339.091.04.19.06.294.06.392 0 .863-.233 1.413-.697a13.434 13.434 0 001.609-1.632l.202-.244c.032-.898.233-1.818.602-2.76.406-1.035.805-1.897 1.197-2.586.942-1.619 1.963-2.793 3.062-3.522 1.098-.73 2.197-1.108 3.296-1.134 1.047 0 1.819.285 2.316.855.497.57.745 1.24.745 2.01a3.5 3.5 0 01-.255 1.313c-.17.425-.425.796-.765 1.114a1 1 0 01.126.331l.011.087c.01.11.03.223.063.34l.035.118h.805l.178.003c.235.008.456.034.666.076.203.042.38.107.527.196l.206-.449c.179-.384.375-.795.588-1.232l.13-.266 1.06-2.228.039.078-.002-.023-.006-.02-.011-.015c-.013-.013-.02-.033-.02-.06a6.66 6.66 0 00.189-.51l.105-.332.158-.51c.065-.213.124-.392.176-.538.053-.146.105-.219.157-.219.053.027.197.047.432.06.235.013.477.066.726.16.249.092.478.238.687.437.21.199.327.484.353.855 0 .122-.071.377-.214.766l-.041.11c-.17.45-.32.822-.451 1.114l.17-.203c.212-.248.476-.532.791-.852.406-.41.83-.802 1.276-1.173.444-.372.876-.683 1.295-.936.418-.252.745-.378.98-.378.969 0 1.636.186 2.002.558.367.37.55.822.55 1.352 0 .505-.203 1.214-.609 2.13-.29.653-.599 1.334-.929 2.042l-.405.862a104.728 104.728 0 00-1.334 2.925c-.406.928-.609 1.671-.609 2.228 0 .24.079.358.236.358.235 0 .621-.225 1.158-.676a18.155 18.155 0 001.648-1.592 26.88 26.88 0 001.59-1.89c.497-.65.824-1.174.98-1.572 0-.026.014-.04.04-.04.052 0 .104.02.157.06.035.027.07.056.104.089l.053.05.196.2-.002.016a1.006 1.006 0 01-.076.182c-.288.531-.7 1.168-1.237 1.91a18.229 18.229 0 01-1.805 2.13 12.294 12.294 0 01-2.08 1.71c-.72.465-1.38.697-1.982.697-.314 0-.654-.086-1.02-.259-.367-.172-.55-.564-.55-1.174 0-.292.053-.676.157-1.154a17.41 17.41 0 01.53-1.81c.228-.669.533-1.466.914-2.39l.398-.949c.372-.88.805-1.883 1.298-3.008.288-.663.432-1.154.432-1.472 0-.213-.066-.319-.197-.319-.157 0-.34.093-.55.279a4.617 4.617 0 01-.4.33l-.168.127c-.301.226-.641.504-1.02.836-.38.332-.766.71-1.158 1.134-.393.425-.746.876-1.06 1.353l-.316.49a44.372 44.372 0 00-1.509 2.514 19.372 19.372 0 00-1.06 2.209c-.248.637-.411 1.194-.49 1.671a8.358 8.358 0 00-.118 1.353c0 .053-.052.08-.157.08-.13 0-.307-.047-.53-.14a2.591 2.591 0 01-.647-.398 3.499 3.499 0 01-.57-.596 1.254 1.254 0 01-.254-.776c0-.319.04-.67.118-1.055.078-.385.209-.862.392-1.432a22.78 22.78 0 01.659-1.757l.106-.253.09-.208a4.906 4.906 0 00-.384-.05 14.258 14.258 0 00-1.156-.059l-.257-.001h-.157l-.053.29a13.89 13.89 0 01-.594 2.097 8.981 8.981 0 01-1.217 2.268 6.708 6.708 0 01-1.845 1.712c-.719.45-1.55.676-2.492.676-.81 0-1.484-.106-2.02-.318-.537-.213-.969-.498-1.296-.856a3.053 3.053 0 01-.687-1.194 4.74 4.74 0 01-.106-.427l-.13.149c-.575.65-1.19 1.22-1.844 1.71-.654.492-1.295.737-1.923.737-.758 0-1.347-.225-1.766-.676-.418-.451-.628-.929-.628-1.433l.003-.136a11.62 11.62 0 01-1.906 1.43c-.772.464-1.51.696-2.217.696-.445 0-.798-.08-1.06-.24a1.951 1.951 0 01-.628-.596 2.107 2.107 0 01-.314-.776 4.047 4.047 0 01-.078-.736c0-.207.015-.428.046-.664-.234.261-.479.516-.733.763-.667.65-1.367 1.2-2.1 1.652-.732.45-1.426.676-2.08.676-.732 0-1.243-.199-1.53-.597-.288-.398-.432-.888-.432-1.472a11.55 11.55 0 01-1.668 1.393c-.615.424-1.328.636-2.139.636-.288 0-.589-.04-.902-.119-.68-.16-1.158-.524-1.433-1.094a4.12 4.12 0 01-.412-1.81c0-.277.025-.544.075-.803l.043-.193a14.96 14.96 0 011.334-3.82c.602-1.167 1.262-2.175 1.982-3.024.72-.849 1.445-1.512 2.178-1.99.733-.477 1.374-.716 1.923-.716.523 0 .949.08 1.276.239.327.16.588.358.784.597.197.239.334.51.413.816a5.6 5.6 0 01.157.895l.08-.258.077-.26c.078-.265.17-.537.274-.815l.12-.322.106-.296.167-.476c.601.053 1.131.311 1.59.776.457.464.686.974.686 1.532 0 .212-.098.55-.294 1.014a35.93 35.93 0 01-.726 1.592 86.085 86.085 0 01-.942 1.89c-.34.663-.654 1.32-.942 1.97-.288.65-.53 1.247-.726 1.79-.197.544-.295.989-.295 1.334 0 .265.079.397.236.397.261 0 .674-.225 1.236-.676a20.385 20.385 0 001.746-1.592c.463-.469.903-.95 1.319-1.442.108-.333.238-.701.389-1.104l.284-.747c.178-.463.38-.974.604-1.532l1.133-2.792c.338-.837.71-1.765 1.118-2.784l.138-.343-1.178.24-.094.02c-.21.049-.355.108-.436.178-.091.08-.15.12-.176.12-.047 0-.084-.108-.11-.323l-.047-.5v-.013c0-.345.091-.604.275-.776a1.35 1.35 0 01.686-.338c.275-.053.563-.087.864-.1.3-.013.582-.033.844-.06l.109-.267c.143-.36.322-.849.538-1.464.275-.782.536-1.565.785-2.347l.308-.985c.071-.231.138-.451.2-.66l.12-.405c.16-.549.222-.84.185-.872L84.408 2zM63.39 11c.549 0 .954.229 1.216.686a2.972 2.972 0 01-.056 3.046c-.3.498-.723.746-1.272.746-.274 0-.468-.033-.58-.1-.112-.068-.168-.115-.168-.142 0-.053.093-.195.28-.423.187-.229.28-.505.28-.827a1.27 1.27 0 00-.168-.626c-.112-.201-.293-.302-.542-.302-.4 0-.867.296-1.403.887-.536.592-1.129 1.44-1.777 2.542l-.302.523c-.536.94-.978 1.775-1.326 2.503-.411.86-.73 1.62-.954 2.28a10.2 10.2 0 00-.449 1.734 9.394 9.394 0 00-.112 1.392c0 .054-.05.081-.15.081-.125 0-.293-.047-.505-.141a2.449 2.449 0 01-.617-.404c-.2-.175-.38-.376-.543-.605a1.326 1.326 0 01-.243-.787c0-.322.037-.679.112-1.069.075-.39.2-.874.374-1.452.175-.579.418-1.258.73-2.038l.164-.402c.228-.553.499-1.172.81-1.856l.242-.526 1.01-2.259.038.08-.002-.024-.007-.02-.01-.016c-.013-.013-.019-.033-.019-.06.06-.15.12-.323.18-.517l.322-1.097c.035-.113.067-.214.097-.303.05-.148.1-.222.15-.222.05.027.187.047.411.06.225.014.455.068.692.162.237.094.455.242.655.444s.312.491.337.868c0 .14-.067.395-.2.763l-.062.162.138-.202c.145-.207.31-.42.498-.643a11.6 11.6 0 01.767-.827c.262-.255.536-.477.823-.666.287-.188.555-.309.804-.363.034 0 .07-.003.109-.009l.06-.01A.807.807 0 0163.39 11zm8.72 2c-.645 0-1.296.362-1.954 1.087a14.273 14.273 0 00-1.817 2.552 23.94 23.94 0 00-1.431 2.97c-.4 1.003-.664 1.798-.793 2.383-.077.39-.116.711-.116.962 0 .697.245 1.046.735 1.046.567 0 1.115-.265 1.643-.795.529-.53 1.019-1.15 1.47-1.86.451-.712.844-1.423 1.18-2.134l.444-.936.33-.674.115-.293.18-.4.11-.248a14.461 14.461 0 00.658-1.84c.09-.321.135-.607.135-.858 0-.279-.064-.509-.193-.69-.13-.181-.361-.272-.697-.272zm26.039 0a3.33 3.33 0 00-1.599.407 6.77 6.77 0 00-1.387.987c-.421.388-.807.807-1.157 1.26-.35.451-.652.87-.904 1.258a16.76 16.76 0 00-1.535 2.866c-.379.93-.568 1.743-.568 2.44 0 .543.147.975.442 1.298.294.323.708.484 1.24.484.561 0 1.1-.213 1.62-.64a7.353 7.353 0 001.408-1.568c.42-.62.778-1.278 1.073-1.975.294-.697.497-1.33.61-1.898-.164 0-.294.009-.389.027l-.053.012-.294.077a2.232 2.232 0 01-.358.058c-.14.013-.35.02-.63.02-.337 0-.632-.078-.884-.233a.732.732 0 01-.378-.658c0-.336.119-.633.357-.891a3.26 3.26 0 01.862-.658c.337-.181.687-.323 1.052-.427.364-.103.672-.154.925-.154.392 0 .694.038.904.116.21.077.484.27.82.58.224-.18.393-.425.505-.735.096-.266.15-.503.165-.712l.003-.102v-.193c-.056-.413-.28-.691-.673-.833A3.441 3.441 0 0098.15 13zm-7.137-6c.342 0 .592.147.75.442.158.295.237.625.237.99 0 .701-.217 1.305-.651 1.81-.435.505-.875.758-1.323.758-.079 0-.197-.028-.355-.084a1.035 1.035 0 01-.513-.505 1.87 1.87 0 01-.158-.8c0-.73.224-1.348.671-1.853.447-.505.895-.758 1.342-.758zM19.234 2c-.617 0-1.403.291-2.357.873a26.455 26.455 0 00-2.88 2.05 33.13 33.13 0 00-2.64 2.376c-.693.7-1.207 1.248-1.54 1.646l-.132.162c-.242.324-.47.595-.685.812.215.027.416.047.604.06.188.014.39.021.605.021 1.665 0 3.116-.311 4.351-.934 1.236-.623 2.257-1.347 3.063-2.173.806-.825 1.403-1.638 1.793-2.436.39-.799.584-1.374.584-1.726 0-.298-.067-.494-.201-.589-.135-.095-.323-.142-.565-.142zM40.68 5c.16.074.373.153.64.239s.527.202.78.35c.253.146.467.318.64.514s.26.429.26.698c0 .417-.22.822-.66 1.214-.44.392-1.073.894-1.9 1.507-.453.319-.827.478-1.12.478-.213 0-.32-.086-.32-.257 0-.123.027-.209.08-.258.16-.245.347-.612.56-1.103.213-.49.4-.986.56-1.489.137-.43.25-.816.338-1.157l.042-.166c.093-.38.127-.57.1-.57zm-16 0c.16.074.373.153.64.239s.527.202.78.35c.253.146.467.318.64.514s.26.429.26.698c0 .417-.22.822-.66 1.214-.44.392-1.073.894-1.9 1.507-.453.319-.827.478-1.12.478-.213 0-.32-.086-.32-.257 0-.123.027-.209.08-.258.16-.245.347-.612.56-1.103.213-.49.4-.986.56-1.489.137-.43.25-.816.338-1.157l.042-.166c.093-.38.127-.57.1-.57z" fill="#FF4A4A" fill-rule="evenodd"/></svg>