<?xml version="1.0" encoding="utf-8"?>
<!-- Generator: Adobe Illustrator 16.0.0, SVG Export Plug-In . SVG Version: 6.00 Build 0)  -->
<!DOCTYPE svg PUBLIC "-//W3C//DTD SVG 1.1//EN" "http://www.w3.org/Graphics/SVG/1.1/DTD/svg11.dtd">
<svg version="1.1" xmlns="http://www.w3.org/2000/svg" xmlns:xlink="http://www.w3.org/1999/xlink" x="0px" y="0px"
	 width="3341.469px" height="418.933px" viewBox="0 0 3341.469 418.933" enable-background="new 0 0 3341.469 418.933"
	 xml:space="preserve">
<g id="Calque_2">
	<path fill="#3D8BBA" d="M210.293,0C94.15,0,0,94.152,0,210.294C0,317.47,80.176,405.916,183.821,418.933V205.371h-66.43
		c-6.628,0-12-5.373-12-12v-28.943c0-6.627,5.372-12,12-12h66.43V98.449c0-6.627,5.372-12,12-12h28.944c6.627,0,12,5.373,12,12
		v53.979h66.43c6.627,0,12,5.373,12,12v28.943c0,6.627-5.373,12-12,12h-66.43v213.562
		c103.646-13.019,183.822-101.464,183.822-208.639C420.588,94.152,326.436,0,210.293,0z"/>
</g>
<g id="Calque_3">
	<path fill="#1A3B4D" d="M627.035,105.286h130.844v16.083H644.662v76.371h111.049v16.092H644.662v81.633h113.217v16.086H627.035
		V105.286z M686.73,87.968l47.643-44.529h19.172l-53.201,44.529H686.73z"/>
	<path fill="#1A3B4D" d="M873.551,101.887c34.031,0,58.773,13.6,77.645,35.251l-13.305,9.584
		c-14.543-17.314-38.047-28.759-64.34-28.759c-48.562,0-85.994,36.804-85.994,90.61c0,53.188,37.432,90.909,85.994,90.909
		c27.531,0,49.182-13.603,60.629-25.046v-49.479h-77.947v-15.765h95.584v72.053c-18.26,20.404-45.781,34.319-78.266,34.319
		C815.709,315.564,769,272.267,769,208.573C769,144.869,815.709,101.887,873.551,101.887z"/>
	<path fill="#1A3B4D" d="M971.908,105.286h17.627v190.178h99.906v16.086H971.908V105.286z"/>
	<path fill="#1A3B4D" d="M1103.047,105.286h17.635V311.55h-17.635V105.286z"/>
	<path fill="#1A3B4D" d="M1147.281,269.177c13.297,15.467,34.953,30.004,64.338,30.004c42.371,0,54.443-23.506,54.443-41.131
		c0-29.074-27.537-37.11-56.611-44.842c-32.477-8.967-67.125-18.244-67.125-56.279c0-33.707,30.312-55.042,67.748-55.042
		c30.928,0,53.818,10.822,69.902,29.067l-11.754,12.99c-14.848-17.938-35.883-25.981-59.08-25.981
		c-27.531,0-48.26,15.774-48.26,38.036c0,24.435,25.68,31.543,53.826,38.966c33.41,9.584,69.91,20.101,69.91,61.841
		c0,26.6-17.635,58.451-73.314,58.451c-34.025,0-59.701-13.607-75.471-32.782L1147.281,269.177z"/>
	<path fill="#1A3B4D" d="M1302.234,105.286h130.85v16.083h-113.215v76.371h111.045v16.092h-111.045v81.633h113.215v16.086h-130.85
		V105.286z"/>
	<path fill="#1A3B4D" d="M1473.898,105.286h30.93v179.049h93.727v27.215h-124.656V105.286z"/>
	<path fill="#1A3B4D" d="M1628.863,225.271l-80.734-119.985h35.572l60.627,92.156l60.008-92.156h35.875l-80.42,119.985v86.279
		h-30.928V225.271z"/>
	<path fill="#1A3B4D" d="M1823.102,101.887c61.555,0,103.939,45.451,103.939,106.686c0,61.226-42.385,106.684-103.939,106.684
		c-61.553,0-103.93-45.458-103.93-106.684C1719.172,147.337,1761.549,101.887,1823.102,101.887z M1823.102,129.408
		c-44.232,0-72.068,33.706-72.068,79.165c0,45.142,27.836,79.165,72.068,79.165c43.615,0,72.08-34.023,72.08-79.165
		C1895.182,163.114,1866.717,129.408,1823.102,129.408z"/>
	<path fill="#1A3B4D" d="M1970.637,153.222V311.55h-30.934V105.286h31.859L2083.85,259.9V105.286h30.938V311.55h-30.006
		L1970.637,153.222z"/>
	<path fill="#1A3B4D" d="M2247.775,101.887c34.027,0,58.77,13.6,77.637,35.251l-13.297,9.584
		c-14.537-17.314-38.047-28.759-64.34-28.759c-48.561,0-85.99,36.804-85.99,90.61c0,53.188,37.43,90.909,85.99,90.909
		c27.533,0,49.188-13.603,60.629-25.046v-49.479h-77.949v-15.765h95.582v72.053c-18.25,20.404-45.781,34.319-78.262,34.319
		c-57.846,0-104.549-43.297-104.549-106.991C2143.227,144.869,2189.93,101.887,2247.775,101.887z"/>
	<path fill="#1A3B4D" d="M2346.129,105.286h130.844v16.083h-113.219v76.371h111.051v16.092h-111.051v81.633h113.219v16.086h-130.844
		V105.286z"/>
	<path fill="#1A3B4D" d="M2558.926,226.2h-45.473v85.351h-17.627V105.286h77.018c35.576,0,62.797,22.575,62.797,60.304
		c0,37.413-26.604,58.131-57.229,59.367l59.699,86.594h-21.344L2558.926,226.2z M2571.297,121.369h-57.844v88.747h57.844
		c27.223,0,45.783-18.559,45.783-44.526C2617.08,139.608,2598.52,121.369,2571.297,121.369z"/>
	<path fill="#1A3B4D" d="M2654.809,105.286h17.627v190.178h99.914v16.086h-117.541V105.286z"/>
	<path fill="#1A3B4D" d="M2939.998,260.83h-109.807l-20.732,50.721h-19.793l84.447-206.264h21.957l84.445,206.264h-19.799
		L2939.998,260.83z M2835.748,244.753h98.678l-49.488-122.152L2835.748,244.753z"/>
	<path fill="#1A3B4D" d="M3003.693,133.424V311.55h-17.627V105.286h17.945l129.295,175.642V105.286h17.629V311.55h-17.32
		L3003.693,133.424z"/>
	<path fill="#1A3B4D" d="M3171.34,105.286h65.887c64.025,0,104.242,46.689,104.242,103.287c0,57.21-40.217,102.978-104.242,102.978
		h-65.887V105.286z M3237.227,295.464c54.438,0,85.68-38.659,85.68-86.892c0-48.244-30.93-87.204-85.68-87.204h-48.258v174.096
		H3237.227z"/>
</g>
</svg>
