<svg xmlns="http://www.w3.org/2000/svg" width="320" height="320">
  <path fill="#FFF" d="M142.7 153c2.8 2.8 5.7 5.5 8.9 8l-.3.4A100.1 100.1 0 0 1 20.6 182a100.3 100.3 0 0 1 108.1-31.4 75.3 75.3 0 0 1-11 9.4c-27-6.3-55.9.5-77.3 18.8a87.4 87.4 0 0 0 100.2-23.5l2-2.2v-.2zm36.7 11.6a87.8 87.8 0 0 1 20.9-17.6 88.4 88.4 0 0 1 79.3-6 88.3 88.3 0 0 1-77.2 19c-4 2.7-7.7 5.8-11.1 9.3 22.5 7.4 46.9 6.4 68.5-2.3 15-6.1 28.7-15.9 39.6-29a100.1 100.1 0 0 0-131 21 112 112 0 0 1 9 8 85 85 0 0 1 2-2.4zm-12.6-22a95.8 95.8 0 0 1-11.3-11A87.4 87.4 0 0 1 141 40.3a88.4 88.4 0 0 1 18.8 77.2c2.8 4 6 7.7 9.4 11.1 7.4-22.5 6.4-46.9-2.3-68.5-6.1-15-15.9-28.7-29-39.6a100.1 100.1 0 0 0 20.6 130.7l.3.3c2.6-3.2 5.3-6.1 8-9zm-5.4 26l-.3-.2c-2.6 3.2-5.3 6.1-8 9a85.4 85.4 0 0 1 20 22.9 88.3 88.3 0 0 1 5.8 79.3 88.3 88.3 0 0 1-18.8-77.2c-2.8-4-6-7.7-9.4-11.1a100.3 100.3 0 0 0 2.3 68.5c6.1 15 15.9 28.7 29 39.6 27.1-42.4 18.2-98.7-20.6-130.7zm-38.8 84.1a100.3 100.3 0 0 1 15.3-60.6c-4.1 14.8-5 30-3.1 45a87.8 87.8 0 0 0 6.3 42.5c1.7-2 3.4-4.2 5-6.4 1.9 3.9 4 7.6 6.5 11.2a99.5 99.5 0 0 1-14.7 15 99.3 99.3 0 0 1-15.3-46.7zM67.3 122.6a99.3 99.3 0 0 0-46.7 15.3 99.5 99.5 0 0 0 15 14.6c3.5-2.4 7.3-4.6 11.1-6.5a87 87 0 0 1-6.3-5 87.8 87.8 0 0 1 42.3-6.2c15.3-2.1 30.5-1 45 3a100.3 100.3 0 0 0-60.4-15.3zM174 46.7c1.6-2.1 3.2-4.2 5-6.3a87.8 87.8 0 0 1 6.2 42.3c2.1 15.3 1 30.5-3 45a99.3 99.3 0 0 0-.1-107.1 99.4 99.4 0 0 0-14.6 15 111 111 0 0 1 6.5 11.1zm78.7 150.7a99.3 99.3 0 0 0 46.7-15.3 99.4 99.4 0 0 0-15-14.6c-3.5 2.4-7.3 4.6-11.1 6.5 2.1 1.6 4.2 3.2 6.3 5a87.8 87.8 0 0 1-42.3 6.2c-15.3 2.1-30.5 1-45-3 18.1 11.4 39.3 16.7 60.4 15.3z"/>
</svg>
