<svg width="56" height="56" xmlns="http://www.w3.org/2000/svg">
  <path d="M22.9104236 35.8415638c.6397867.2593536.9481886.9882509.6888349 1.6280376-.5145099 1.2692188-.8885359 2.6130011-1.1119285 4.0113141-.4865215 3.0459489-.2165746 6.1092837.7366132 8.9190294L23.329 50.697l.049873-.0599602.3032852-.3959559.2923426-.4063636c.3947392-.5663676 1.1738702-.7054999 1.7402378-.3107606.5663676.3947392.7054999 1.1738703.3107606 1.7402378-.5500278.7891741-1.1545261 1.5306541-1.8077457 2.2181743l-.3977323.4059868-1.2427761 1.2302233-.7617714-1.574054c-1.8347411-3.7911391-2.4860183-8.1432802-1.7968442-12.45797.2531945-1.5848563.6780969-3.1114248 1.2637565-4.5561593.2593537-.6397867.9882509-.9481885 1.6280376-.6888348zm7.0277665-5.7645992c3.1438688 2.8709779 5.2724697 6.7209881 6.0202237 11.04043.7211685 4.1638698.0899386 8.3628072-1.7386234 12.0551736l-.208093.4081508-.752985 1.4352759-1.1968471-1.0929595c-3.1438411-2.8709526-5.2724563-6.7209472-6.0204265-11.0407006-.5144162-2.9712463-.3429197-5.967695.4752156-8.8009026.1915262-.6632564.8844644-1.0456692 1.5477208-.854143.6632564.1915262 1.0456693.8844644.8541431 1.5477208-.7136065 2.4712233-.863188 5.084766-.4137298 7.6808172.5318875 3.0718115 1.8607416 5.8659926 3.815303 8.1476443L32.526 50.838l.1472906-.3768409c.9989544-2.6738153 1.3190498-5.5798874.8915239-8.4819708l-.0697446-.4352531c-.6525888-3.7697154-2.5057214-7.1214848-5.2427098-9.6208998-.5097784-.4655291-.5456495-1.256172-.0801204-1.7659504.4655291-.5097784 1.256172-.5456495 1.7659504-.0801204zm21.3261122-.1023908c.789307.5502404 1.5308801 1.1548034 2.2182156 1.8078244l.4058407.3975806 1.2302233 1.2427761-1.574054.7617714c-3.7911391 1.8347411-8.1432802 2.4860183-12.4579454 1.7968481-1.584516-.2531077-3.1110807-.6780558-4.5561119-1.2637312-.6398028-.259314-.94825-.9881921-.688936-1.6279949.2593139-.6398027.9881921-.9482499 1.6279948-.6889359 1.2695981.5145718 2.6134118.8886477 4.0113861 1.1119576 3.0459489.4865215 6.1092837.2165746 8.9190294-.7366132L50.697 32.67l-.059829-.0487013-.3960579-.3033854-.4064976-.2924871c-.5663272-.3947971-.7053799-1.1739423-.3105828-1.7402696.3947971-.5663273 1.1739424-.7053799 1.7402696-.3105828zm-29.3458165-3.4579953c.6632694.1914809 1.0457296.884393.8542487 1.5476624-.1914809.6632695-.884393 1.0457297-1.5476625.8542488-2.4715959-.7135312-5.0851439-.8631573-7.6808454-.4137613-3.071832.5320293-5.86603964 1.8609179-8.14771321 3.815398L5.161 32.526l.37781735.1472096c2.67379455.9989543 5.57987605 1.3191029 8.48194325.8917066l.4352504-.0697246c3.7697405-.6527628 7.1215441-2.5059078 9.6209829-5.2427314.4655467-.5097622 1.2561909-.5456059 1.7659531-.0800591.5097622.4655467.5456059 1.2561909.0800591 1.7659531-2.8709739 3.1436455-6.7209555 5.2722231-11.0404559 6.0201815-4.1639087.7209829-8.36282938.0897029-12.05512492-1.7388197l-.40814267-.2080883-1.43533066-.753011 1.09304191-1.1968539C4.94794248 28.918145 8.7979085 26.7895531 13.117666 26.041388c2.9709374-.514361 5.9673291-.342817 8.8008198.4751905zm31.2540913-4.7362929l.4081403.2080867 1.4353307.753011-1.093042 1.1968539c-2.8709486 3.1436178-6.7209146 5.2722097-11.0406721 6.0203748-2.9709374.514361-5.9673291.342817-8.8008198-.4751905-.6632694-.1914809-1.0457296-.884393-.8542487-1.5476624.1914809-.6632695.884393-1.0457297 1.5476625-.8542488 2.4715959.7135312 5.0851439.8631573 7.6808454.4137613 3.071832-.5320293 5.8660396-1.8609179 8.1477132-3.815398L50.838 23.473l-.3768178-.1462031c-2.6738171-.9989504-5.579988-1.3191115-8.4819587-.8917135l-.4352345.069725c-3.7697405.6527628-7.1215441 2.5059078-9.6209829 5.2427314-.4655467.5097622-1.2561909.5456059-1.7659531.0800591-.5097622-.4655467-.5456059-1.2561909-.0800591-1.7659531 2.8709739-3.1436455 6.7209555-5.2722231 11.0404463-6.0201798 4.1637617-.7209909 8.362856-.0896903 12.0551369 1.7388196zM22.7412876.98400508l1.1968471 1.09295953c3.1438411 2.87095256 5.2724563 6.72094719 6.0204265 11.04070059.5144162 2.9712463.3429197 5.967695-.4752156 8.8009026-.1915262.6632564-.8844644 1.0456692-1.5477208.854143-.6632564-.1915262-1.0456693-.8844644-.8541431-1.5477208.7136065-2.4712233.863188-5.084766.4137298-7.6808172-.5318875-3.0718115-1.8607416-5.86599265-3.815303-8.14764429L23.473 5.161l-.1462906.37784094c-.9989544 2.67381526-1.3190498 5.57988736-.8915239 8.48197076l.0697446.4352531c.6525888 3.7697154 2.5057214 7.1214848 5.2427098 9.6208998.5097784.4655291.5456495 1.256172.0801204 1.7659504-.4655291.5097784-1.256172.5456495-1.7659504.0801204-3.1438688-2.8709779-5.2724697-6.7209881-6.0202237-11.04043-.7211685-4.1638698-.0899386-8.36280725 1.7386234-12.05517363l.208093-.40815076.752985-1.43527593zM14.9132743 20.0186726c1.5846285.2529371 3.1112832.6779023 4.5563778 1.2637816.6397753.2593817.9481453.9882925.6887636 1.6280678-.2593817.6397754-.9882925.9481453-1.6280678.6887636-1.2694973-.5146875-2.6132203-.8887313-4.0113105-1.1118933-3.0457755-.4866128-6.1090635-.2166657-8.91889812.7365593L5.302 23.329l.0610913.0498818c.13023229.1029064.26223588.2040291.39596513.3033245l.40631909.2923612c.56633071.3947922.70539018 1.1739362.31059802 1.7402669s-1.17393619.7053902-1.7402669.3105981c-.78891918-.5499598-1.53044532-1.1545141-2.21797146-1.8076197l-.40598282-.3976412-1.2305536-1.2427961 1.57428161-.7618674c3.79133735-1.8348029 8.14348583-2.4861173 12.45779393-1.7968355zM33.4227549.88141814l.7617714 1.57405401c1.8347411 3.79113904 2.4860183 8.14328015 1.7968442 12.45796995-.2531945 1.5848563-.6780969 3.1114248-1.2637565 4.5561593-.2593537.6397867-.9882509.9481885-1.6280376.6888348-.6397867-.2593536-.9481886-.9882509-.6888349-1.6280376.5145099-1.2692188.8885359-2.6130011 1.1119285-4.0113141.4865215-3.0459489.2165746-6.1092837-.7366132-8.91902937L32.67 5.302l-.048873.06096021-.3032852.39595592-.2923426.40636358c-.3947392.56636759-1.1738702.70549986-1.7402378.31076061-.5663676-.39473924-.7054999-1.17387028-.3107606-1.74023787.5500278-.78917404 1.1545261-1.53065403 1.8077457-2.21817422l.3977323-.40598681L33.4227549.88141814z" fill="#FFF" fill-rule="nonzero"/>
</svg>