<svg width="160" height="27" xmlns="http://www.w3.org/2000/svg" fill="#DCE1E1">
  <path d="M33.84 13.927h.012c3.47 2.053 5.686 5.283 7.451 9.103-3.74-1.694-7.595-4.507-7.463-9.103Zm49.862 2.727c3.049 1.238 6.025 2.617 8.05 5.402-3.25-.114-5.837-2.631-8.05-5.402Zm21.372-8.582c.283-.402.58-.783.888-1.148a82.911 82.911 0 0 0-1.589 2.296c.214-.396.445-.781.701-1.148ZM87.4 9.636c-1.512 1.07-3.066 1.728-4.737 2.03 1.961-3.642 4.833-6.568 8.686-6.938-1.14 1.823-2.252 3.706-3.949 4.908Zm-52.84.539c2.25-3.469 5.86-4.724 9.686-5.657-.484.732-.953 1.486-1.48 2.251-2.101 3.06-5.096 3.363-8.205 3.406Zm100.976 13.938c-3.851-1.371-6.885-4.339-9.837-7.413 4.22.6 7.558 3.463 9.837 7.413Zm8.888-9.557c4.185-1.233 8.025-1.482 12.14.491-3.972 1.806-8.29 1.617-12.14-.491Zm-20.98-1.543c2.301-3.986 5.103-7.702 8.925-9.857-.703 2.051-2.227 4.393-3.202 5.612-1.599 1.999-3.391 3.477-5.724 4.245ZM1.024 14.23c2.188-.083 4.375-.136 6.564-.19.052.07.106.136.178.19 3.079 4.432 7.751 6.963 12.873 6.728.951-.043 1.37-1.226.751-1.995-1.982-2.456-4.498-3.96-7.202-5.047a716.475 716.475 0 0 1 17.547-.013c-.13 6.647 6.051 10.44 11.346 12.324.982.35 1.537-.856 1.199-1.715-1.673-4.243-3.701-7.845-6.663-10.53 6.618.112 13.239.29 19.857.494 0 .078-.01.157.005.232-.118 7.16 8.368 11.54 13.913 11.966.877.067 1.47-1.362.75-1.995-2.16-1.896-3.305-4.804-5.433-6.699-1.59-1.415-3.386-2.43-5.218-3.38 6.12.196 12.24.408 18.36.607 3.651 4.815 7.76 10.289 14.075 8.98.694-.146.942-1.1.635-1.718-1.834-3.658-4.757-5.563-7.979-7.052 4.57.138 9.14.26 13.708.358 2.613 5.147 6.78 8.945 11.869 10.85.824.308 1.448-.624 1.305-1.438-.71-4.03-2.808-7.275-5.723-9.275 4.73.07 9.461.099 14.192.083 4.561 4.668 8.944 9.94 15.412 10.988.936.152 1.625-.732 1.198-1.717-1.772-4.081-4.53-7.456-7.996-9.358 3.325-.056 6.65-.136 9.973-.252.183.07.388.097.63.007l.076-.028c.157-.006.313-.008.469-.013.036-.002.061-.022.097-.026 5.418 3.861 12.097 4.021 17.69.47.688-.436.69-1.583 0-2.018-6.35-4.016-11.897-3.22-18.617-.74-4.522.163-9.044.255-13.565.307 1.472-1.025 2.755-2.349 3.892-3.924 1.512-2.095 3.732-5.707 3.677-8.505-.014-.708-.675-1.397-1.342-1.126-5.696 2.31-9.54 7.386-12.598 12.965-.12.221-.147.431-.139.634a829.72 829.72 0 0 1-12.7-.08c.272-.302.527-.631.751-1.006 2.056-3.447 3.638-7.173 4.869-11.061.274-.865-.566-1.653-1.305-1.438-2.854.834-5.613 2.427-7.646 4.828-1.003 1.183-1.965 2.474-2.622 3.932-.55 1.218-.823 3.563-1.579 4.591a.273.273 0 0 0-.039.017c-4.789-.102-9.577-.23-14.366-.375.82-.373 1.603-.832 2.316-1.414 2.462-2.007 3.78-4.665 5.685-7.23.617-.833.194-1.87-.751-1.994-6.128-.812-10.708 3.866-13.277 9.484-.462.1-.718.493-.766.941-5.085-.165-10.167-.34-15.252-.506.647-.44 1.27-.923 1.837-1.484 2.307-2.273 3.525-5.304 5.541-7.826.614-.77.205-1.956-.749-1.995-6.427-.268-10.57 5.211-13.034 11.102-5.737-.178-11.474-.33-17.211-.444a6.376 6.376 0 0 0 1.296-.737c2.57-1.956 3.542-5.319 5.998-7.327.95-.778.41-2.427-.818-2.137C40.8 2.96 35.047 4.167 32.032 10.286c-.381.167-.583.554-.617.968a1.428 1.428 0 0 0-.098.307 724.36 724.36 0 0 0-16.671.01 12.165 12.165 0 0 0 2.038-1.079c2.188-1.468 3.46-5.203 5.784-6.016 1.317-.463.768-2.526-.564-2.255-4.96 1.008-10.331 2.538-13.25 7.036-.338.215-.517.56-.548.928-.22.42-.417.87-.597 1.337-.056.053-.087.123-.128.186-2.12.053-4.238.106-6.356.184-1.364.051-1.37 2.39 0 2.338Z"/>
</svg>