<svg xmlns="http://www.w3.org/2000/svg" width="320" height="51" fill="none" viewBox="0 0 320 51">
  <path fill="#fff" d="M159.974 0c0 5.687.239 10.093.614 13.51q.116 1.055.412 2.078.29 1.024.75 1.984.462.96 1.072 1.828c.412.584.87 1.12 1.37 1.625.506.5 1.042.959 1.625 1.37q.867.612 1.829 1.074.96.46 1.984.755a13 13 0 0 0 2.078.406c3.417.375 7.823.614 13.511.614-5.688 0-10.094.24-13.511.615q-1.055.117-2.078.407a13 13 0 0 0-1.984.755 13 13 0 0 0-1.829 1.073c-.583.411-1.119.869-1.625 1.369-.5.505-.958 1.042-1.37 1.625a13 13 0 0 0-1.072 1.828q-.46.96-.75 1.984a12.3 12.3 0 0 0-.412 2.078c-.375 3.417-.614 7.824-.614 13.511 0-5.687-.24-10.094-.615-13.51a13 13 0 0 0-.406-2.079 12.8 12.8 0 0 0-1.828-3.812c-.411-.583-.87-1.12-1.37-1.625-.505-.5-1.042-.958-1.625-1.37a13 13 0 0 0-1.828-1.073 12.3 12.3 0 0 0-1.985-.75 12.3 12.3 0 0 0-2.078-.41c-3.416-.376-7.823-.616-13.51-.616 5.687 0 10.094-.24 13.51-.614a13 13 0 0 0 2.078-.406 13 13 0 0 0 1.985-.755 13 13 0 0 0 1.828-1.074 13 13 0 0 0 1.625-1.37c.5-.505.959-1.041 1.37-1.625a12.8 12.8 0 0 0 1.828-3.812 13 13 0 0 0 .406-2.078c.375-3.417.615-7.823.615-13.51m-45.115 25.75H0v-1h114.859zm205.099 0H205.099v-1h114.859z"/>
</svg>