<svg width="382" height="270" xmlns="http://www.w3.org/2000/svg"><g fill="#DCE1E1" fill-rule="nonzero"><path d="M56.676 74.763c11.243 1.705 21.249-20.695 21.249-20.695 3.372-6.708 5.396-14.213 5.396-14.213.225-.682 0-1.023-.45-1.137-.337-.113-.899.114-1.236 1.024-.338 1.364-2.586 7.732-5.172 13.19 0 0-9.331 19.557-18.326 18.306-8.094-1.137-8.881-20.467-8.32-28.995.338-6.822 4.61-30.814 12.705-30.7 0 0 6.746-.568 5.734 15.123-.225 2.16-1.687 2.729-1.799 3.752-.112.91 1.012 1.137 1.012 1.137 3.035.227 2.81-4.662 2.81-4.662.675-16.26-6.408-17.17-6.408-17.17-6.746-1.364-22.26 3.753-22.823 32.634-.562 29.108 15.628 32.406 15.628 32.406Zm1.349-62.651s-2.249 1.25-3.148 3.524c0 0 .112-4.32 3.148-3.524Z"/><path d="M108.505 38.605c-.45-.114-1.012.113-1.35 1.023-.786 2.502-9.33 20.126-17.875 17.056-1.35-.569-2.024-2.047-2.249-4.549 12.93-.34 11.243-13.19 11.243-13.19-.787-7.276-7.645-6.48-7.645-6.48-10.343.454-10.793 12.735-9.669 18.306 1.124 5.799 4.16 8.073 7.645 8.755 12.367 1.82 20.237-19.67 20.237-19.67.225-.797 0-1.138-.337-1.251Zm-19.562-3.98s-1.574 1.364-2.137 4.207c-.45-2.16.225-3.752 2.137-4.207Zm-1.8 10.575c.45-6.823 2.811-11.03 5.397-11.03 2.136 0 2.923 3.184 2.81 6.936 0 0 .226 8.528-8.319 9.551-.112-1.478 0-3.297.113-5.457Zm7.309-21.604c-.225 0-.45.113-.45.113-.787.342-2.024 1.251-3.26 1.933-.563.455-1.237.796-1.687 1.024-.45.34-.787.568-1.012.796-.225.227-.337.454-.337.568-.113.228-.113.455-.113.682 0 .342.113.569.113.569.112.341.337.455.562.682.112 0 .337.114.45.114.112 0 .337.114.562.114.674 0 1.686-.228 2.473-.683.9-.34 1.8-.91 2.474-1.364.787-.682 1.236-1.592 1.236-1.592.9-1.706.113-2.501.113-2.501-.337-.455-.787-.569-1.124-.455Zm-2.137 2.16s2.249-2.388 2.811-.796c0 0-1.686.455-2.81.796Z"/><path d="M131.553 38.718c-.45 0-.9.228-1.125 1.137-1.349 3.98-8.657 18.989-11.917 18.875 0 0-5.734-3.41-5.06-22.968 3.261-2.956 9.22-9.437 11.806-18.761 4.047-14.668-2.586-15.805-2.586-15.805-6.071-1.137-16.077 8.642-16.077 33.656 0 25.015 9.106 27.517 9.106 27.517 7.308 1.82 16.415-22.514 16.415-22.514.112-.796-.113-1.137-.562-1.137ZM119.86 3.925c-1.124 1.705-1.911 3.184-2.586 5.23-.112-2.956 1.462-4.775 2.586-5.23Zm3.036-1.023c1.799-.114 3.373 5.798.787 14.213-1.687 5.003-4.048 10.12-10.006 15.804 1.236-19.33 7.195-30.017 9.219-30.017Z"/><path d="M156.849 38.605c-.45-.114-1.012.113-1.35 1.023-.786 2.502-9.33 20.126-17.875 17.056-1.35-.569-2.024-2.047-2.249-4.549 12.93-.34 11.243-13.19 11.243-13.19-.787-7.276-7.645-6.48-7.645-6.48-10.343.454-10.793 12.735-9.669 18.306 1.124 5.799 4.16 8.073 7.645 8.755 12.367 1.82 20.237-19.67 20.237-19.67.225-.797 0-1.138-.337-1.251Zm-19.562-3.98s-1.574 1.364-2.137 4.207c-.45-2.16.225-3.752 2.137-4.207Zm-1.8 10.575c.45-6.823 2.811-11.03 5.397-11.03 2.136 0 2.923 3.184 2.81 6.936 0 0 .226 8.528-8.319 9.551-.112-1.478 0-3.297.113-5.457Zm7.308-21.604c-.224 0-.45.113-.45.113-.786.342-2.023 1.251-3.26 1.933-.562.455-1.236.796-1.686 1.024-.45.34-.787.568-1.012.796-.225.227-.337.454-.337.568-.113.228-.113.455-.113.682 0 .342.113.569.113.569.112.341.337.455.562.682.112 0 .337.114.45.114.112 0 .337.114.562.114.674 0 1.686-.228 2.473-.683.9-.34 1.799-.91 2.474-1.364.787-.682 1.236-1.592 1.236-1.592.9-1.706.113-2.501.113-2.501-.338-.455-.787-.569-1.125-.455Zm-2.136 2.16s2.249-2.388 2.811-.796c0 0-1.686.455-2.81.796Z"/><path d="M191.926 39.06c-1.124 2.16-3.71 6.708-10.905 10.574 3.71-11.939-2.024-13.872-2.024-13.872-6.07-2.047-12.704 5.685-16.302 18.306-.562-4.32-1.237-10.233-.9-18.192 4.61-3.98 10.794-10.916 14.054-16.26 2.024-3.297 8.095-16.032-1.124-19.216-9.781-3.297-16.414 14.668-17.876 21.604-1.462 7.05-2.361 11.825-2.249 27.403 0 6.026.9 9.55 2.024 11.711-1.237 3.07 1.124 5.685 1.124 5.685 2.586 3.639 13.492 4.89 20.687-10.46.675-1.592 1.35-2.957 1.799-4.321 8.882-4.207 12.142-10.006 12.817-11.484.112-.228.225-.455.225-.796v-.569c-.225-.682-1.125-.796-1.35-.114Zm-29.905-7.391s1.011-9.551 3.148-18.193c2.248-8.528 7.307-13.19 10.455-11.143 3.036 2.16 3.71 7.732-.787 15.691-3.935 6.709-8.994 12.167-12.929 15.01 0-.456.113-.91.113-1.365ZM159.66 66.12c-1.012-.682-1.237-1.705-1.35-2.615 1.237 1.023 2.25.91 2.25.91s2.922.568 2.922-3.639c.113-1.023.337-2.047.562-3.07 1.912-.796 4.385-1.592 6.97-2.274.9-.228 1.687-.455 2.474-.682-5.509 11.029-10.905 13.644-13.828 11.37Zm14.84-13.644c-1.686.682-3.598 1.25-5.734 1.705-1.574.341-2.923.796-4.16 1.25 3.036-11.597 9.444-19.556 11.468-17.737 0 0 3.823 3.07-1.574 14.782Zm3.373-15.35s2.81-.455 3.148 3.752c0 0-1.462-2.615-3.148-3.752Z"/><path d="M216.098 38.718c-.45 0-.899.228-1.124 1.137-.45 2.616-6.183 21.49-8.657 21.377-3.035 0 .225-15.35.225-15.35 1.462-8.3-7.195-7.505-15.065-10.006-.562-7.618-6.184-9.438-7.758-6.14-1.461 3.183 2.249 5.912 5.959 7.163.562 15.01-1.574 23.764-1.574 23.764-.337 1.933-.9 3.525-.113 3.639 3.373.34 3.71-18.08 3.486-26.948 4.61 1.137 7.645 2.16 7.645 2.16 2.923.796 1.124 5.686 1.124 5.686-1.461 5.116-1.911 9.21-1.911 11.825-.113 7.163 5.171 7.845 5.171 7.845 6.971 2.16 13.155-25.015 13.155-25.015.112-.796-.113-1.137-.563-1.137Zm-30.355-8.186c.45-.796 1.911-.796 2.81.682.563 1.023.9 2.843 1.012 3.98-4.047-1.706-4.272-3.98-3.822-4.662Zm17.876 11.143s2.81.227 1.686 4.207c0 0-.112-2.73-1.686-4.207Z"/><path d="M249.49 38.718c-.45 0-.9.228-1.125 1.137-.45 2.616-6.296 22.173-8.657 21.377-2.36-.796-.674-18.42 0-24.447.45-5.457-2.586-5.571-2.586-5.571-1.236-.114-2.248.796-3.035 2.388-.225.455-1.462 2.615-2.81 5.344-2.474-6.254-7.87-5.685-7.87-5.685-10.906.454-11.806 17.965-10.12 23.65 1.8 5.799 5.96 7.05 8.32 6.709 2.699-.455 5.959-12.167 5.959-12.167 1.799-4.775 3.598-8.528 4.947-11.03-.675 5.572-.675 12.508-.675 16.147-.112 7.05 5.06 8.3 5.06 8.3 6.97 2.16 13.154-25.015 13.154-25.015.112-.796-.113-1.137-.563-1.137ZM226.666 49.18c-2.474 6.936-3.373 11.143-4.498 11.598-1.011.455-2.698-4.093-2.248-11.37.337-7.164 2.81-14.213 5.284-14.44 1.911-.228 4.385 2.16 4.834 6.48-1.236 2.502-2.36 5.23-3.372 7.732Zm10.118-15.918s2.361-1.365 1.574 3.98c0 0-.45-3.753-1.574-3.98Z"/><path d="M270.064 39.855c.225-.796-.113-1.137-.45-1.137-.45 0-.9.228-1.124 1.137-1.462 3.98-8.657 19.785-12.03 20.012-4.16.114-2.361-24.9-2.361-24.9s.45-6.14 1.012-13.304c11.355-1.251 13.828-.796 15.065 2.16.113.341.45.569.787.569.113 0 .225-.114.337-.114.338-.227.563-.682.45-1.137-1.012-2.388-2.698-3.525-5.959-3.752-2.36-.228-5.846 0-10.568.568.113-1.023.225-2.956.338-4.89.337-3.979-.113-6.367-2.586-6.48-3.26-.114-4.61 11.598-4.61 11.598 0 .227 0 .454-.112.682-4.722.568-12.255 1.023-14.616-1.706-.9-1.023-.674-2.046-.674-2.16 0 0 .337-1.137-.563-1.365-.674-.227-1.011.91-1.011.91 0 .114-.563 1.933.899 3.639 2.249 2.615 7.533 3.41 15.852 2.387-1.012 8.87-1.236 18.42-1.236 18.42-.9 21.15 9.219 21.15 9.219 21.15 5.396.795 13.94-22.287 13.94-22.287Zm-16.977-28.994s2.361-.796 1.462 3.752c0 0-.113-2.842-1.462-3.752Z"/><path d="M267.028 40.538c-1.349 7.39-.787 12.28-.787 12.28 0 6.708 5.172 7.845 5.172 7.845 7.083 1.706 13.041-21.035 13.041-21.035.225-.682-.112-1.023-.45-1.023-.449 0-.899.227-1.123 1.023-.45 2.16-6.409 18.647-8.77 17.965-2.36-.682-1.461-10.915-.787-16.26.787-3.98.562-6.708-1.574-7.163 0 0-3.373-1.137-4.722 6.368Zm5.172-.341s-.113-3.525-1.35-3.753c0 0 2.587-1.478 1.35 3.753Zm2.36-9.21c.563-1.82-3.26-3.866-4.609-1.933-1.236 2.046 1.462 3.183 1.462 3.183 1.237.455 2.586.455 3.148-1.25Zm-1.348.568c.225-1.137-1.012-2.16-1.012-2.16 2.36.227 1.012 2.16 1.012 2.16Z"/><path d="M311.55 38.491c-.787-.227-1.237.682-1.237.682-3.036 7.164-6.97 9.438-8.882 10.12 2.249-11.257-.674-16.374-5.284-16.6-3.148-.115-6.296.34-8.095 3.41-2.698.228-7.982 2.047-8.882 11.94 0 0-1.798 12.165 10.681 12.848 0 0 8.207 1.023 11.13-9.665 6.184-1.706 9.782-8.87 11.018-11.484 0 0 .338-.91-.45-1.251Zm-20.013-2.16s-1.349 1.137-1.461 4.207c-.787-2.16-.337-3.866 1.461-4.207Zm-1.236 22.286c-4.835-.683-4.835-7.505-4.835-7.505-.112-2.729.338-4.775 1.012-6.254.675 3.07 3.148 7.619 12.592 6.709-1.574 3.98-4.61 7.618-8.77 7.05Zm9.444-9.438c0 .228-.113.341-.113.455-9.219.341-8.544-7.05-8.544-7.05.225-9.665 6.97-7.277 6.97-7.277 4.16 1.933 1.687 13.872 1.687 13.872Z"/><path d="M340.893 39.855c.225-.796-.112-1.137-.45-1.137-.45 0-.899.228-1.124 1.137-.45 2.616-6.408 22.173-8.77 21.377-2.36-.796-1.236-9.892.788-17.852 0 0 2.136-6.14-2.249-7.618-5.733-1.933-11.917 4.89-15.627 16.373.225-7.05 1.012-14.895.787-16.714-.225-3.07-3.036-2.615-3.036-2.615s-1.686.113-2.36 3.525c-.563 3.183-4.273 22.286 0 27.289 0 0 1.798 2.387 4.16 1.25.899-.454.899-2.16.786-3.297 1.911-14.44 10.119-26.038 12.48-23.878.337.341-.675 3.184-.675 3.184-1.237 3.752-2.923 9.778-3.035 16.146-.113 7.163 5.284 7.845 5.284 7.845 6.97 2.16 13.041-25.015 13.041-25.015Zm-10.456 1.82s0-2.616-1.236-3.525c1.012 0 1.911.455 1.236 3.525ZM47.042 126.733c.31-.463.62-.927.774-1.39v-.927c0-.617-.774-.772-1.083-.308-2.632 3.243-6.347 6.178-10.372 8.803.929-15.754-8.514-16.372-8.514-16.372-7.74-.617-13.313 6.95-16.564 13.283v-1.39c.465-7.722-.464-12.974-3.87-13.128-4.489-.31-6.192 12.047-6.192 12.047-2.631 16.68-.464 37.068 1.393 47.108 1.858 10.193 5.573 10.502 5.573 10.502 4.799-.154 3.406-10.966 2.787-21.932 0-.618 0-1.235-.155-1.853 18.421 6.178 24.458-21.16 24.458-21.16.31-1.39.62-2.78.774-4.016 5.883-3.707 9.753-7.877 10.991-9.267ZM9.58 123.8s-.774-3.862-2.631-5.56c0 0 3.096-.618 2.631 5.56Zm3.096 33.979c-.928 0-1.548-.309-2.012-.772V151.6c2.322-3.553 9.443-7.568 14.396-10.04-3.096 8.65-9.597 15.909-12.384 16.218Zm13.158-18.998c-6.192 3.09-11.92 6.024-15.17 9.113 0-3.398 0-6.796.155-10.194 4.025-12.51 11.92-19.924 15.015-18.07 1.858 1.235 2.322 10.502 0 19.151Zm3.716-19.46s4.024.154 4.334 6.332c0 0-1.393-3.552-4.334-6.332Z"/><path d="M82.027 123.953c-.62 0-1.238.309-1.548 1.545-.62 3.552-8.514 29.19-11.92 29.036-4.18 0 .31-20.85.31-20.85 2.012-11.275-9.907-10.194-20.743-13.592-.774-10.348-8.514-12.82-10.682-8.34-2.012 4.324 3.097 8.03 8.205 9.73.774 20.387-2.167 32.28-2.167 32.28-.465 2.626-1.239 4.788-.155 4.943 4.644.463 5.108-24.558 4.799-36.605 6.347 1.544 10.526 2.934 10.526 2.934 4.025 1.081 1.548 7.723 1.548 7.723-2.012 6.95-2.631 12.51-2.631 16.063-.155 9.73 7.12 10.657 7.12 10.657 9.598 2.934 18.112-33.98 18.112-33.98.155-1.08-.155-1.544-.774-1.544Zm-41.796-11.12c.62-1.082 2.632-1.082 3.87.926.774 1.39 1.238 3.862 1.393 5.406-5.573-2.317-5.882-5.406-5.263-6.332Zm24.613 15.136s3.87.309 2.322 5.714c0 0-.155-3.706-2.322-5.714Z"/><path d="M119.953 123.644c-1.083-.309-1.703.927-1.703.927-4.18 9.73-9.597 12.82-12.229 13.746 3.096-15.29-.929-22.24-7.276-22.55-4.334-.154-8.668.464-11.145 4.634-3.715.309-10.991 2.78-12.23 16.217 0 0-2.476 16.526 14.707 17.453 0 0 11.3 1.39 15.325-13.128 8.514-2.317 13.468-12.047 15.17-15.6 0 0 .465-1.235-.619-1.699ZM92.4 120.71s-1.858 1.544-2.013 5.714c-1.083-2.934-.464-5.251 2.013-5.714Zm-1.703 30.272c-6.657-.927-6.657-10.194-6.657-10.194-.154-3.707.465-6.487 1.394-8.495.928 4.17 4.334 10.349 17.337 9.113-2.167 5.406-6.347 10.348-12.074 9.576Zm13.003-12.82c0 .31-.155.464-.155.618-12.693.464-11.765-9.576-11.765-9.576.31-13.128 9.598-9.884 9.598-9.884 5.728 2.625 2.322 18.843 2.322 18.843Z"/><path d="M146.27 125.498c.309-1.082-.156-1.545-.62-1.545-.62 0-1.238.309-1.548 1.545-2.012 5.405-11.92 26.874-16.564 27.183-5.727.154-3.25-33.825-3.25-33.825s.619-8.34 1.393-18.07c15.635-1.7 19.04-1.082 20.743 2.934.155.463.62.772 1.084.772.154 0 .31-.154.464-.154.464-.31.774-.927.62-1.545-1.394-3.243-3.716-4.788-8.205-5.097-3.251-.309-8.05 0-14.551.773.154-1.39.31-4.016.464-6.642.464-5.406-.155-8.649-3.56-8.803-4.49-.155-6.347 15.754-6.347 15.754 0 .308 0 .617-.155.926-6.502.772-16.873 1.39-20.124-2.317-1.239-1.39-.929-2.78-.929-2.934 0 0 .464-1.545-.774-1.854-.929-.308-1.393 1.236-1.393 1.236 0 .155-.774 2.626 1.238 4.943 3.096 3.552 10.372 4.633 21.827 3.243-1.393 12.047-1.703 25.021-1.703 25.021-1.238 28.728 12.694 28.728 12.694 28.728 7.43 1.081 19.195-30.272 19.195-30.272Zm-23.376-39.385s3.251-1.082 2.013 5.096c0 0-.155-3.86-2.013-5.096Z"/><path d="M180.944 123.799c-.619-.155-1.393.154-1.857 1.39-1.084 3.398-12.849 27.338-24.613 23.167-1.858-.772-2.787-2.78-3.096-6.178 17.802-.463 15.48-17.916 15.48-17.916-1.084-9.885-10.527-8.804-10.527-8.804-14.241.618-14.86 17.299-13.313 24.867 1.548 7.877 5.728 10.966 10.527 11.893 17.028 2.47 27.864-26.72 27.864-26.72.31-1.082 0-1.545-.465-1.7Zm-26.935-5.406s-2.167 1.853-2.941 5.715c-.62-2.935.31-5.097 2.941-5.715Zm-2.477 14.364c.62-9.267 3.87-14.982 7.43-14.982 2.942 0 4.026 4.325 3.87 9.422 0 0 .31 11.583-11.454 12.973-.155-2.007 0-4.479.154-7.413Z"/><path d="M204.165 124.262c-.155-.618-1.084-.618-1.394 0-2.322 5.251-7.12 9.113-11.61 12.202-4.18-7.105-4.953-12.974-4.18-16.372.775-3.553-.928-4.325-.928-4.325-3.56-2.008-8.979 4.788-7.74 12.665.774 4.943 3.56 9.113 5.882 12.665-4.18 3.398-7.585 8.34-4.18 12.82 1.703 2.007 4.18 2.47 6.038 2.007 2.786-.463 4.644-2.162 4.644-2.162 3.25-3.089 5.108-8.65 1.703-15.445a42.011 42.011 0 0 0 11.3-10.503c.62-.772.774-1.853.62-2.78 0-.309 0-.463-.155-.772Zm-18.731-3.089s.31-2.935-.93-3.707c0 0 2.787-.618.93 3.707Zm-3.56 31.508c-2.013-2.162-.156-5.406-.156-5.406.93-1.699 2.322-3.089 3.56-4.324.775 1.39 1.394 2.78 1.549 3.86 1.083 4.634-2.941 8.032-4.954 5.87Z"/><path d="M231.719 125.498c.31-1.082-.155-1.545-.62-1.545-.618 0-1.238.309-1.547 1.545-2.013 5.405-11.92 26.874-16.564 27.183-5.727.154-3.25-33.825-3.25-33.825s.619-8.34 1.393-18.07c15.634-1.7 19.04-1.082 20.743 2.934.155.463.619.772 1.083.772.155 0 .31-.154.465-.154.464-.31.774-.927.619-1.545-1.393-3.243-3.715-4.788-8.204-5.097-3.251-.309-8.05 0-14.552.773.155-1.39.31-4.016.465-6.642.464-5.406-.155-8.649-3.56-8.803-4.49-.155-6.347 15.754-6.347 15.754 0 .308 0 .617-.155.926-6.502.772-16.874 1.39-20.124-2.317-1.239-1.39-.93-2.78-.93-2.934 0 0 .465-1.545-.773-1.854-.929-.308-1.393 1.236-1.393 1.236 0 .155-.774 2.626 1.238 4.943 3.096 3.552 10.372 4.633 21.827 3.243-1.393 12.047-1.703 25.021-1.703 25.021-1.238 28.728 12.694 28.728 12.694 28.728 7.43 1.081 19.195-30.272 19.195-30.272Zm-23.375-39.385s3.25-1.082 2.013 5.096c0 0-.155-3.86-2.013-5.096Z"/><path d="M276.92 123.953c-.618 0-1.238.309-1.547 1.545-.62 3.552-8.67 30.118-11.92 29.036-3.25-1.08-.929-25.02 0-33.207.62-7.413-3.56-7.568-3.56-7.568-1.703-.154-3.096 1.081-4.18 3.244-.31.618-2.012 3.552-3.87 7.259-3.406-8.495-10.836-7.723-10.836-7.723-15.016.618-16.254 24.404-13.932 32.126 2.477 7.877 8.204 9.576 11.455 9.113 3.715-.618 8.205-16.526 8.205-16.526 2.476-6.487 4.953-11.584 6.81-14.982-.928 7.568-.928 16.99-.928 21.932-.155 9.576 6.966 11.275 6.966 11.275 9.598 2.934 18.112-33.98 18.112-33.98.155-1.08-.155-1.544-.774-1.544Zm-31.424 14.21c-3.405 9.421-4.644 15.136-6.192 15.754-1.393.617-3.715-5.56-3.096-15.446.465-9.73 3.87-19.306 7.276-19.615 2.631-.309 6.037 2.935 6.656 8.804-1.703 3.398-3.25 7.105-4.644 10.503Zm13.932-21.624s3.251-1.853 2.167 5.406c0 0-.619-5.097-2.167-5.406Z"/><path d="M319.336 125.498c.31-1.082-.155-1.545-.62-1.545-.618 0-1.238.309-1.547 1.545-.62 3.552-8.824 30.118-12.075 29.036-3.25-1.08-1.702-13.437 1.084-24.248 0 0 2.941-8.34-3.096-10.349-7.895-2.625-16.409 6.642-21.517 22.241.31-9.576 1.393-20.233 1.083-22.704-.31-4.17-4.18-3.552-4.18-3.552s-2.321.154-3.25 4.788c-.774 4.324-5.883 30.272 0 37.068 0 0 2.477 3.243 5.728 1.699 1.238-.618 1.238-2.935 1.083-4.48 2.632-19.615 13.932-35.369 17.183-32.434.464.463-.929 4.325-.929 4.325-1.703 5.097-4.025 13.282-4.18 21.932-.154 9.73 7.276 10.657 7.276 10.657 9.598 2.934 17.957-33.98 17.957-33.98Zm-14.396 2.47s0-3.552-1.703-4.787c1.393 0 2.631.618 1.703 4.788Z"/><path d="M346.736 125.498c.31-1.082-.155-1.545-.62-1.545-.619 0-1.238.309-1.548 1.545-2.012 5.405-11.92 26.874-16.563 27.183-5.728.154-3.251-33.825-3.251-33.825s.62-8.34 1.393-18.07c15.635-1.7 19.04-1.082 20.743 2.934.155.463.62.772 1.084.772.155 0 .31-.154.464-.154.465-.31.774-.927.62-1.545-1.394-3.243-3.716-4.788-8.205-5.097-3.25-.309-8.05 0-14.551.773.155-1.39.31-4.016.464-6.642.465-5.406-.154-8.649-3.56-8.803-4.49-.155-6.347 15.754-6.347 15.754 0 .308 0 .617-.155.926-6.501.772-16.873 1.39-20.124-2.317-1.238-1.39-.928-2.78-.928-2.934 0 0 .464-1.545-.774-1.854-.93-.308-1.394 1.236-1.394 1.236 0 .155-.774 2.626 1.239 4.943 3.096 3.552 10.371 4.633 21.827 3.243-1.394 12.047-1.703 25.021-1.703 25.021-1.239 28.728 12.693 28.728 12.693 28.728 7.43 1.081 19.196-30.272 19.196-30.272ZM323.36 86.113s3.25-1.082 2.012 5.096c0 0-.155-3.86-2.012-5.096Z"/><path d="M381.411 123.799c-.62-.155-1.393.154-1.858 1.39-1.083 3.398-12.848 27.338-24.613 23.167-1.857-.772-2.786-2.78-3.096-6.178 17.802-.463 15.48-17.916 15.48-17.916-1.083-9.885-10.526-8.804-10.526-8.804-14.242.618-14.861 17.299-13.313 24.867 1.548 7.877 5.727 10.966 10.526 11.893 17.028 2.47 27.864-26.72 27.864-26.72.31-1.082 0-1.545-.464-1.7Zm-26.935-5.406s-2.167 1.853-2.942 5.715c-.619-2.935.31-5.097 2.942-5.715Zm-2.477 14.364c.62-9.267 3.87-14.982 7.43-14.982 2.942 0 4.025 4.325 3.87 9.422 0 0 .31 11.583-11.455 12.973-.155-2.007 0-4.479.155-7.413ZM67.664 208.81c.647 19.086 10.613 19.086 10.613 19.086 6.213.909 16.179-25.448 16.179-25.448.13-.91-.13-1.299-.647-1.299-.518 0-1.036.26-1.294 1.299-1.554 4.544-9.966 22.591-13.85 22.851-4.141.13-2.976-22.072-2.717-27.266 15.402-11.036 16.567-25.838 12.684-28.564-4.013-2.597-11.778 2.207-16.567 12.334-2.718 5.713-3.754 11.816-4.142 16.23-1.941-2.727-4.918-3.506-4.918-3.506-7.636-1.947-15.79 3.376-17.085 14.153-1.423 10.776 3.236 16.36 9.449 16.879 4.659.519 9.707-10.258 12.295-16.75Zm20.32-37.653c2.33 2.726-1.035 10.776-1.035 10.776-3.106 7.53-8.154 11.945-10.872 14.023 1.942-17.528 9.578-27.396 11.908-24.8Zm-30.803 25.318c-1.165 1.169-2.589 2.986-3.236 5.064-.259-3.895 2.07-4.804 3.236-5.064Zm-3.624 15.191c.388-9.608 3.365-15.58 8.024-15.32 4.012.259 5.695 5.323 5.954 6.491-2.46 8.05-8.542 19.346-11.26 19.476-2.977 0-2.718-10.647-2.718-10.647Z"/><path d="M122.93 201.02c-.517-.13-1.165.13-1.553 1.168-.906 2.856-10.742 22.981-20.579 19.476-1.553-.65-2.33-2.338-2.589-5.194 14.885-.39 12.943-15.061 12.943-15.061-.906-8.31-8.8-7.4-8.8-7.4-11.908.518-12.426 14.54-11.132 20.903 1.295 6.622 4.79 9.218 8.801 9.997 14.238 2.078 23.298-22.461 23.298-22.461.258-.91 0-1.299-.389-1.429Zm-22.52-4.545s-1.812 1.558-2.46 4.804c-.517-2.467.26-4.285 2.46-4.804Zm-2.071 12.075c.518-7.79 3.236-12.594 6.212-12.594 2.46 0 3.366 3.635 3.236 7.92 0 0 .259 9.738-9.578 10.906-.129-1.688 0-3.765.13-6.232ZM148.378 254.834c2.003-.546 2.731-2.549 2.731-4.551.728-4.37 3.824-21.3 8.375-37.866 2.913-11.105 6.009-19.843 9.286-26.032 3.277-6.554 6.555-10.195 9.65-10.377 5.098-.182 4.552 9.649 1.092 22.392-3.641 12.56-6.736 40.232-6.736 40.232s-4.006 30.22 10.196 30.402c13.109.181 24.58-32.769 24.58-32.769 4.369-11.105 6.008-23.484 6.008-23.484.182-1.274-.183-1.638-.729-1.82-.728 0-1.638.546-1.82 1.82-.547 2.549-2.732 12.925-6.009 22.21 0 0-11.288 28.945-17.843 27.67-3.823-.91-.728-22.573-.728-22.573s2.549-25.304 4.188-36.227c2.549-16.02.728-32.222-12.381-31.13-7.647.365-14.93 13.108-22.031 38.958-2.731 10.377-5.098 20.753-6.555 28.399-3.277-23.302.365-47.514 1.64-70.815.181-2.367-.911-4.552-3.096-4.916-2.185-.182-3.824 1.639-3.824 1.639-2.913 3.095-3.641 8.738-4.551 12.743a155.977 155.977 0 0 0-2.731 22.573c-.91 12.926-1.093 26.579.364 39.322.728 5.826 3.823 15.838 10.924 14.2Zm0-87.2c-2.549 2.73-4.552 7.828-4.552 7.828-.182-7.464 4.552-7.828 4.552-7.828Z"/><path d="M257.62 210.597c-1.274-.364-2.002 1.092-2.002 1.092-4.916 11.469-11.288 15.11-14.384 16.202 3.642-18.022-1.092-26.214-8.557-26.579-5.098-.182-10.196.547-13.11 5.462-4.369.364-12.926 3.277-14.383 19.115 0 0-2.913 19.478 17.297 20.57 0 0 13.291 1.639 18.025-15.473 10.014-2.73 15.84-14.2 17.843-18.387 0 0 .546-1.456-.728-2.002Zm-32.408-3.46s-2.185 1.821-2.367 6.737c-1.274-3.46-.546-6.19 2.367-6.736Zm-2.003 35.682c-7.829-1.093-7.829-12.015-7.829-12.015-.182-4.37.546-7.646 1.639-10.013 1.092 4.915 5.098 12.197 20.392 10.74-2.55 6.372-7.465 12.198-14.202 11.288Zm15.294-15.11c0 .364-.182.546-.182.728-14.93.546-13.837-11.287-13.837-11.287.364-15.473 11.288-11.65 11.288-11.65 6.737 3.094 2.731 22.209 2.731 22.209Z"/><path d="M297.13 210.779c-.728-.182-1.638.182-2.185 1.638-1.274 4.005-15.111 32.222-28.949 27.307-2.185-.91-3.277-3.277-3.641-7.282 20.938-.546 18.207-21.117 18.207-21.117-1.275-11.65-12.381-10.377-12.381-10.377-16.75.729-17.479 20.39-15.658 29.31 1.82 9.284 6.736 12.925 12.38 14.017 20.029 2.913 32.774-31.494 32.774-31.494.364-1.274 0-1.82-.547-2.002Zm-31.68-6.372s-2.55 2.185-3.46 6.736c-.728-3.459.365-6.008 3.46-6.736Zm-2.913 16.93c.728-10.922 4.552-17.658 8.74-17.658 3.459 0 4.733 5.097 4.55 11.105 0 0 .365 13.653-13.472 15.292-.182-2.367 0-5.28.182-8.739Zm1.456-33.132c-2.185.182-3.641 2.003-3.46 4.005 0 2.185 1.822 3.823 3.824 3.641 2.185-.182 3.642-2.002 3.46-4.005 0-2.184-1.82-3.64-3.824-3.64Zm11.47.728c-2.184.182-3.64 2.003-3.459 4.005 0 2.185 1.821 3.641 3.824 3.641 2.185-.182 3.641-2.002 3.46-4.005 0-2.184-1.821-3.823-3.824-3.64Zm2.55 4.552s-1.457-2.55-3.095-2.731c0 0 3.277-1.274 3.095 2.73Z"/><path d="M334.455 231.98c-.728 0-1.457.363-1.82 1.82-2.186 6.371-14.02 30.401-19.3 30.22 0 0-9.286-5.462-8.194-36.774 5.28-4.733 14.93-15.11 19.118-30.037 6.555-23.484-4.188-25.305-4.188-25.305-9.832-1.82-26.036 13.836-26.036 53.886 0 40.05 14.748 44.054 14.748 44.054 11.835 2.913 26.582-36.044 26.582-36.044.182-1.275-.182-1.82-.91-1.82Zm-18.935-55.707c-1.821 2.731-3.096 5.098-4.188 8.375-.182-4.734 2.367-7.646 4.188-8.375Zm4.915-1.638c2.914-.182 5.463 9.284 1.275 22.756-2.731 8.01-6.555 16.202-16.204 25.304 2.002-30.948 11.652-48.06 14.93-48.06Z"/></g></svg>