<svg xmlns="http://www.w3.org/2000/svg" width="658" height="438" fill="none" viewBox="0 0 658 438">
  <path fill="#fff" d="M295.595 179.496c0 13.653.276 25.857.763 36.769a90 90 0 0 1 13.005 1.069q17.352 2.69 32.375 11.854c10.026 6.115 18.464 13.897 25.313 23.355 6.843 9.614 11.651 20.083 14.417 31.416q2.855 11.646 2.373 23.464c11.873.602 25.344.948 40.629.948-15.328 0-28.833.347-40.731.953a86 86 0 0 1-1.043 8.969q-2.688 17.358-11.853 32.395c-6.115 10.016-13.896 18.449-23.355 25.292q-22.776 16.559-50.743 16.868c-.728 12.771-1.15 27.472-1.15 44.398 0-16.926-.423-31.628-1.152-44.399a98 98 0 0 1-12.705-.971c-11.573-1.792-22.369-5.74-32.395-11.855q-15.026-9.165-25.292-23.603-10.252-14.163-14.417-31.147a85 85 0 0 1-2.334-15.955c-10.146-.514-21.458-.839-34.071-.921v81.273q-.001.727-.979.728h-3.666q-.251 0-.48-.25L45.875 221.251v155.958c0 3.25 1.136 6.021 3.417 8.312 2.292 2.282 5.063 3.417 8.313 3.417.484 0 .729.246.729.73q-.001.727-.73.728H32.439c-.49 0-.729-.244-.729-.728s.24-.729.729-.73c3.25 0 6.01-1.135 8.292-3.417q3.437-3.437 3.437-8.312V232.001c0-3.25-1.146-6.011-3.437-8.292-2.282-2.292-5.043-3.438-8.292-3.438-.49 0-.729-.239-.729-.728 0-.484.24-.729.729-.73h23.459c.333.001.572.079.728.23l114.896 158.895v-69.554q-2.37-.012-4.801-.013 2.431 0 4.801-.013v-76.357c0-3.25-1.145-6.011-3.437-8.292-2.281-2.292-5.042-3.438-8.292-3.438-.5 0-.75-.239-.75-.728q0-.727.75-.73h25.167q.25.002.5.23.228.25.229.5c-.001.489-.245.728-.729.728q-4.899 0-8.313 3.438c-2.281 2.281-3.417 5.042-3.417 8.292v76.347c12.584-.083 23.873-.407 34-.919a85.5 85.5 0 0 1 1.176-16.511c1.792-11.568 5.739-22.36 11.854-32.375q9.165-15.04 23.354-25.313 14.163-10.516 31.271-14.542a89.8 89.8 0 0 1 19.946-2.422c.488-10.912.765-23.117.765-36.77m202.698 39.317q.75.001.75.48l12.208 25.916q.25.252 0 .479 0 .5-.25.5c-.156.156-.312.23-.479.23-.322 0-.562-.157-.729-.48v-.25c-2.125-4.552-5.266-8.749-9.417-12.583-4.156-3.833-8.677-6.927-13.563-9.292q-7.336-3.54-14.416-3.542h-33q-4.897 0-8.334 3.438c-2.281 2.281-3.416 5.042-3.416 8.292v50.104c.001 2.448 1.146 3.666 3.438 3.666q8.063 0 11-7.812 2.936-7.579 9.52-12.104c4.402-3.01 9.376-4.521 14.917-4.521 7.011 0 13.084 2.532 18.208 7.584q7.706 7.584 7.708 18.333c0 7.167-2.572 13.281-7.708 18.333-5.124 5.057-11.197 7.584-18.208 7.584q-8.795 0-15.646-5.397-5.125-3.414-11.25-3.416-5.125.002-8.563 3.541c-2.281 2.365-3.415 5.178-3.416 8.438v60.875c0 3.25 1.135 6.021 3.416 8.312 2.292 2.282 5.069 3.417 8.334 3.417h44c4.719 0 9.526-1.177 14.416-3.542q7.329-3.54 13.438-9.291c4.083-3.833 7.261-8.026 9.542-12.584v-.25c.151-.484.48-.567.979-.25q.728.252.479.98l-12.208 25.917q-.25.477-.75.478H405.897c-.489 0-.729-.244-.729-.728s.24-.73.729-.73c3.261 0 6.032-1.135 8.313-3.417q3.415-3.437 3.416-8.312v-52.563c0-7.333 2.938-13.114 8.812-17.353 3.584-2.927 7.652-4.48 12.209-4.647h.75c4.552.001 8.625 1.308 12.208 3.917h.25q6.354 4.875 14.667 4.875 10.017.002 17.104-7.083c4.734-4.718 7.104-10.422 7.104-17.104q-.002-10.267-7.104-17.355c-4.724-4.718-10.427-7.082-17.104-7.083-5.057 0-9.661 1.469-13.812 4.396-4.156 2.932-7.125 6.677-8.917 11.229v.25q-1.483 3.922-5.021 6.25-3.546 2.313-7.687 2.313h-.5c-1.458 0-2.761-.24-3.897-.73h-.25q-3.921-1.475-6.375-4.895-2.437-3.413-2.437-7.583v-42.042c0-3.25-1.14-6.011-3.416-8.292q-3.422-3.437-8.313-3.438c-.489 0-.729-.239-.729-.728 0-.484.24-.73.729-.73zm75.524 0q.729.003.73.73c0 .489-.245.728-.73.728q-4.898 0-8.312 3.438c-2.281 2.281-3.417 5.042-3.417 8.292v145.208c0 3.25 1.136 6.021 3.417 8.312 2.276 2.282 5.047 3.417 8.312 3.417h44.73c4.734 0 9.547-1.177 14.437-3.542q7.329-3.54 13.438-9.291 6.1-5.749 9.52-12.834c.167-.484.49-.567.98-.25q.75.252.5.98l-12.23 25.917q-.25.477-.729.478H540.338c-.489 0-.728-.244-.729-.728 0-.484.239-.729.729-.73 3.25 0 6.011-1.135 8.292-3.417q3.437-3.437 3.437-8.312V232.001c0-3.25-1.145-6.011-3.437-8.292-2.281-2.292-5.042-3.438-8.292-3.438-.489 0-.728-.239-.729-.728 0-.484.239-.729.729-.73zm-191.63 90.591c-10.005.535-18.854 1.255-26.68 2.114a62 62 0 0 0-5.36.812c-1.77.349-3.531.771-5.271 1.266a62 62 0 0 0-5.141 1.708 63 63 0 0 0-4.984 2.13 64.667 64.667 0 0 0-9.338 5.495 63.6 63.6 0 0 0-8.276 6.984 64.174 64.174 0 0 0-9.927 12.828 67 67 0 0 0-2.553 4.786 64 64 0 0 0-2.13 4.985 62 62 0 0 0-1.708 5.14 66 66 0 0 0-1.265 5.272 62 62 0 0 0-.813 5.359c-.639 5.824-1.199 12.213-1.666 19.224a77.7 77.7 0 0 0 21.455-.777c10.177-1.791 19.511-5.781 28-11.979q13.913-10.248 22.958-24.917 9.063-14.666 11.75-31.791.697-4.32.949-8.639m-173.269-.005a86.6 86.6 0 0 0 2.175 14.997q3.914 16.626 13.937 30.563l7.333-5.375q.25-.25.5-.25.478 0 .73.5 10.5 14.421 24.562 23.584 14.061 9.17 29.583 12.583 3.181.7 6.352 1.144c-.462-6.869-1.013-13.139-1.641-18.862a64 64 0 0 0-.812-5.359 63.789 63.789 0 0 0-2.974-10.412 64.685 64.685 0 0 0-4.683-9.771 64 64 0 0 0-2.942-4.552 66 66 0 0 0-3.318-4.287 65 65 0 0 0-3.666-3.989 65 65 0 0 0-3.991-3.667 63 63 0 0 0-4.291-3.317 62 62 0 0 0-4.552-2.943 66 66 0 0 0-4.782-2.552 63 63 0 0 0-4.984-2.13 62 62 0 0 0-5.145-1.708 65 65 0 0 0-5.271-1.266 61 61 0 0 0-5.359-.812c-7.847-.861-16.722-1.583-26.761-2.119m85.648-87.707q-11.378-1.34-22.37.788c-10.098 1.948-19.301 5.938-27.603 11.979q-13.94 10.251-22.98 24.917c-6.031 9.781-9.938 20.375-11.729 31.792a84.5 84.5 0 0 0-1.056 16.179c10.076-.536 18.981-1.258 26.851-2.121a63.7 63.7 0 0 0 10.63-2.079 64 64 0 0 0 5.145-1.708 64.155 64.155 0 0 0 26.266-18.599 65 65 0 0 0 3.318-4.291 62 62 0 0 0 2.942-4.553 63 63 0 0 0 2.547-4.781 64 64 0 0 0 2.136-4.985 64 64 0 0 0 3.786-15.775c.861-7.848 1.582-16.724 2.117-26.763m2.071.274c.534 9.926 1.251 18.712 2.104 26.489a62 62 0 0 0 .813 5.359 66 66 0 0 0 1.265 5.271 62 62 0 0 0 1.708 5.145 64 64 0 0 0 2.13 4.985 66 66 0 0 0 2.553 4.781 62 62 0 0 0 2.942 4.553 63 63 0 0 0 3.318 4.291 64.3 64.3 0 0 0 11.943 10.974 65 65 0 0 0 4.552 2.943 65 65 0 0 0 4.786 2.547 64 64 0 0 0 4.984 2.135 63.6 63.6 0 0 0 10.412 2.974c1.776.344 3.563.62 5.36.813 7.851.861 16.731 1.581 26.774 2.117q.381-11.267-2.272-22.53-3.923-16.624-13.938-30.562l-7.333 5.375q-.25.25-.479.25-.501 0-.729-.5c-6.531-9.125-14.438-16.817-23.729-23.083q-13.92-9.413-30.542-13.084a82 82 0 0 0-6.622-1.243M116.609 86.526c6.875 0 12.365 2.105 16.48 6.313 4.125 4.208 6.187 9.656 6.187 16.333q0 10.025-6 16.729c-3.989 4.459-9.396 6.688-16.229 6.688s-12.334-2.24-16.5-6.73c-4.156-4.484-6.229-10.068-6.229-16.75 0-6.676 1.99-12.108 5.979-16.29q6-6.291 16.312-6.293m143.162 0q5.999 0 11.125 2.625c0 2.14-.323 5.813-.958 11.021l-.959-.25c-.001-4.026-.99-7.031-2.958-9.02q-2.939-2.979-6.75-2.98-3.813.001-6.125 2.23-2.313 2.211-2.313 5.229c0 2 .542 3.718 1.625 5.145q1.642 2.149 4.104 3.563 2.478 1.4 5.354 3.104a107 107 0 0 1 5.355 3.333c1.635 1.084 2.999 2.5 4.083 4.25 1.093 1.75 1.646 3.719 1.646 5.896 0 3.932-1.407 6.906-4.209 8.917q-4.188 3-10.062 3c-2.183 0-4.417-.344-6.708-1.021-2.282-.692-4.147-1.698-5.605-3.021q-.001-4.101.772-10.375l.958.187c0 4.141 1.01 7.303 3.042 9.48q3.038 3.272 7.458 3.27 4.437.001 7.25-2.145 2.812-2.14 2.812-6.75-.001-4.164-4.417-7.438a47 47 0 0 0-4.291-2.792 205 205 0 0 1-4.75-2.833c-1.573-.984-3-2.01-4.292-3.083-2.948-2.484-4.417-5.38-4.417-8.687 0-3.302 1.208-5.938 3.625-7.897 2.417-1.968 5.615-2.958 9.605-2.958m162.396 38.688v-23.708q0-6.33-.625-9.146-.608-2.828-1.958-3.687-1.336-.876-4.459-.875l-.146-.688h15.896l-.125.688q-3.149 0-4.5.875-1.337.86-1.916 3.687c-.375 1.875-.563 4.927-.563 9.146v30.75h-2l-30.167-38.105v23.188q0 6.4.563 9.229c.385 1.875 1.031 3.115 1.937 3.708q1.354.898 4.417.897l.125.77h-15.75l.125-.77q3.08 0 4.417-.897c.901-.593 1.552-1.833 1.958-3.708q.603-2.83.604-9.229v-15.833q-.001-6.39-.604-9.188c-.406-1.859-1.042-3.072-1.917-3.645-.874-.583-2.364-.875-4.458-.875l-.125-.688h8.708zM16.771 87.11q16.977 0 16.979 12.938 0 5.688-4 9.353c-2.667 2.433-5.844 3.647-9.52 3.647-3.667 0-6.787-.594-9.355-1.792v6.208c0 4.573.136 7.688.417 9.354.276 1.667.672 2.719 1.188 3.146q1.477 1.21 4.687 1.209l.125.77H0l.125-.77q3.204 0 4.667-1.209 1.602-1.353 1.604-12.5v-15.896q0-6.849-.417-9.333-.421-2.498-1.187-3.146Q3.329 87.86.125 87.86L0 87.11zm44.148 0c10.76 0 16.146 3.625 16.146 10.875q0 4.689-3.312 7.854-3.296 3.172-7.96 3.687 4.664 2.751 8.647 10.125a69 69 0 0 0 3.27 5.5c2.511 4.016 5.757 6.022 9.73 6.022l.125.77H78.67c-1.073 0-2.125-.542-3.166-1.625-1.042-1.093-1.98-2.458-2.813-4.083a107 107 0 0 0-2.917-5.271 111 111 0 0 0-3.333-5.354 15.4 15.4 0 0 0-4.23-4.229c-1.707-1.151-3.53-1.771-5.457-1.855v7.938c0 4.614.135 7.745.416 9.396q.414 2.462 1.187 3.104 1.54 1.21 4.75 1.209l.125.77H46.065l.125-.77q3.142.001 4.604-1.147 1.228-.954 1.417-6.291.125-2.1.125-6.271v-16.208c0-4.734-.135-7.876-.396-9.417-.25-1.542-.636-2.5-1.146-2.875q-1.462-1.102-4.604-1.104l-.125-.75zm126.156 9.208-.625-.125c0-5.208-5.178-7.812-15.521-7.812v29.083c0 6.323.365 10.167 1.104 11.542.25.5.693.948 1.333 1.333q.955.585 2.042.709 1.101.125 3.021.125l.125.77h-19.729l.125-.77c1.292 0 2.302-.027 3.041-.084a4.13 4.13 0 0 0 2.042-.75c.625-.427 1.073-.875 1.355-1.333q.414-.703.75-2.5c.208-1.458.312-4.469.312-9.042V88.381q-15.5 0-15.5 7.812l-.771.125V87.11h36.896zm41.787 0-.77-.125c0-2.859-1.511-4.843-4.521-5.958q-4.523-1.665-13.812-1.667v20.188q6.165.002 8.853-.646c1.792-.427 2.944-1.084 3.459-1.959.511-.875.771-2.333.771-4.375l.708-.125v15.563l-.708-.125c0-2.093-.26-3.567-.771-4.416q-.772-1.288-3.459-1.897-2.688-.602-8.853-.603v8.25c0 4.531.155 7.541.478 9.041q.5 2.234 2.147 3c12.052 0 18.083-2.563 18.083-7.688l.77-.125v9.292h-32.291l.125-.77q3.204 0 4.666-1.209 1.603-1.352 1.605-12.5v-15.896q-.001-6.85-.417-9.375-.422-2.517-1.188-3.167-1.462-1.227-4.666-1.228l-.125-.688h29.916zm93.215 0-.625-.125c0-5.208-5.178-7.812-15.521-7.812v29.083c0 6.323.365 10.167 1.104 11.542.25.5.693.948 1.333 1.333q.955.585 2.042.709 1.1.125 3.021.125l.125.77h-19.729l.125-.77c1.291 0 2.302-.027 3.041-.084a4.13 4.13 0 0 0 2.042-.75c.625-.427 1.073-.875 1.355-1.333q.414-.703.75-2.5c.208-1.458.312-4.469.312-9.042V88.381q-15.5 0-15.5 7.812l-.771.125V87.11h36.896zm42.996 21.458q2.89 7.626 3.875 9.688.999 2.046 1.896 2.625c1.067.724 2.417 1.084 4.042 1.084l.125.77h-16.022l.125-.77c1.625 0 2.761-.125 3.417-.375q1-.392 1-2c0-1.068-1.135-4.693-3.395-10.875h-19.522c-1.849 5.416-2.77 8.822-2.77 10.208q0 2.086 1.062 2.562c.709.323 1.98.48 3.813.48l.125.77h-14.417l.125-.77c1.25 0 2.219-.104 2.917-.313.708-.218 1.479-.792 2.312-1.709.834-.916 1.63-2.25 2.396-4q1.163-2.625 2.771-7.375l5.688-16.458c2.01-5.802 3.02-9.322 3.02-10.562 0-1.234-.302-2.03-.895-2.396q-.898-.562-3.459-.562l-.125-.688h10.562zm113.854-21.458-.625-.125c0-5.208-5.177-7.812-15.521-7.812v29.083c0 6.323.364 10.167 1.104 11.542q.374.752 1.334 1.333.954.584 2.041.709 1.1.125 3.021.125l.125.77h-19.729l.125-.77c1.291 0 2.302-.027 3.042-.084a4.13 4.13 0 0 0 2.041-.75c.625-.427 1.073-.875 1.354-1.333q.414-.703.75-2.5c.209-1.458.313-4.469.313-9.042V88.381q-15.5 0-15.5 7.812l-.771.125V87.11h36.896zm41.788 0-.772-.125c0-2.859-1.51-4.843-4.52-5.958q-4.524-1.665-13.813-1.667v20.188q6.166.002 8.855-.646c1.791-.427 2.942-1.084 3.458-1.959.51-.875.77-2.333.77-4.375l.709-.125v15.563l-.709-.125c0-2.094-.26-3.567-.77-4.416q-.773-1.287-3.458-1.897-2.689-.602-8.855-.603v8.25c0 4.531.157 7.541.48 9.041q.498 2.234 2.145 3c12.052 0 18.083-2.563 18.083-7.688l.772-.125v9.292h-32.292l.125-.77q3.204 0 4.667-1.209 1.602-1.352 1.603-12.5v-15.896q-.001-6.85-.416-9.375-.422-2.517-1.187-3.167-1.463-1.227-4.667-1.228l-.125-.688h29.917zm53.886-9.208c7.343 0 12.853.64 16.52 1.916q2.5.9 5.313 2.563c1.885 1.114 3.417 2.438 4.584 3.98 1.177 1.53 2.166 3.494 2.958 5.895q1.187 3.587 1.187 8.042 0 4.437-1.187 8c-.792 2.364-1.781 4.313-2.958 5.854-1.167 1.542-2.621 2.885-4.355 4.021-1.724 1.125-3.354 1.968-4.895 2.52q-2.313.836-5.125 1.334a42 42 0 0 1-7.75.708h-17.23l.125-.77q3.205 0 4.667-1.209 1.603-1.352 1.604-12.5v-15.896q-.001-6.85-.416-9.375-.423-2.517-1.188-3.167-1.462-1.227-4.667-1.228l-.125-.688zm73.619 9.208-.771-.125c0-2.859-1.51-4.843-4.52-5.958q-4.524-1.665-13.813-1.667v20.188q6.165.002 8.854-.646c1.791-.427 2.943-1.084 3.459-1.959.51-.875.77-2.333.77-4.375l.708-.125v15.563l-.708-.125c0-2.093-.26-3.567-.77-4.416q-.773-1.288-3.459-1.897-2.69-.602-8.854-.603v8.25c0 4.531.156 7.541.479 9.041q.499 2.234 2.146 3c12.052 0 18.083-2.563 18.083-7.688l.771-.125v9.292h-32.291l.125-.77q3.204 0 4.666-1.209 1.602-1.352 1.604-12.5v-15.896q-.001-6.85-.417-9.375-.422-2.517-1.187-3.167-1.462-1.227-4.666-1.228l-.125-.688h29.916zm-531.652-8.312c-5.447 0-9.593 1.969-12.437 5.895-2.833 3.917-4.25 9.115-4.25 15.583 0 6.474 1.489 11.699 4.478 15.667 3 3.974 7.219 5.958 12.667 5.958 5.443 0 9.584-1.968 12.417-5.916 2.844-3.958 4.271-9.156 4.271-15.604q0-9.664-4.5-15.625c-2.99-3.969-7.203-5.958-12.646-5.958m460.97.562c-1.917 0-3.583.136-5 .396v29.271c0 4.614.125 7.666.375 9.166q.39 2.235 2 3 .767.063 3.167.063 2.414 0 5.25-.5c1.901-.344 3.864-1 5.896-1.958q3.06-1.437 5.27-3.688c1.469-1.5 2.688-3.51 3.647-6.042q1.437-3.81 1.437-8.708-.001-4.914-1.417-8.687-1.397-3.789-3.645-6.063-2.235-2.265-5.25-3.75-5.314-2.5-11.73-2.5m-236.424 27.813h18.522l-9.48-25.813zm-330.239-6.73c2.219 1.198 4.839 1.792 7.855 1.792 3.01 0 5.437-.948 7.27-2.854q2.75-2.853 2.75-8.541c0-4.75-1.537-7.907-4.605-9.48q-3.774-2-9.103-2h-4.167zm45.878-1.416h4.04q4.875 0 8.063-2.5c2.136-1.666 3.21-4.135 3.21-7.417 0-6.5-3.72-9.75-11.147-9.75h-4.166zM88.677 10.25c3.15 0 6.312.433 9.478 1.292 3.167.849 5.553 1.718 7.167 2.604v8.209l-.687-.125q-1.61-5.766-5.563-8.126c-2.625-1.583-6.093-2.374-10.395-2.374q-8.21.001-12.5 5.915c-2.865 3.948-4.292 9.105-4.292 15.48 0 6.365 1.51 11.51 4.542 15.438q4.56 5.897 12.77 5.895 5.876 0 9.813-1.437 3.954-1.456 7.792-4.209v1.918q-7.358 5.584-17.647 5.583c-6.864 0-12.385-2.199-16.562-6.605q-6.272-6.6-6.27-16.458c0-6.583 2.01-12.062 6.041-16.437q6.063-6.563 16.313-6.563m413.979 0c6.875 0 12.365 2.104 16.48 6.313 4.125 4.208 6.187 9.656 6.187 16.333q0 10.024-6 16.729-5.981 6.688-16.229 6.688c-6.834 0-12.334-2.24-16.5-6.73-4.156-4.484-6.23-10.068-6.23-16.75 0-6.677 1.99-12.109 5.98-16.291q6-6.29 16.312-6.292m74.382 38.688V25.23c0-4.22-.208-7.272-.625-9.147q-.608-2.828-1.958-3.687-1.336-.876-4.459-.876l-.145-.687h15.895l-.125.688q-3.149 0-4.5.874-1.336.86-1.916 3.688c-.375 1.875-.562 4.928-.562 9.147v30.75h-2l-30.167-38.105v23.188q0 6.4.562 9.229c.386 1.875 1.031 3.114 1.938 3.708q1.353.897 4.417.895l.125.772h-15.75l.125-.772q3.078.002 4.416-.895c.901-.594 1.552-1.833 1.959-3.708q.602-2.83.603-9.23V25.23q0-6.39-.603-9.188c-.407-1.86-1.042-3.074-1.917-3.647-.875-.583-2.365-.874-4.458-.874l-.125-.688h8.708zm-427.49-28.896-.772-.125c0-2.86-1.51-4.844-4.52-5.959q-4.524-1.665-13.813-1.666V32.48q6.166 0 8.855-.647c1.791-.427 2.942-1.083 3.458-1.958.51-.875.77-2.333.77-4.375l.709-.125v15.563l-.709-.126c0-2.093-.26-3.568-.77-4.416q-.773-1.288-3.458-1.896-2.689-.603-8.855-.605v8.25c0 4.532.157 7.542.48 9.042q.498 2.235 2.145 3c12.052 0 18.083-2.562 18.083-7.687l.772-.125v9.292h-32.292l.125-.772c2.135 0 3.693-.4 4.667-1.208q1.602-1.352 1.603-12.5V25.293q-.001-6.852-.416-9.375-.422-2.517-1.187-3.167-1.463-1.229-4.667-1.23l-.125-.687h29.917zm34.407-8.522q-3.21.002-4.687 1.23c-1.073.89-1.604 5.073-1.604 12.542v16.853q-.001 6.921.458 9.21.455 2.274 2.105 3.04 16.54.001 16.541-7.895l.709-.125v9.292h-30.625l.125-.772q1.536 0 2.458-.125a3.57 3.57 0 0 0 1.708-.708q.765-.577 1.125-1.312.352-.725.604-2.458c.208-1.5.313-4.532.313-9.105V25.293c0-6.36-.302-10.22-.896-11.584q-.836-1.79-2.812-2.062-.962-.126-2.5-.126l-.125-.687h17.228zm55.936 8.522-.771-.125c0-2.86-1.511-4.844-4.521-5.959q-4.524-1.665-13.813-1.666V32.48q6.166 0 8.855-.647c1.791-.427 2.942-1.083 3.458-1.958.51-.875.771-2.333.771-4.375l.708-.125v15.563l-.708-.126c0-2.093-.261-3.568-.771-4.416q-.773-1.288-3.458-1.896-2.689-.603-8.855-.605v8.25c0 4.532.157 7.542.48 9.042q.498 2.235 2.145 3c12.052 0 18.084-2.562 18.084-7.687l.771-.125v9.292h-32.292l.125-.772c2.135 0 3.693-.4 4.667-1.208q1.602-1.35 1.604-12.5V25.293q-.001-6.852-.417-9.375-.422-2.517-1.187-3.167-1.463-1.229-4.667-1.23l-.125-.687h29.917zm31.594-9.209c3.151 0 6.355.553 9.605 1.646 1.833.615 3.323 1.657 4.479 3.126q1.728 2.209 1.729 5.333c0 2.864-1.031 5.104-3.083 6.729-2.042 1.625-4.495 2.76-7.355 3.395 3.334.35 6.319 1.375 8.959 3.083q2.124 1.398 3.396 3.71 1.29 2.311 1.292 5.25-.002 6.421-4.917 9.5-4.9 3.062-13.417 3.062h-15.041l.125-.772q1.601 0 2.5-.125a3.7 3.7 0 0 0 1.687-.708c.542-.385.927-.822 1.166-1.312q.353-.725.605-2.458c.208-1.5.312-4.532.312-9.105V25.293q-.002-9.6-.895-11.522c-.25-.51-.646-.958-1.188-1.332q-.797-.581-1.687-.709c-.599-.093-1.433-.146-2.5-.146l-.125-.75zm47.911 0c10.761 0 16.146 3.625 16.146 10.875q0 4.689-3.313 7.855-3.294 3.171-7.958 3.687 4.664 2.75 8.646 10.125a69 69 0 0 0 3.271 5.5q3.767 6.021 9.729 6.02l.125.772h-8.896c-1.072 0-2.125-.542-3.167-1.625-1.041-1.094-1.979-2.459-2.812-4.084a107 107 0 0 0-2.916-5.27 112 112 0 0 0-3.334-5.355 15.4 15.4 0 0 0-4.229-4.228c-1.708-1.151-3.531-1.772-5.459-1.855v7.938c0 4.614.136 7.744.417 9.395q.415 2.462 1.188 3.105 1.539 1.209 4.75 1.207l.125.772h-17.167l.125-.772q3.143.001 4.604-1.145 1.228-.955 1.417-6.292.125-2.1.125-6.27V24.98c0-4.735-.136-7.876-.396-9.417-.25-1.542-.635-2.5-1.146-2.876q-1.461-1.102-4.604-1.104l-.125-.75zM384.878 41.5q2.89 7.624 3.875 9.688.999 2.047 1.896 2.624 1.603 1.085 4.041 1.084l.125.771h-16.02l.125-.772c1.625 0 2.761-.125 3.417-.375q1-.39 1-2c0-1.068-1.136-4.693-3.397-10.875h-19.52c-1.849 5.417-2.771 8.824-2.771 10.21q0 2.085 1.063 2.562c.708.323 1.979.478 3.812.478l.125.772h-14.417l.125-.772c1.25 0 2.219-.104 2.917-.312q1.064-.33 2.313-1.708 1.248-1.375 2.395-4 1.163-2.625 2.771-7.375l5.687-16.458c2.011-5.802 3.022-9.323 3.022-10.563 0-1.234-.303-2.031-.897-2.396q-.897-.562-3.458-.562l-.125-.688h10.563zm53.178-21.458-.625-.125c0-5.208-5.177-7.812-15.521-7.813v29.084c0 6.322.364 10.167 1.104 11.542.25.5.693.947 1.334 1.333a4.9 4.9 0 0 0 2.041.707q1.1.126 3.021.125l.125.772h-19.729l.125-.772c1.291 0 2.302-.025 3.042-.083a4.13 4.13 0 0 0 2.041-.75c.625-.426 1.073-.874 1.354-1.332q.414-.705.75-2.5c.208-1.459.313-4.47.313-9.042V12.105q-15.5 0-15.5 7.812l-.771.125v-9.209h36.896zm29.038-8.522q-3.211.002-4.688 1.23c-1.073.89-1.604 5.073-1.604 12.542v15.895c0 4.573.135 7.688.417 9.355.276 1.666.672 2.718 1.187 3.145q1.477 1.21 4.688 1.209l.125.771h-17.292l.125-.772q1.601 0 2.5-.125a3.7 3.7 0 0 0 1.687-.708c.542-.385.928-.822 1.167-1.312q.353-.725.604-2.458c.208-1.5.312-4.532.312-9.105V25.293c0-4.427-.135-7.522-.395-9.272-.25-1.75-.635-2.838-1.146-3.27q-1.524-1.229-4.729-1.23l-.125-.687h17.292zm35.52.21c-5.448 0-9.594 1.968-12.437 5.895-2.833 3.917-4.25 9.115-4.25 15.583 0 6.474 1.49 11.698 4.479 15.667 3 3.974 7.219 5.958 12.667 5.958 5.443 0 9.583-1.968 12.416-5.916 2.844-3.958 4.272-9.157 4.272-15.605q0-9.663-4.5-15.624-4.484-5.957-12.647-5.958M268.007 42.145c0 4.656.135 7.698.416 9.125q.413 2.15 2.084 2.917c2.135 0 4.115-.254 5.937-.77q2.728-.766 4.354-1.855 1.625-1.078 2.875-3.25 1.25-2.186 1.25-5.207c0-7.47-5.313-11.21-15.938-11.21h-.978zm92.913-2.04h18.52l-9.478-25.813zm-45.691-8.147h4.042q4.875 0 8.063-2.5c2.135-1.667 3.208-4.135 3.208-7.416 0-6.5-3.718-9.75-11.146-9.75h-4.167zm-47.222-1.333h.583c8.76 0 13.145-3.23 13.145-9.687 0-5.76-4.577-8.646-13.728-8.646zM142.526 0c.667 0 1.24.203 1.73.604q.728.61.729 1.625c0 1.417-.917 2.406-2.75 2.959L130.506 8.77l-.688-1.604L140.256.833c.843-.552 1.604-.833 2.27-.833m90.344 0c.667 0 1.239.204 1.729.604q.728.61.729 1.625c0 1.417-.917 2.406-2.75 2.959L220.849 8.77l-.688-1.604L230.599.833C231.442.281 232.203 0 232.87 0"/>
</svg>