<svg xmlns="http://www.w3.org/2000/svg" width="578" height="146" fill="none" viewBox="0 0 578 146">
  <path fill="white" d="M16.958 46.375c0 6.74.282 10.73.855 11.98.291.624.614 1.218.979 1.77q.54.835 1.541 1.125 2.016.563 5.125.563l.146.874H3.25l.146-.874q2.165 0 3.417-.126a5.5 5.5 0 0 0 2.312-.791q1.04-.666 1.5-1.48c.318-.551.604-1.505.854-2.853q.415-2.891.417-10.188V27.333c0-3.26-1.058-4.895-3.167-4.895-1.541 0-4.26.864-8.146 2.583L0 23.667c8.318-3.76 13.708-6.485 16.167-8.167l.791.375zM43.71 52.583v-2.229L68.108 15.5l2.083.375v34.542h8.958v2.166h-8.875q.205 6 1.792 7.625c1.052 1.073 3.27 1.605 6.646 1.605l.146.874H56.482l.146-.874c3.375 0 5.572-.527 6.604-1.584 1.026-1.052 1.635-3.604 1.833-7.646zm21.438-6.208V23.667l-18.77 26.75h18.687c.052-.818.083-2.167.083-4.042M134.553 12.188c8.26 0 14.464.723 18.604 2.166 1.875.667 3.865 1.625 5.979 2.875 2.125 1.25 3.844 2.745 5.167 4.48q1.977 2.608 3.312 6.645 1.354 4.047 1.355 9.063-.001 5-1.355 9-1.335 4.001-3.312 6.604c-1.323 1.74-2.958 3.245-4.917 4.52q-2.92 1.898-5.521 2.834c-1.723.625-3.64 1.135-5.75 1.52-2.848.532-5.76.792-8.729.792H119.97l.145-.874c2.402 0 4.157-.448 5.271-1.355 1.193-1.01 1.792-5.708 1.792-14.083V28.5q-.001-7.725-.479-10.583-.46-2.852-1.313-3.563-1.67-1.374-5.271-1.375l-.145-.791zm.354 48.77q.875.063 3.563.063 2.705 0 5.916-.563c2.136-.385 4.344-1.125 6.625-2.208 2.292-1.083 4.261-2.464 5.917-4.146q2.5-2.516 4.125-6.812 1.625-4.29 1.625-9.813c0-3.677-.531-6.937-1.583-9.77-1.058-2.844-2.433-5.126-4.125-6.834q-2.523-2.561-5.896-4.208c-4-1.875-8.406-2.813-13.209-2.813q-3.249 0-5.625.417V47.25c0 5.198.136 8.635.417 10.313q.438 2.522 2.25 3.395M220.119 62.688h-36.375l.146-.876c2.401 0 4.156-.447 5.27-1.354 1.193-1.01 1.792-5.708 1.792-14.083V28.5q-.001-7.725-.479-10.583-.46-2.852-1.313-3.563-1.67-1.374-5.27-1.375l-.146-.791h33.687v10.395l-.854-.145c0-3.22-1.698-5.459-5.083-6.709q-5.086-1.875-15.563-1.875v22.709q6.936.001 9.959-.709 3.037-.725 3.895-2.208.876-1.477.875-4.938l.792-.145v17.541l-.792-.146q0-3.54-.875-4.979-.858-1.453-3.895-2.125-3.023-.687-9.959-.687v9.291c0 5.1.177 8.495.542 10.188q.54 2.523 2.417 3.375 20.352.001 20.354-8.646l.875-.146zM206.973.938Q208.41 0 209.535 0t1.938.688c.552.447.833 1.057.833 1.833 0 1.583-1.031 2.687-3.083 3.312l-13.208 4.042-.792-1.792zM282.445 57.125c-5.531 4.198-12.156 6.292-19.875 6.292q-11.587 0-18.667-7.438c-4.708-4.958-7.062-11.135-7.062-18.541q0-11.102 6.812-18.5 6.828-7.394 18.375-7.396 5.33 0 10.667 1.437c3.568.959 6.26 1.948 8.083 2.959v9.229l-.791-.146q-1.813-6.476-6.25-9.146c-2.959-1.792-6.865-2.687-11.709-2.687-6.166 0-10.864 2.229-14.083 6.687-3.224 4.448-4.833 10.25-4.833 17.417 0 7.166 1.708 12.968 5.125 17.396q5.122 6.624 14.354 6.624c4.427 0 8.125-.541 11.083-1.624s5.88-2.657 8.771-4.73zM295.718 59.625c0-1.083.364-1.99 1.104-2.73q1.124-1.125 2.708-1.124 1.58 0 2.667 1.125c.719.74 1.083 1.646 1.083 2.729s-.375 1.99-1.125 2.708a3.69 3.69 0 0 1-2.666 1.084c-1.032 0-1.917-.365-2.667-1.084-.74-.718-1.104-1.625-1.104-2.708M373.05 61.813c1.834 0 3.115-.136 3.854-.417.75-.292 1.125-1.031 1.125-2.23q0-1.81-3.812-12.27h-22.021c-2.073 6.099-3.104 9.932-3.104 11.5q0 2.335 1.187 2.875c.803.364 2.24.541 4.313.541l.146.876h-16.25l.146-.876c1.406 0 2.5-.114 3.291-.354q1.186-.35 2.584-1.895 1.412-1.561 2.708-4.521c.875-1.97 1.906-4.735 3.104-8.292l6.417-18.542c2.26-6.541 3.396-10.505 3.396-11.895 0-1.401-.344-2.303-1.021-2.709q-1-.624-3.875-.625l-.146-.791h11.896l12.771 34.562c2.166 5.724 3.614 9.354 4.354 10.896q1.123 2.295 2.146 2.958 1.79 1.21 4.541 1.209l.146.874h-18.042zm-10.104-45.73-10.167 29.063h20.855zm-8.437-13.562q-.001-1.163.833-1.833A2.94 2.94 0 0 1 357.279 0q1.125 0 2.563.938l11.771 7.145-.792 1.792-13.208-4.042c-2.073-.625-3.104-1.729-3.104-3.312M447.655 46.375c0 6.74.281 10.73.854 11.98.292.624.614 1.218.979 1.77q.54.835 1.542 1.125 2.015.563 5.125.563l.146.874h-22.355l.146-.874q2.166 0 3.417-.126a5.5 5.5 0 0 0 2.312-.791q1.04-.666 1.5-1.48c.318-.551.605-1.505.855-2.853q.415-2.891.416-10.188V27.333c0-3.26-1.057-4.895-3.166-4.895-1.542 0-4.261.864-8.146 2.583l-.584-1.354c8.318-3.76 13.709-6.485 16.167-8.167l.792.375zM475.345 39.646Q475.344 28.42 479.991 22q4.662-6.415 11.958-6.417 7.29.001 11.854 6.417c3.052 4.281 4.583 10.161 4.583 17.646q-.001 11.21-4.541 17.5-4.547 6.272-11.875 6.27-7.314.002-11.979-6.27-4.647-6.29-4.646-17.5m5.208-.042q-.001 9.672 3.271 15.688 3.288 6.021 8.146 6.02c3.25 0 5.927-1.99 8.041-5.979q3.188-6 3.188-15.687 0-9.703-3.188-15.938c-2.114-4.166-4.791-6.25-8.041-6.25q-4.858 0-8.146 6.25c-2.182 4.157-3.271 9.453-3.271 15.896M570.514 28.5v17.875q-.001 10.836 1.083 13 .351.858 1.209 1.52a4.1 4.1 0 0 0 1.916.792c.709.084 1.636.126 2.792.126l.146.874h-19.479l.146-.874q1.787 0 2.833-.126a4.26 4.26 0 0 0 1.958-.791q.892-.666 1.292-1.48c.26-.551.489-1.484.687-2.791q.354-2.516.355-10.25v-7.937h-29.209v7.937c0 5.156.151 8.667.459 10.542q.475 2.814 1.333 3.541c1.109.907 2.864 1.355 5.271 1.355l.146.874h-19.48l.146-.874q1.812 0 2.813-.126a4.24 4.24 0 0 0 1.916-.791q.892-.666 1.292-1.48c.26-.551.49-1.484.688-2.791q.352-2.516.354-10.25V28.5q0-7.516-.438-10.48c-.281-1.968-.708-3.192-1.291-3.666q-1.734-1.374-5.334-1.375l-.146-.791h19.48l-.146.791q-3.609 0-5.271 1.375c-1.198 1.016-1.792 5.73-1.792 14.146v8.063h29.209V28.5c0-7.167-.365-11.52-1.084-13.062q-.359-.874-1.25-1.521a4.4 4.4 0 0 0-1.958-.792c-.698-.094-1.641-.146-2.833-.146l-.146-.791h19.479l-.146.791c-1.156 0-2.083.052-2.792.146a4.2 4.2 0 0 0-1.916.792q-.86.647-1.25 1.52-.399.859-.688 2.813c-.239 2.115-.354 5.531-.354 10.25M134.135 126.292v9.625q0 4.15.25 5.666c.167 1.016.407 1.646.73 1.896.593.5 1.541.75 2.833.75l.062.459h-10.395l.083-.459q1.892.001 2.792-.708.727-.58.854-3.792c.052-.859.083-2.13.083-3.812V119.5l-10.875 24.792-11.208-21v12.541c0 2.599.114 4.474.354 5.625q.375 1.711 1.187 2.25c.542.349 1.448.521 2.73.521l.062.459h-9.542l.084-.459q1.436.001 2.146-.208.727-.225 1.229-1.146c.333-.625.541-1.448.625-2.479.094-1.042.146-2.563.146-4.563v-9.5c0-2-.052-3.51-.146-4.541-.084-1.042-.292-1.865-.625-2.479q-.502-.937-1.229-1.146-.71-.228-2.146-.229l-.084-.417h5.209l11.979 22.625 9.896-22.625h6.791l-.062.417c-1.292 0-2.24.25-2.833.75-.657.541-.98 3.078-.98 7.604M161.806 144.229c.984 0 1.677-.073 2.083-.229q.603-.25.604-1.208 0-.978-2.062-6.604h-11.834c-1.114 3.291-1.666 5.364-1.666 6.208q0 1.251.625 1.542c.427.197 1.198.291 2.312.291l.084.459h-8.73l.084-.459q1.125 0 1.75-.187c.427-.136.896-.485 1.396-1.042.51-.552 1-1.359 1.458-2.417q.704-1.602 1.667-4.479l3.458-9.979c1.219-3.51 1.833-5.646 1.833-6.396q-.001-1.123-.541-1.458c-.365-.219-1.063-.333-2.105-.333l-.083-.417h6.417l6.875 18.583q1.725 4.626 2.333 5.875.6 1.233 1.146 1.583c.651.448 1.469.667 2.458.667l.063.459h-9.688zm-5.438-24.625-5.458 15.646h11.208zM183.241 126.292v9.625q0 4.15.25 5.666.248 1.522.708 1.896c.594.5 1.542.75 2.833.75l.084.459h-10.48l.084-.459q.952.001 1.5-.083a2.4 2.4 0 0 0 1.041-.417q.477-.353.688-.791.227-.454.375-1.5.187-1.375.187-5.521v-9.625q-.001-4.04-.229-5.625-.234-1.603-.687-1.979-.938-.75-2.875-.75l-.084-.417h10.48l-.084.417c-1.291 0-2.239.25-2.833.75q-.96.813-.958 7.604M196.906 136.458q-.001 3.774 1.833 5.75c1.234 1.323 2.74 1.98 4.521 1.98 1.791 0 3.255-.428 4.396-1.292 1.135-.875 1.708-2.24 1.708-4.104q0-2.516-2.688-4.5a30 30 0 0 0-2.604-1.688 94 94 0 0 1-2.875-1.729 22.5 22.5 0 0 1-2.583-1.875q-2.688-2.25-2.688-5.25c0-2 .73-3.594 2.188-4.792 1.469-1.192 3.417-1.791 5.833-1.791s4.657.536 6.729 1.604c0 1.292-.197 3.515-.583 6.667l-.583-.167q-.001-3.64-1.792-5.438-1.772-1.812-4.083-1.812c-1.542 0-2.781.453-3.709 1.354q-1.397 1.338-1.395 3.167c0 1.208.323 2.25.979 3.125a8.3 8.3 0 0 0 2.479 2.146q1.5.858 3.25 1.875a65 65 0 0 1 3.25 2.02 8.1 8.1 0 0 1 2.479 2.584q1 1.585 1 3.562-.001 3.588-2.542 5.417-2.546 1.812-6.125 1.812-1.984 0-4.062-.625c-1.375-.416-2.51-1.026-3.396-1.833 0-1.651.156-3.75.479-6.292zM233.607 117.167c4.167 0 7.5 1.281 10 3.833 2.5 2.542 3.75 5.844 3.75 9.896q0 6.063-3.625 10.125t-9.854 4.062q-6.21.001-10-4.083c-2.515-2.719-3.771-6.104-3.771-10.146q0-6.078 3.625-9.875 3.64-3.812 9.875-3.812m.25 27.021q4.955.001 7.542-3.584c1.719-2.401 2.583-5.552 2.583-9.458 0-3.917-.911-7.073-2.729-9.479q-2.712-3.603-7.666-3.604c-3.292 0-5.803 1.197-7.521 3.583q-2.585 3.563-2.584 9.437-.001 5.876 2.709 9.5c1.817 2.407 4.375 3.605 7.666 3.605M279.646 126.25v18.625h-1.188l-18.291-23.083v14.041c0 2.599.114 4.469.354 5.605q.353 1.686 1.167 2.25c.541.364 1.427.541 2.666.541l.084.459h-9.542l.062-.459c1.25 0 2.146-.177 2.688-.541.542-.376.927-1.126 1.166-2.25q.375-1.705.376-5.605v-9.583q0-3.874-.376-5.562-.357-1.686-1.145-2.209-.796-.54-2.709-.541l-.062-.417h5.271l18.521 23.083V126.25q0-3.83-.376-5.542-.375-1.704-1.187-2.229c-.542-.359-1.448-.541-2.708-.541l-.084-.417h9.625l-.083.417q-1.898.001-2.708.541-.814.525-1.167 2.229c-.24 1.141-.354 2.99-.354 5.542M326.264 144.688c-.641 0-1.281-.323-1.917-.98-.64-.666-1.208-1.489-1.708-2.479a56 56 0 0 0-1.771-3.187 61 61 0 0 0-2.021-3.25 9.1 9.1 0 0 0-2.562-2.563c-1.031-.693-2.125-1.068-3.292-1.125v4.813q0 4.187.25 5.687c.167 1 .406 1.625.729 1.875q.916.75 2.855.75l.083.459h-10.396l.083-.459q1.893.001 2.792-.708.728-.58.854-3.792.063-1.289.063-3.812v-9.813q-.001-4.311-.229-5.708-.235-1.391-.688-1.75-.9-.666-2.792-.667l-.083-.458h9q9.79.001 9.792 6.604 0 2.836-2 4.75c-1.334 1.281-2.948 2.021-4.834 2.229q2.83 1.672 5.23 6.125a45 45 0 0 0 1.979 3.354q2.287 3.648 5.896 3.646l.083.459zm-13.271-26.271v11.916h2.438c1.968 0 3.604-.505 4.896-1.521q1.937-1.515 1.937-4.499c0-3.928-2.25-5.896-6.75-5.896zM351.567 144.229c.985 0 1.677-.073 2.084-.229q.603-.25.604-1.208 0-.978-2.063-6.604h-11.833c-1.115 3.291-1.667 5.364-1.667 6.208q0 1.251.625 1.542c.427.197 1.198.291 2.313.291l.083.459h-8.729l.083-.459q1.125 0 1.75-.187c.427-.136.896-.485 1.396-1.042.511-.552 1-1.359 1.458-2.417q.705-1.602 1.667-4.479l3.458-9.979c1.219-3.51 1.834-5.646 1.834-6.396q-.001-1.123-.542-1.458c-.364-.219-1.062-.333-2.104-.333l-.083-.417h6.416l6.875 18.583q1.725 4.626 2.334 5.875.6 1.233 1.145 1.583c.652.448 1.469.667 2.459.667l.062.459h-9.687zm-5.437-24.625-5.459 15.646h11.209zM372.377 119.208q-.001.688.084 1.063c.067.239.125.432.166.583.042.156.094.37.167.646q.124.399.208.688c.068.197.167.479.292.854.135.364.25.661.333.896.094.223.229.572.396 1.041.167.459.302.834.417 1.125l6.041 16.479 5.75-16.479c1.136-3.291 1.709-5.344 1.709-6.166 0-.834-.224-1.365-.667-1.605q-.646-.352-2.271-.354l-.083-.458h9.5l-.063.458c-.989 0-1.739.073-2.25.209-.5.125-1.031.473-1.583 1.041-.557.573-1.073 1.375-1.542 2.417-.458 1.031-1.031 2.515-1.708 4.458l-6.521 18.771h-2.437l-6.875-18.771q-2.172-5.828-3.063-6.875a3.3 3.3 0 0 0-.958-.771q-.585-.353-1.146-.416a15 15 0 0 0-1.542-.063l-.083-.458h10.479l-.062.458c-.99 0-1.683.094-2.084.271-.406.182-.604.5-.604.958M407.818 126.292v9.625q0 4.15.25 5.666.249 1.522.708 1.896c.594.5 1.542.75 2.834.75l.083.459h-10.479l.083-.459q.954.001 1.5-.083a2.4 2.4 0 0 0 1.042-.417q.477-.353.687-.791.228-.454.375-1.5.188-1.375.188-5.521v-9.625q-.001-4.04-.229-5.625-.235-1.603-.688-1.979-.937-.75-2.875-.75l-.083-.417h10.479l-.083.417c-1.292 0-2.24.25-2.834.75q-.959.813-.958 7.604M439.796 144.688h-19.563l.083-.459q1.937 0 2.834-.75c.635-.541.958-3.062.958-7.562v-9.625q0-4.141-.25-5.688c-.167-1.026-.406-1.666-.708-1.916q-.897-.75-2.834-.75l-.083-.417h18.125v5.583l-.458-.083c0-1.719-.917-2.917-2.75-3.583-1.823-.678-4.604-1.021-8.354-1.021v12.229q3.727.002 5.354-.396 1.624-.39 2.083-1.188.478-.788.479-2.645l.438-.084v9.438l-.438-.083q-.001-1.915-.479-2.688-.46-.765-2.083-1.125-1.627-.375-5.354-.375v5c0 2.74.093 4.563.291 5.479q.29 1.36 1.292 1.813c7.302 0 10.958-1.547 10.958-4.646l.459-.084zM468.633 144.688c-.64 0-1.281-.323-1.916-.98-.641-.666-1.209-1.489-1.709-2.479a56 56 0 0 0-1.77-3.187 61 61 0 0 0-2.021-3.25 9.1 9.1 0 0 0-2.563-2.563c-1.031-.693-2.125-1.068-3.291-1.125v4.813q0 4.187.25 5.687c.166 1 .406 1.625.729 1.875q.915.75 2.854.75l.083.459h-10.396l.084-.459q1.892.001 2.791-.708.728-.58.855-3.792.062-1.289.062-3.812v-9.813q-.001-4.311-.229-5.708-.234-1.391-.688-1.75-.899-.666-2.791-.667l-.084-.458h9q9.791.001 9.792 6.604 0 2.836-2 4.75c-1.333 1.281-2.948 2.021-4.833 2.229q2.829 1.672 5.229 6.125a45 45 0 0 0 1.979 3.354q2.288 3.648 5.896 3.646l.083.459zm-13.27-26.271v11.916h2.437c1.969 0 3.604-.505 4.896-1.521q1.938-1.515 1.937-4.499c0-3.928-2.25-5.896-6.75-5.896z"/>
</svg>