<svg width="266.78" height="55" xmlns="http://www.w3.org/2000/svg"><g fill="none" fill-rule="evenodd"><path d="M185.242 38.89c.517 0 .916.147 1.195.44.28.291.501.692.663 1.2.162.509.302 1.098.42 1.769l.436 2.4c.18.997.546 1.679 1.1 2.044.553.365 1.248.548 2.086.548.7 0 1.291-.11 1.774-.33.483-.22.936-.579 1.36-1.075l-.334-.29a2.324 2.324 0 0 1-.45.424.985.985 0 0 1-.533.16.762.762 0 0 1-.707-.386c-.164-.264-.317-.717-.46-1.36l-.547-2.474c-.206-.992-.65-1.735-1.333-2.229-.682-.494-1.735-.802-3.158-.926l-.046-.004.159-.018c.465-.057.89-.137 1.276-.24l.283-.08c.916-.287 1.64-.663 2.168-1.13.53-.467.903-.976 1.121-1.53.219-.552.328-1.099.328-1.64 0-.872-.24-1.62-.722-2.243-.48-.623-1.206-1.101-2.176-1.434-.97-.333-2.195-.5-3.676-.5-.296 0-.802.009-1.516.025-.715.016-1.46.024-2.24.024-.659 0-1.32-.008-1.982-.024-.663-.016-1.197-.032-1.603-.048v.48c.509.016.894.076 1.157.18a.862.862 0 0 1 .525.576c.087.28.13.716.13 1.308V44.41c0 .576-.043 1.008-.13 1.296-.088.288-.26.48-.518.576-.258.096-.646.16-1.164.192v.48c.406-.032.94-.052 1.603-.06a176.723 176.723 0 0 1 4.097 0c.649.008 1.184.028 1.604.06v-.48c-.509-.032-.892-.096-1.15-.192-.258-.096-.433-.288-.525-.576-.092-.288-.137-.72-.137-1.296l-.001-5.52h1.322Zm-1.622-6.383c0-.832.094-1.384.283-1.656.19-.272.599-.408 1.23-.408 1.122 0 1.913.348 2.373 1.044.46.696.69 1.676.69 2.94 0 .736-.09 1.404-.272 2.004a2.67 2.67 0 0 1-1.027 1.44c-.503.36-1.235.54-2.196.54h-1.082Zm26.29 14.448v-.48c-.23-.016-.484-.133-.761-.35-.278-.218-.533-.613-.764-1.186l-5.83-15.03c-.239.017-.498.026-.777.026s-.538-.01-.777-.027l-5.47 14.084c-.333.869-.674 1.482-1.023 1.84-.35.357-.697.571-1.043.643v.48c.24-.032.517-.052.832-.06.315-.008.646-.012.994-.012.495 0 .982.004 1.461.012.48.008.982.028 1.51.06v-.48c-.488-.016-.902-.085-1.243-.206a1.248 1.248 0 0 1-.736-.63c-.149-.3-.188-.723-.119-1.268.07-.545.273-1.248.608-2.107l.67-1.741h5.27l1.447 3.936c.296.753.361 1.264.197 1.533l-.046.063c-.22.248-.737.388-1.553.42v.48c.388-.032.903-.052 1.543-.06a165.029 165.029 0 0 1 3.973 0c.63.008 1.176.028 1.636.06Zm-7.373-6.911h-4.911l2.512-6.528 2.399 6.528Zm16.112 6.965 5.114-13.78c.325-.888.683-1.542 1.075-1.965.393-.422.758-.696 1.097-.821v-.48c-.24.016-.513.032-.82.048-.308.016-.643.024-1.006.024-.486 0-.967-.008-1.443-.024-.475-.016-.985-.032-1.528-.048v.48c.655.016 1.158.171 1.51.467.352.296.523.78.513 1.452-.01.672-.228 1.59-.651 2.752l-3.036 8.168-4.247-10.823c-.19-.492-.284-.875-.282-1.151l.006-.112c.033-.28.191-.471.476-.575.284-.103.685-.162 1.203-.178v-.48c-.389.016-.903.032-1.544.048a82.53 82.53 0 0 1-3.96 0 173.79 173.79 0 0 1-1.65-.048v.48c.24.016.495.13.768.343.274.213.526.61.757 1.193l6.093 15.03a11.916 11.916 0 0 1 1.555 0Zm15.18-.054v-.48c-.507-.032-.89-.096-1.152-.192-.261-.096-.436-.288-.526-.576-.09-.288-.134-.72-.134-1.296V32.507c0-.592.043-1.028.13-1.308a.862.862 0 0 1 .525-.576c.262-.104.648-.164 1.158-.18v-.48c-.421.016-.956.032-1.604.048a88.135 88.135 0 0 1-4.098 0c-.66-.016-1.195-.032-1.603-.048v.48c.509.016.894.076 1.154.18.26.104.436.296.525.576.089.28.134.716.134 1.308V44.41c0 .576-.044 1.008-.133 1.296-.088.288-.26.48-.517.576-.258.096-.645.16-1.163.192v.48c.408-.032.943-.052 1.603-.06a176.24 176.24 0 0 1 4.098 0c.648.008 1.183.028 1.604.06Zm7.139-8.784v-5.928c0-.51.042-.887.125-1.128a.73.73 0 0 1 .488-.482c.242-.079.598-.118 1.069-.118h1.07c.743 0 1.375.137 1.896.413.52.276.943.747 1.268 1.413.325.666.562 1.576.71 2.73h.552c-.016-.19-.032-.43-.048-.717a16.232 16.232 0 0 1-.024-.902 43.12 43.12 0 0 1 .168-3.49 72.65 72.65 0 0 1-2.508.06c-.936.009-1.772.013-2.508.013l-1.983-.001c-.48-.002-.988-.005-1.523-.011l-2.164-.024c-.728-.008-1.421-.02-2.079-.036v.48c.509.016.893.076 1.154.18.26.104.435.296.525.576.089.28.133.716.133 1.308V44.41c0 .576-.044 1.008-.132 1.296-.088.288-.26.48-.518.576-.257.096-.644.16-1.162.192v.48c.653-.016 1.346-.028 2.077-.036l2.167-.024a178.52 178.52 0 0 1 1.994-.012h1.511c.8 0 1.712.004 2.736.012 1.024.008 1.944.028 2.76.06a28.747 28.747 0 0 1-.138-2.068c-.02-.665-.03-1.175-.03-1.53 0-.817.024-1.48.072-1.992h-.552c-.19 1.267-.474 2.267-.851 3.001-.377.735-.843 1.258-1.398 1.57-.555.31-1.205.467-1.95.467h-1.225c-.47 0-.827-.04-1.07-.12a.731.731 0 0 1-.487-.49c-.083-.25-.124-.622-.124-1.12l-.001-6.022h.848c.579 0 1.054.116 1.425.349l.134.092c.388.295.683.684.885 1.167a6.46 6.46 0 0 1 .426 1.56h.552a61.503 61.503 0 0 1-.12-2.088 39.87 39.87 0 0 1-.024-1.32c0-.4-.004-.84-.012-1.32-.008-.48.02-1.176.084-2.088h-.552a7.115 7.115 0 0 1-.27 1.03c-.122.365-.289.71-.5 1.038a2.547 2.547 0 0 1-.81.795c-.328.203-.734.305-1.218.305h-.848Zm16.778.72c.517 0 .916.146 1.196.438.28.292.5.693.663 1.201.162.509.301 1.098.419 1.769l.436 2.4c.18.997.547 1.679 1.1 2.044s1.249.548 2.086.548c.7 0 1.292-.11 1.774-.33.483-.22.936-.579 1.36-1.075l-.333-.29a2.324 2.324 0 0 1-.45.424.985.985 0 0 1-.533.16.762.762 0 0 1-.708-.386c-.163-.264-.316-.717-.459-1.36l-.547-2.474c-.207-.992-.651-1.735-1.334-2.229-.682-.494-1.735-.802-3.158-.926l-.046-.004.16-.018c.464-.057.89-.137 1.276-.24l.282-.08c.917-.287 1.64-.663 2.169-1.13.529-.467.903-.976 1.12-1.53.22-.552.328-1.099.328-1.64 0-.872-.24-1.62-.721-2.243-.481-.623-1.207-1.101-2.177-1.434-.97-.333-2.195-.5-3.675-.5-.297 0-.802.009-1.517.025-.714.016-1.46.024-2.239.024-.66 0-1.32-.008-1.983-.024-.662-.016-1.197-.032-1.603-.048v.48c.51.016.895.076 1.157.18a.862.862 0 0 1 .525.576c.087.28.13.716.13 1.308V44.41c0 .576-.043 1.008-.13 1.296-.087.288-.26.48-.518.576-.258.096-.646.16-1.164.192v.48c.406-.032.94-.052 1.603-.06a176.723 176.723 0 0 1 4.098 0c.648.008 1.183.028 1.604.06v-.48c-.51-.032-.893-.096-1.151-.192s-.433-.288-.525-.576c-.091-.288-.137-.72-.137-1.296v-5.52h1.322Zm-1.622-6.384c0-.832.094-1.384.283-1.656.19-.272.6-.408 1.23-.408 1.123 0 1.914.348 2.373 1.044.46.696.69 1.676.69 2.94 0 .736-.09 1.404-.271 2.004a2.67 2.67 0 0 1-1.027 1.44c-.504.36-1.236.54-2.196.54h-1.082Zm-65.538-10.504 4.626-12.426.001 10.295c0 .395-.028.705-.085.93l-.03.107a.692.692 0 0 1-.451.46c-.224.077-.554.128-.99.154v.384c.27-.026.622-.042 1.057-.048a95.654 95.654 0 0 1 2.736 0c.441.006.81.022 1.104.048v-.384c-.435-.026-.765-.077-.989-.154a.692.692 0 0 1-.451-.46c-.077-.23-.115-.576-.115-1.037v-9.523c0-.474.038-.823.115-1.047a.719.719 0 0 1 .451-.46c.224-.084.554-.132.989-.145v-.384c-.295.013-.663.026-1.104.039-.442.013-.887.019-1.335.019h-.902l-4.13 11.066-4.222-11.124c-.154.01-.334.02-.542.03l-.216.009c-.301.013-.592.019-.874.019-.32 0-.643-.006-.97-.02a43.062 43.062 0 0 1-.816-.038v.384c.436.013.765.061.99.144a.719.719 0 0 1 .45.461c.077.224.116.573.116 1.047v9.33c0 .462-.039.823-.116 1.086a.85.85 0 0 1-.45.556c-.225.11-.554.176-.99.202v.384c.218-.026.49-.042.816-.048a49.462 49.462 0 0 1 2.026 0c.371.006.672.022.902.048v-.384c-.499-.026-.873-.093-1.123-.202a.866.866 0 0 1-.499-.556c-.083-.263-.125-.624-.125-1.085V9.542l4.839 12.461h.307Zm20.985-.096v-.384c-.204-.013-.428-.1-.672-.26-.243-.16-.46-.482-.652-.969l-4.685-12.077h-.307l-4.512 11.636c-.218.576-.461.982-.73 1.219-.269.237-.531.387-.787.451v.384c.192-.026.4-.042.624-.048.224-.006.496-.01.816-.01.333 0 .694.004 1.085.01.39.006.764.022 1.123.048v-.384c-.397-.013-.727-.064-.989-.154s-.448-.236-.557-.441c-.109-.205-.144-.483-.105-.835.038-.352.16-.784.364-1.296l.783-2.035h4.643l1.18 3.148c.232.594.285 1 .158 1.217l-.044.06c-.179.198-.595.31-1.248.336v.384c.27-.026.621-.042 1.056-.048.436-.006.903-.01 1.402-.01.371 0 .742.004 1.114.01.37.006.684.022.94.048Zm-4.7-5.529h-4.353l2.207-5.731 2.145 5.731Zm10.288 5.529v-.384c-.436-.026-.765-.077-.99-.154a.692.692 0 0 1-.45-.46c-.077-.23-.116-.576-.116-1.037v-9.523c0-.474.039-.823.116-1.047a.719.719 0 0 1 .45-.46c.225-.084.554-.132.99-.145v-.384c-.295.013-.663.026-1.104.039a46.055 46.055 0 0 1-2.736 0 60.696 60.696 0 0 1-1.056-.039v.384c.435.013.764.061.988.144a.719.719 0 0 1 .452.461c.076.224.115.573.115 1.047v9.523c0 .46-.039.806-.115 1.037a.692.692 0 0 1-.452.46c-.224.077-.553.128-.988.154v.384c.268-.026.62-.042 1.056-.048a95.654 95.654 0 0 1 2.736 0c.441.006.81.022 1.104.048Zm6.163.269c.742 0 1.42-.135 2.035-.403a3.427 3.427 0 0 0 1.478-1.21c.372-.538.557-1.216.557-2.035 0-.691-.15-1.28-.451-1.767-.3-.486-.71-.93-1.229-1.334a19.8 19.8 0 0 0-1.776-1.22c-.576-.358-1.11-.694-1.603-1.007-.493-.314-.886-.666-1.18-1.056-.295-.39-.442-.874-.442-1.45 0-.665.22-1.203.662-1.613.442-.41 1.002-.614 1.68-.614.717 0 1.296.18 1.738.538.441.358.777.819 1.008 1.382.23.563.364 1.152.403 1.766h.441l.001-.575c.001-.546.004-1.004.009-1.373.006-.493.02-.89.038-1.19.02-.302.036-.56.048-.778h-.441a2.762 2.762 0 0 1-.144.633c-.058.141-.15.211-.279.211a.657.657 0 0 1-.278-.067 4.888 4.888 0 0 1-.374-.201 5.216 5.216 0 0 0-.884-.49c-.332-.147-.819-.22-1.459-.22-.627 0-1.216.118-1.766.354-.55.237-.995.602-1.335 1.095-.339.493-.508 1.117-.508 1.872 0 .717.156 1.328.47 1.833.314.506.733.95 1.258 1.335.524.384 1.088.761 1.69 1.133.6.358 1.126.707 1.574 1.046.448.34.796.704 1.046 1.094.25.39.374.848.374 1.373 0 .602-.121 1.091-.364 1.469a2.174 2.174 0 0 1-.932.826 2.85 2.85 0 0 1-1.2.259c-.819 0-1.475-.202-1.968-.605-.492-.403-.857-.938-1.094-1.603a7.968 7.968 0 0 1-.432-2.15h-.442a211.783 211.783 0 0 1-.028 3.657c-.007.365-.023.682-.048.95h.441c.039-.281.087-.492.144-.633.058-.141.15-.211.279-.211.153 0 .37.09.652.268.282.167.621.327 1.018.48.397.154.934.23 1.613.23Zm12.115 0c1.19 0 2.246-.301 3.168-.903.922-.601 1.642-1.44 2.16-2.515.518-1.075.778-2.33.778-3.763 0-1.472-.253-2.723-.759-3.754-.505-1.03-1.216-1.82-2.131-2.37-.915-.551-1.98-.826-3.197-.826-1.19 0-2.243.3-3.158.902-.915.602-1.635 1.44-2.16 2.515-.525 1.075-.787 2.33-.787 3.763 0 1.46.252 2.708.758 3.744.506 1.037 1.216 1.83 2.131 2.381.915.55 1.981.826 3.197.826Zm.077-.346c-.781 0-1.495-.272-2.141-.816-.646-.544-1.158-1.318-1.536-2.323-.378-1.005-.566-2.186-.566-3.542 0-1.332.17-2.503.508-3.514.34-1.011.816-1.805 1.43-2.38a3.068 3.068 0 0 1 2.17-.865c.794 0 1.51.272 2.15.816.64.544 1.15 1.315 1.527 2.314.378.998.567 2.182.567 3.552 0 1.318-.17 2.486-.51 3.504-.338 1.017-.815 1.814-1.43 2.39a3.068 3.068 0 0 1-2.17.864Zm18.355.173V10.541c0-.474.038-.839.115-1.095a.881.881 0 0 1 .451-.557c.224-.115.554-.179.99-.192v-.384c-.206.013-.471.026-.798.039-.326.013-.656.019-.988.019a44.198 44.198 0 0 1-1.958-.058v.384c.498.013.873.077 1.122.192.25.116.416.301.5.557.083.256.124.621.124 1.095v8.217L246.65 8.313c-.205.013-.435.026-.691.039-.256.013-.525.019-.807.019-.32 0-.643-.006-.97-.02a43.062 43.062 0 0 1-.815-.038v.384c.435.013.764.061.988.144a.719.719 0 0 1 .452.461c.076.224.115.573.115 1.047v9.33c0 .462-.039.823-.115 1.086a.85.85 0 0 1-.452.556c-.224.11-.553.176-.988.202v.384c.217-.026.49-.042.816-.048a49.462 49.462 0 0 1 2.025 0c.371.006.672.022.903.048v-.384c-.5-.026-.874-.093-1.124-.202a.866.866 0 0 1-.499-.556c-.083-.263-.125-.624-.125-1.085V9.542l8.064 12.461h.442Z" fill="#EFC098"/><path stroke="#D59D6C" stroke-width="1.6" stroke-linecap="square" d="M150.4 9.401v35.273"/><path d="m72.36 33.058.14-.24c-.627-.52-1.12-.973-1.48-1.36l-.92-.99a3.097 3.097 0 0 0-.84-.65c-.28-.16-.58-.203-.9-.13-.32.073-.56.263-.72.57a.957.957 0 0 0-.05.8c.1.28.303.507.61.68.293.16.62.283.98.37.36.087.796.197 1.31.33.513.133 1.136.34 1.87.62Zm5.62 15.44v-.4c-.187-.013-.397-.11-.63-.29-.234-.18-.444-.51-.63-.99l-4.86-12.52a11.1 11.1 0 0 1-.69.02 11.1 11.1 0 0 1-.69-.02l-4.56 11.7c-.28.733-.567 1.253-.86 1.56-.294.307-.58.487-.86.54v.4c.2-.027.43-.043.69-.05.26-.007.536-.01.83-.01.413 0 .82.003 1.22.01s.82.023 1.26.05v-.4c-.4-.013-.744-.07-1.03-.17a1.047 1.047 0 0 1-.62-.53c-.127-.253-.16-.613-.1-1.08.06-.467.236-1.067.53-1.8l.53-1.38h4.35l1.2 3.28c.244.623.3 1.048.17 1.273l-.04.057c-.18.207-.61.323-1.29.35v.4c.32-.027.753-.043 1.3-.05a143.043 143.043 0 0 1 3.37 0c.54.007 1.01.023 1.41.05Zm-6.266-5.76h-4.052l2.075-5.406 1.977 5.406Zm17.886 5.76v-.42c-.526 0-.897-.105-1.114-.315-.218-.21-.326-.612-.326-1.205V37.93a5.87 5.87 0 0 1-1.997.76c-.751.146-1.7.233-2.843.26v.44c.506 0 .903.046 1.19.14.288.093.488.293.6.6.113.306.17.78.17 1.42v4.888c0 .653-.166 1.09-.497 1.31-.331.22-.792.33-1.383.33v.42c.346-.013.835-.03 1.467-.05.631-.02 1.289-.03 1.973-.03.546 0 1.076.01 1.59.03.513.02.903.037 1.17.05Zm6.905.28c1.138 0 2.129-.245 2.974-.736a5.237 5.237 0 0 0 1.98-2.012c.475-.85.712-1.81.712-2.876 0-1.067-.232-1.996-.696-2.788a4.815 4.815 0 0 0-1.923-1.842c-.816-.436-1.757-.654-2.82-.654-1.136 0-2.129.249-2.98.746a5.244 5.244 0 0 0-1.979 2.01c-.468.842-.702 1.791-.702 2.848 0 1.07.236 2.003.708 2.798a4.874 4.874 0 0 0 1.943 1.85c.823.437 1.75.656 2.783.656Zm.183-.36c-.458 0-.885-.167-1.282-.5-.396-.333-.715-.867-.955-1.602-.24-.735-.36-1.702-.36-2.902 0-1.627.232-2.897.696-3.812.464-.915 1.053-1.372 1.768-1.372.47 0 .9.165 1.29.496.391.33.706.861.946 1.592.24.73.36 1.696.36 2.896 0 1.627-.229 2.9-.687 3.822-.458.921-1.05 1.382-1.776 1.382Zm21.72.08v-.4c-.42-.027-.738-.08-.954-.16a.697.697 0 0 1-.436-.48c-.074-.24-.11-.6-.11-1.08v-9.92c0-.493.035-.857.107-1.09a.716.716 0 0 1 .434-.48c.217-.087.537-.137.958-.15v-.4c-.328.013-.761.027-1.301.04a70.645 70.645 0 0 1-3.46 0c-.575-.013-1.048-.027-1.419-.04v.4c.422.013.74.063.956.15.215.087.36.247.434.48.073.233.11.597.11 1.09v4.72h-5.3v-4.72c0-.423.027-.75.08-.982l.028-.108a.716.716 0 0 1 .434-.48c.217-.087.537-.137.958-.15v-.4c-.354.013-.806.027-1.354.04a75.92 75.92 0 0 1-3.468 0 96.27 96.27 0 0 1-1.358-.04v.4c.422.013.74.063.956.15.215.087.36.247.434.48.073.233.11.597.11 1.09v9.92c0 .48-.036.84-.109 1.08-.073.24-.215.4-.428.48-.212.08-.533.133-.963.16v.4c.346-.027.799-.043 1.358-.05a151.814 151.814 0 0 1 3.468 0c.548.007 1 .023 1.354.05v-.4c-.42-.027-.737-.08-.953-.16a.697.697 0 0 1-.436-.48c-.074-.24-.11-.6-.11-1.08l-.002-4.8h5.3l.001 4.8c0 .411-.026.735-.08.97l-.029.11c-.073.24-.215.4-.428.48-.212.08-.533.133-.963.16v.4c.371-.027.844-.043 1.418-.05a148.412 148.412 0 0 1 3.46 0c.54.007.974.023 1.302.05Zm-45.199-24c2.181 0 4.044-.39 5.588-1.17 1.544-.78 2.724-1.876 3.538-3.29.815-1.412 1.222-3.063 1.222-4.952 0-2.895-.829-5.118-2.488-6.67-1.658-1.55-4.2-2.326-7.626-2.326-.516 0-1.169.009-1.957.026-.789.017-1.497.035-2.125.052-.728.017-1.456.013-2.186-.013a595.62 595.62 0 0 1-1.766-.065v.52c.548.017.963.082 1.246.195a.93.93 0 0 1 .564.624c.094.303.14.776.14 1.417v12.896c0 .624-.046 1.092-.14 1.404-.094.312-.279.52-.556.624-.278.104-.695.173-1.254.208v.52a28.212 28.212 0 0 1 1.766-.065c.73-.009 1.476-.013 2.238-.013a74.333 74.333 0 0 1 2.718.052c.449.017.808.026 1.078.026Zm.234-.468c-.797 0-1.321-.147-1.573-.442-.25-.295-.377-.893-.377-1.794v-13c0-.901.122-1.5.364-1.794.243-.295.763-.442 1.56-.442 1.408 0 2.537.316 3.388.949s1.47 1.586 1.857 2.86c.386 1.274.58 2.882.58 4.823 0 1.89-.18 3.493-.539 4.81-.358 1.317-.959 2.318-1.801 3.003-.843.685-1.996 1.027-3.459 1.027ZM91.155 4.426c.97-.364 1.785-.633 2.444-.806a84.606 84.606 0 0 1 1.69-.43 5.179 5.179 0 0 0 1.274-.48c.398-.225.663-.52.793-.884s.108-.71-.065-1.04a1.291 1.291 0 0 0-.923-.741 1.599 1.599 0 0 0-1.183.169c-.399.208-.763.49-1.092.845-.33.355-.724.784-1.183 1.287-.46.503-1.105 1.092-1.937 1.768Zm.519 10.556V8.534c0-.537.044-.936.13-1.196a.781.781 0 0 1 .52-.52c.26-.087.642-.13 1.145-.13h1.066c.78 0 1.46.152 2.04.455.581.303 1.054.823 1.418 1.56.364.737.632 1.738.806 3.003h.598a29.154 29.154 0 0 1-.052-.78 17.843 17.843 0 0 1-.026-.988A48.173 48.173 0 0 1 99.5 6.09c-.798.035-1.703.056-2.717.065-1.014.009-1.92.013-2.717.013h-2.181c-.527-.002-1.082-.007-1.667-.013l-2.366-.026c-.798-.009-1.552-.022-2.262-.04v.52c.537.018.949.083 1.235.196.286.113.476.32.572.624.095.303.143.776.143 1.417v12.896c0 .624-.048 1.092-.143 1.404-.096.312-.282.52-.56.624-.277.104-.693.173-1.247.208v.52c.71-.017 1.464-.03 2.262-.04l2.366-.025c.78-.009 1.508-.013 2.184-.013h1.664c.866 0 1.854.004 2.964.013 1.109.009 2.106.03 2.99.065a26.13 26.13 0 0 1-.156-2.262 75.98 75.98 0 0 1-.026-1.69c0-.901.026-1.63.078-2.184h-.598c-.226 1.387-.55 2.487-.975 3.302-.425.815-.936 1.39-1.534 1.729-.598.338-1.287.507-2.067.507h-1.274c-.503 0-.884-.043-1.144-.13a.781.781 0 0 1-.52-.52c-.087-.26-.13-.659-.13-1.196l-.001-6.552h.833c.616 0 1.13.127 1.54.38l.15.1c.433.322.767.742 1 1.262a6.25 6.25 0 0 1 .482 1.69h.598c-.031-.44-.057-.832-.077-1.179l-.027-.485a43.192 43.192 0 0 1-.052-2.028c0-.433-.005-.91-.013-1.43-.009-.52.021-1.274.09-2.262h-.597c-.07.347-.174.72-.312 1.118a5.089 5.089 0 0 1-.56 1.13 2.738 2.738 0 0 1-.896.859c-.364.217-.806.325-1.326.325h-.833Zm19.797 9.88c1.127 0 2.05-.17 2.769-.507.72-.338 1.4-.732 2.041-1.183.381-.243.654-.269.819-.078.165.19.282.659.351 1.404h.598c-.035-.69-.06-1.542-.078-2.556-.014-.83-.023-1.872-.025-3.128l-.001-.868h-.598c-.121 1.276-.302 2.302-.543 3.078-.241.777-.698 1.427-1.37 1.95a4.04 4.04 0 0 1-1.495.939 5.035 5.035 0 0 1-1.735.32c-.925 0-1.725-.242-2.397-.726-.672-.483-1.221-1.14-1.646-1.97-.424-.83-.737-1.779-.938-2.845a18.024 18.024 0 0 1-.302-3.346c0-1.144.095-2.25.286-3.32.19-1.07.491-2.027.902-2.87.411-.845.946-1.516 1.605-2.013.658-.498 1.454-.746 2.386-.746.62 0 1.216.105 1.786.317.57.211 1.072.532 1.506.962.45.354.799.744 1.045 1.17.246.426.437.923.572 1.49.135.567.248 1.249.338 2.046h.598v-.837c.003-1.209.012-2.208.026-2.998.017-.966.043-1.785.078-2.457h-.598c-.07.745-.195 1.218-.377 1.417-.182.2-.446.169-.793-.091a9.675 9.675 0 0 0-1.963-1.183c-.737-.338-1.677-.507-2.821-.507-1.8 0-3.389.407-4.768 1.222-1.38.815-2.464 1.95-3.253 3.406-.789 1.456-1.183 3.155-1.183 5.096 0 1.976.381 3.666 1.144 5.07.763 1.404 1.834 2.479 3.214 3.224 1.38.745 2.986 1.118 4.82 1.118Zm11.56 0c.669 0 1.204-.178 1.606-.533.403-.355.604-.847.604-1.474 0-.628-.201-1.12-.604-1.475-.402-.355-.937-.533-1.606-.533-.68 0-1.218.178-1.615.533-.397.356-.595.847-.595 1.475 0 .627.198 1.119.595 1.474.397.355.935.533 1.615.533ZM15.347 3.008v32.63c0 2.469.546 4.14 1.639 5.014 1.092.874 2.93 1.312 5.513 1.312v1.62c-.994-.052-2.446-.116-4.359-.193a147.02 147.02 0 0 0-5.922-.116c-2.285 0-4.483.038-6.593.116-2.111.077-3.738.141-4.88.192v-1.62c2.483 0 4.42-.424 5.81-1.272 1.392-.849 2.087-2.533 2.087-5.053V16.971c0-2.469-.248-4.295-.745-5.477C7.4 10.31 6.519 9.54 5.252 9.18 3.986 8.82 2.235 8.64 0 8.64V6.942c3.576-.102 6.556-.437 8.94-1.002 2.384-.566 4.52-1.543 6.407-2.932ZM48.946 0c0 2.931.024 5.22.074 6.865.05 1.646.124 3.112.224 4.397-.398-.103-1.155-.18-2.273-.231-1.117-.052-2.396-.09-3.836-.116a237.95 237.95 0 0 0-4.247-.038h-7.897l-.894 14.887a31.114 31.114 0 0 1 3.65-1.581c1.342-.489 3.03-.733 5.067-.733 3.03 0 5.513.514 7.45 1.543 1.937 1.029 3.377 2.443 4.32 4.243.944 1.8 1.416 3.83 1.416 6.094 0 2.982-.72 5.682-2.16 8.1-1.44 2.416-3.365 4.486-5.774 6.209a28.575 28.575 0 0 1-7.934 3.973c-2.88.925-5.786 1.388-8.717 1.388v-1.388a18.9 18.9 0 0 0 6.407-1.119 17.186 17.186 0 0 0 5.625-3.317c1.664-1.466 2.992-3.278 3.986-5.438.993-2.16 1.49-4.706 1.49-7.637 0-3.24-.807-5.773-2.422-7.598-1.614-1.826-3.936-2.739-6.965-2.739-1.291 0-2.372.116-3.24.348-.87.23-1.826.552-2.87.964l-.744-.463 1.415-22.987c.547.102 1.18.18 1.9.23.72.052 1.428.078 2.123.078h8.419c2.036 0 3.327-.296 3.874-.887.546-.591.918-1.607 1.117-3.047h1.416Z" fill="#E05D5D" fill-rule="nonzero"/></g></svg>