<?xml version="1.0" encoding="utf-8"?>
<!-- Generator: Adobe Illustrator 16.0.0, SVG Export Plug-In . SVG Version: 6.00 Build 0)  -->
<!DOCTYPE svg PUBLIC "-//W3C//DTD SVG 1.1//EN" "http://www.w3.org/Graphics/SVG/1.1/DTD/svg11.dtd">
<svg version="1.1" id="Calque_1" xmlns="http://www.w3.org/2000/svg" xmlns:xlink="http://www.w3.org/1999/xlink" x="0px" y="0px"
	 width="1096.353px" height="106.505px" viewBox="0 0 1096.353 106.505" enable-background="new 0 0 1096.353 106.505"
	 xml:space="preserve">
<g>
	<g id="GERLAND">
		<path fill="#FFFFFF" d="M547.923,20.394h41.586v5.123h-35.982v24.337h35.293v5.123h-35.293v26.01h35.982v5.123h-41.586V20.394z"/>
		<path fill="#FFFFFF" d="M617.525,58.918h-14.453v27.191h-5.604V20.394h24.48c11.305,0,19.957,7.192,19.957,19.214
			c0,11.92-8.455,18.521-18.188,18.916l18.975,27.586h-6.785L617.525,58.918z M621.457,25.517h-18.385v28.278h18.385
			c8.652,0,14.551-5.912,14.551-14.188C636.007,31.33,630.109,25.517,621.457,25.517z"/>
		<path fill="#FFFFFF" d="M649.964,20.394h5.604v60.593h31.754v5.123h-37.357V20.394z"/>
		<path fill="#FFFFFF" d="M737.707,69.951h-34.902l-6.586,16.158h-6.293l26.84-65.716h6.98l26.84,65.716h-6.293L737.707,69.951z
			 M704.574,64.828h31.363l-15.73-38.917L704.574,64.828z"/>
		<path fill="#FFFFFF" d="M759.919,29.359v56.75h-5.604V20.394h5.701l41.096,55.962V20.394h5.604v65.716h-5.506L759.919,29.359z"/>
		<path fill="#FFFFFF" d="M817.132,20.394h20.939c20.352,0,33.131,14.878,33.131,32.907c0,18.227-12.779,32.809-33.131,32.809
			h-20.939V20.394z M838.072,80.986c17.303,0,27.232-12.316,27.232-27.686s-9.83-27.784-27.232-27.784h-15.336v55.47H838.072z"/>
		<path fill="#FFFFFF" d="M494.654,33.08c4.939-5.464,12.01-8.647,20.043-8.647c8.357,0,15.828,3.646,20.449,9.163l4.229-3.053
			c-5.998-6.898-13.863-11.233-24.678-11.233c-7.535,0-14.475,2.305-20.043,6.419V33.08z"/>
		<path fill="#FFFFFF" d="M509.191,53.498v5.025h24.775v15.764c-3.637,3.645-10.52,7.98-19.27,7.98
			c-8.033,0-15.104-3.263-20.043-8.776v7.445c5.568,4.133,12.508,6.454,20.043,6.454c10.324,0,19.072-4.434,24.873-10.936V53.498
			H509.191z"/>
	</g>
	<g id="LYON">
		<path fill="#FFFFFF" d="M275.312,20.394h9.832v57.046h29.789v8.67h-39.62V20.394z"/>
		<path fill="#FFFFFF" d="M326.531,58.623l-25.66-38.229h11.306l19.269,29.36l19.074-29.36h11.404l-25.562,38.229v27.486h-9.83
			V58.623z"/>
		<path fill="#FFFFFF" d="M390.234,19.31c19.562,0,33.031,14.483,33.031,33.991s-13.469,33.992-33.031,33.992
			c-19.564,0-33.033-14.484-33.033-33.992S370.669,19.31,390.234,19.31z M390.234,28.078c-14.059,0-22.908,10.74-22.908,25.223
			c0,14.385,8.85,25.223,22.908,25.223c13.861,0,22.906-10.838,22.906-25.223C413.14,38.818,404.095,28.078,390.234,28.078z"/>
		<path fill="#FFFFFF" d="M439.089,35.666v50.443h-9.83V20.394h10.125l35.688,49.263V20.394h9.832v65.716h-9.537L439.089,35.666z"/>
	</g>
	<g id="ÉGLISE">
		<path fill="#FFFFFF" d="M0,20.395h41.579v5.123H5.603v24.337h35.288v5.122H5.603v26.01h35.976v5.124H0V20.395z"/>
		<path fill="#FFFFFF" d="M80.305,19.312c10.812,0,18.677,4.334,24.672,11.232l-4.227,3.054c-4.619-5.519-12.09-9.163-20.445-9.163
			c-15.433,0-27.325,11.725-27.325,28.866c0,16.946,11.893,28.966,27.325,28.966c8.748,0,15.628-4.334,19.266-7.981V58.523H74.803
			v-5.024h30.369v22.957c-5.798,6.501-14.547,10.935-24.867,10.935c-18.381,0-33.225-13.793-33.225-34.09
			C47.08,33.006,61.924,19.312,80.305,19.312z"/>
		<path fill="#FFFFFF" d="M113.525,20.395h5.604v60.592h31.748v5.124h-37.352V20.395z"/>
		<path fill="#FFFFFF" d="M157.166,20.395h5.604V86.11h-5.604V20.395z"/>
		<path fill="#FFFFFF" d="M173.188,72.611c4.226,4.928,11.105,9.558,20.443,9.558c13.466,0,17.302-7.487,17.302-13.103
			c0-9.262-8.749-11.824-17.989-14.286c-10.321-2.857-21.33-5.812-21.33-17.932c0-10.739,9.633-17.537,21.527-17.537
			c9.83,0,17.103,3.449,22.216,9.26l-3.734,4.139c-4.72-5.713-11.404-8.275-18.776-8.275c-8.748,0-15.333,5.025-15.333,12.119
			c0,7.783,8.157,10.048,17.104,12.414c10.614,3.054,22.214,6.403,22.214,19.704c0,8.473-5.604,18.621-23.297,18.621
			c-10.813,0-18.972-4.336-23.984-10.445L173.188,72.611z"/>
		<path fill="#FFFFFF" d="M224.397,20.395h41.58v5.123H230v24.337h35.289v5.122H230v26.01h35.978v5.124h-41.58V20.395z"/>
		<polygon fill="#FFFFFF" points="18.971,14.188 34.108,0 40.203,0 23.296,14.188 		"/>
	</g>
	<g>
		<g>
			<g id="ÉVANGÉLIQUE">
				<path fill="#FFFFFF" d="M911.257,60.132h12.285v1.51h-10.63v7.181h10.423v1.512h-10.423v7.668h10.63v1.513h-12.285V60.132z
					 M916.864,58.506l4.471-4.185h1.803l-4.998,4.185H916.864z"/>
				<path fill="#FFFFFF" d="M925.66,60.132h1.915l7.026,17.521l7.061-17.521h1.914l-7.927,19.383h-2.062L925.66,60.132z"/>
				<path fill="#FFFFFF" d="M956.901,74.749h-10.308l-1.945,4.766h-1.86l7.929-19.383h2.064l7.925,19.383h-1.857L956.901,74.749z
					 M947.113,73.239h9.265l-4.646-11.481L947.113,73.239z"/>
				<path fill="#FFFFFF" d="M965.202,62.778v16.736h-1.656V60.132h1.686l12.14,16.505V60.132h1.655v19.383H977.4L965.202,62.778z"/>
				<path fill="#FFFFFF" d="M992.931,59.816c3.197,0,5.519,1.276,7.29,3.31l-1.249,0.902c-1.365-1.626-3.571-2.701-6.041-2.701
					c-4.555,0-8.073,3.457-8.073,8.515c0,4.995,3.519,8.541,8.073,8.541c2.586,0,4.618-1.276,5.693-2.354v-4.65h-7.319v-1.477h8.973
					v6.765c-1.711,1.916-4.298,3.229-7.347,3.229c-5.429,0-9.812-4.071-9.812-10.054C983.119,63.853,987.502,59.816,992.931,59.816z
					"/>
				<path fill="#FFFFFF" d="M1004.484,60.132h12.287v1.51h-10.629v7.181h10.424v1.512h-10.424v7.668h10.629v1.513h-12.287V60.132z
					 M1010.09,58.506l4.476-4.185h1.799l-4.997,4.185H1010.09z"/>
				<path fill="#FFFFFF" d="M1020.86,60.132h1.653v17.87h9.382v1.513h-11.035V60.132z"/>
				<path fill="#FFFFFF" d="M1035.492,60.132h1.658v19.383h-1.658V60.132z"/>
				<path fill="#FFFFFF" d="M1057.331,77.132l2.005,2.123l-1.132,1.046l-2.067-2.122c-1.477,1.076-3.364,1.684-5.485,1.684
					c-5.69,0-9.409-4.358-9.409-10.021c0-5.669,3.719-10.025,9.409-10.025c5.662,0,9.41,4.356,9.41,10.025
					C1060.061,72.746,1059.075,75.329,1057.331,77.132z M1055.037,77.015l-2.99-3.108l1.162-1.076l2.99,3.14
					c1.331-1.539,2.119-3.662,2.119-6.128c0-4.941-3.02-8.515-7.667-8.515c-4.703,0-7.667,3.573-7.667,8.515
					c0,4.879,2.964,8.51,7.667,8.51C1052.337,78.352,1053.819,77.859,1055.037,77.015z"/>
				<path fill="#FFFFFF" d="M1064.152,60.132h1.684v11.917c0,3.921,2.064,6.303,5.867,6.303c3.832,0,5.864-2.382,5.864-6.303V60.132
					h1.683v11.941c0,4.799-2.553,7.789-7.547,7.789c-4.968,0-7.551-3.022-7.551-7.789V60.132z"/>
				<path fill="#FFFFFF" d="M1084.066,60.132h12.287v1.51h-10.628v7.181h10.42v1.512h-10.42v7.668h10.628v1.513h-12.287V60.132z"/>
			</g>
			<g id="RÉFORMÉE">
				<path fill="#FFFFFF" d="M917.183,38.079h-4.271v8.021h-1.655V26.719h7.231c3.341,0,5.896,2.122,5.896,5.668
					c0,3.515-2.501,5.461-5.375,5.576l5.608,8.138h-2.007L917.183,38.079z M918.344,28.229h-5.432v8.339h5.432
					c2.557,0,4.296-1.742,4.296-4.182C922.64,29.943,920.901,28.229,918.344,28.229z"/>
				<path fill="#FFFFFF" d="M928.504,26.719h12.285v1.511h-10.631v7.177h10.426v1.512h-10.426v7.672h10.631v1.511h-12.285V26.719z"
					/>
				<path fill="#FFFFFF" d="M944.878,26.719h12.286v1.511h-10.631v7.177h10.424v1.512h-10.424v9.183h-1.655V26.719z"/>
				<path fill="#FFFFFF" d="M969.3,26.399c5.662,0,9.41,4.359,9.41,10.024c0,5.668-3.748,10.025-9.41,10.025
					c-5.694,0-9.412-4.357-9.412-10.025C959.888,30.759,963.606,26.399,969.3,26.399z M969.3,27.91
					c-4.709,0-7.668,3.573-7.668,8.514c0,4.882,2.959,8.516,7.668,8.516c4.643,0,7.663-3.634,7.663-8.516
					C976.963,31.483,973.943,27.91,969.3,27.91z"/>
				<path fill="#FFFFFF" d="M988.722,38.079h-4.269v8.021h-1.659V26.719h7.234c3.338,0,5.894,2.122,5.894,5.668
					c0,3.515-2.497,5.461-5.372,5.576l5.605,8.138h-2.003L988.722,38.079z M989.882,28.229h-5.429v8.339h5.429
					c2.559,0,4.298-1.742,4.298-4.182C994.18,29.943,992.441,28.229,989.882,28.229z"/>
				<path fill="#FFFFFF" d="M1016.48,28.898l-7.057,17.202h-0.639l-7.085-17.202v17.202h-1.658V26.719h2.47l6.592,16.069
					l6.565-16.069h2.497v19.382h-1.686V28.898z"/>
				<path fill="#FFFFFF" d="M1022.979,26.719h12.286v1.511h-10.629v7.177h10.425v1.512h-10.425v7.672h10.629v1.511h-12.286V26.719z"
					/>
				<path fill="#FFFFFF" d="M1039.355,26.719h12.287v1.511h-10.632v7.177h10.425v1.512h-10.425v7.672h10.632v1.511h-12.287V26.719z"
					/>
				<polygon fill="#FFFFFF" points="934.105,24.109 938.578,19.924 940.378,19.924 935.381,24.109 				"/>
				<polygon fill="#FFFFFF" points="1028.591,24.109 1033.061,19.924 1034.863,19.924 1029.868,24.109 				"/>
			</g>
		</g>
		<rect x="888.372" y="26.719" fill="#FFFFFF" width="2.5" height="52.796"/>
	</g>
</g>
</svg>
