<?xml version="1.0" encoding="utf-8"?>
<!-- Generator: Adobe Illustrator 16.0.0, SVG Export Plug-In . SVG Version: 6.00 Build 0)  -->
<!DOCTYPE svg PUBLIC "-//W3C//DTD SVG 1.1//EN" "http://www.w3.org/Graphics/SVG/1.1/DTD/svg11.dtd">
<svg version="1.1" xmlns="http://www.w3.org/2000/svg" xmlns:xlink="http://www.w3.org/1999/xlink" x="0px" y="0px"
	 width="2714.434px" height="272.125px" viewBox="0 0 2714.434 272.125" enable-background="new 0 0 2714.434 272.125"
	 xml:space="preserve">
<g id="Calque_2">
</g>
<g id="Calque_3">
	<path fill="#1A3B4D" d="M0,61.848h130.844V77.93H17.627v76.371h111.049v16.092H17.627v81.633h113.217v16.086H0V61.848z
		 M59.695,44.529L107.338,0h19.172L73.309,44.529H59.695z"/>
	<path fill="#1A3B4D" d="M246.516,58.448c34.031,0,58.773,13.6,77.645,35.251l-13.305,9.584
		c-14.543-17.314-38.047-28.759-64.34-28.759c-48.562,0-85.994,36.804-85.994,90.61c0,53.188,37.432,90.909,85.994,90.909
		c27.531,0,49.182-13.603,60.629-25.046v-49.479h-77.947v-15.765h95.584v72.053c-18.26,20.404-45.781,34.319-78.266,34.319
		c-57.842,0-104.551-43.297-104.551-106.991C141.965,101.43,188.674,58.448,246.516,58.448z"/>
	<path fill="#1A3B4D" d="M344.873,61.848H362.5v190.178h99.906v16.086H344.873V61.848z"/>
	<path fill="#1A3B4D" d="M476.012,61.848h17.635v206.264h-17.635V61.848z"/>
	<path fill="#1A3B4D" d="M520.246,225.739c13.297,15.467,34.953,30.004,64.338,30.004c42.371,0,54.443-23.506,54.443-41.131
		c0-29.074-27.537-37.11-56.611-44.842c-32.477-8.967-67.125-18.244-67.125-56.279c0-33.707,30.312-55.042,67.748-55.042
		c30.928,0,53.818,10.822,69.902,29.067l-11.754,12.99c-14.848-17.938-35.883-25.981-59.08-25.981
		c-27.531,0-48.26,15.774-48.26,38.036c0,24.435,25.68,31.543,53.826,38.966c33.41,9.584,69.91,20.101,69.91,61.841
		c0,26.6-17.635,58.451-73.314,58.451c-34.025,0-59.701-13.607-75.471-32.782L520.246,225.739z"/>
	<path fill="#1A3B4D" d="M675.199,61.848h130.85V77.93H692.834v76.371h111.045v16.092H692.834v81.633h113.215v16.086h-130.85V61.848
		z"/>
	<path fill="#1A3B4D" d="M846.863,61.848h30.93v179.049h93.727v27.215H846.863V61.848z"/>
	<path fill="#1A3B4D" d="M1001.828,181.833L921.094,61.848h35.572l60.627,92.156l60.008-92.156h35.875l-80.42,119.985v86.279
		h-30.928V181.833z"/>
	<path fill="#1A3B4D" d="M1196.066,58.448c61.555,0,103.939,45.451,103.939,106.686c0,61.226-42.385,106.684-103.939,106.684
		c-61.553,0-103.93-45.458-103.93-106.684C1092.137,103.899,1134.514,58.448,1196.066,58.448z M1196.066,85.969
		c-44.232,0-72.068,33.706-72.068,79.165c0,45.142,27.836,79.165,72.068,79.165c43.615,0,72.08-34.023,72.08-79.165
		C1268.146,119.675,1239.682,85.969,1196.066,85.969z"/>
	<path fill="#1A3B4D" d="M1343.602,109.783v158.329h-30.934V61.848h31.859l112.287,154.614V61.848h30.938v206.264h-30.006
		L1343.602,109.783z"/>
	<path fill="#1A3B4D" d="M1620.74,58.448c34.027,0,58.77,13.6,77.637,35.251l-13.297,9.584
		c-14.537-17.314-38.047-28.759-64.34-28.759c-48.561,0-85.99,36.804-85.99,90.61c0,53.188,37.43,90.909,85.99,90.909
		c27.533,0,49.188-13.603,60.629-25.046v-49.479h-77.949v-15.765h95.582v72.053c-18.25,20.404-45.781,34.319-78.262,34.319
		c-57.846,0-104.549-43.297-104.549-106.991C1516.191,101.43,1562.895,58.448,1620.74,58.448z"/>
	<path fill="#1A3B4D" d="M1719.094,61.848h130.844V77.93h-113.219v76.371h111.051v16.092h-111.051v81.633h113.219v16.086h-130.844
		V61.848z"/>
	<path fill="#1A3B4D" d="M1931.891,182.761h-45.473v85.351h-17.627V61.848h77.018c35.576,0,62.797,22.575,62.797,60.304
		c0,37.413-26.604,58.131-57.229,59.367l59.699,86.594h-21.344L1931.891,182.761z M1944.262,77.93h-57.844v88.747h57.844
		c27.223,0,45.783-18.559,45.783-44.526C1990.045,96.169,1971.484,77.93,1944.262,77.93z"/>
	<path fill="#1A3B4D" d="M2027.773,61.848h17.627v190.178h99.914v16.086h-117.541V61.848z"/>
	<path fill="#1A3B4D" d="M2312.963,217.391h-109.807l-20.732,50.721h-19.793l84.447-206.264h21.957l84.445,206.264h-19.799
		L2312.963,217.391z M2208.713,201.315h98.678l-49.488-122.152L2208.713,201.315z"/>
	<path fill="#1A3B4D" d="M2376.658,89.985v178.126h-17.627V61.848h17.945l129.295,175.642V61.848h17.629v206.264h-17.32
		L2376.658,89.985z"/>
	<path fill="#1A3B4D" d="M2544.305,61.848h65.887c64.025,0,104.242,46.689,104.242,103.287c0,57.21-40.217,102.978-104.242,102.978
		h-65.887V61.848z M2610.191,252.026c54.438,0,85.68-38.659,85.68-86.892c0-48.244-30.93-87.204-85.68-87.204h-48.258v174.096
		H2610.191z"/>
</g>
</svg>
