<?xml version="1.0" encoding="utf-8"?>
<!-- Generator: Adobe Illustrator 16.0.0, SVG Export Plug-In . SVG Version: 6.00 Build 0)  -->
<!DOCTYPE svg PUBLIC "-//W3C//DTD SVG 1.1//EN" "http://www.w3.org/Graphics/SVG/1.1/DTD/svg11.dtd">
<svg version="1.1" xmlns="http://www.w3.org/2000/svg" xmlns:xlink="http://www.w3.org/1999/xlink" x="0px" y="0px"
	 width="3348.615px" height="272.125px" viewBox="0 0 3348.615 272.125" enable-background="new 0 0 3348.615 272.125"
	 xml:space="preserve">
<g id="Calque_2">
</g>
<g id="Calque_3">
	<path fill="#193B4D" d="M0,61.848h130.844V77.93H17.627v76.371h111.049v16.092H17.627v81.633h113.217v16.086H0V61.848z
		 M59.695,44.529L107.338,0h19.172L73.309,44.529H59.695z"/>
	<path fill="#193B4D" d="M246.516,58.448c34.031,0,58.773,13.6,77.645,35.251l-13.305,9.584
		c-14.543-17.314-38.047-28.759-64.34-28.759c-48.562,0-85.994,36.804-85.994,90.61c0,53.188,37.432,90.909,85.994,90.909
		c27.531,0,49.182-13.603,60.629-25.046v-49.479h-77.947v-15.765h95.584v72.053c-18.26,20.404-45.781,34.319-78.266,34.319
		c-57.842,0-104.551-43.297-104.551-106.991C141.965,101.43,188.674,58.448,246.516,58.448z"/>
	<path fill="#193B4D" d="M344.873,61.848H362.5v190.178h99.906v16.086H344.873V61.848z"/>
	<path fill="#193B4D" d="M476.012,61.848h17.635v206.264h-17.635V61.848z"/>
	<path fill="#193B4D" d="M520.246,225.739c13.297,15.467,34.953,30.004,64.338,30.004c42.371,0,54.443-23.506,54.443-41.131
		c0-29.074-27.537-37.11-56.611-44.842c-32.477-8.967-67.125-18.244-67.125-56.279c0-33.707,30.312-55.042,67.748-55.042
		c30.928,0,53.818,10.822,69.902,29.067l-11.754,12.99c-14.848-17.938-35.883-25.981-59.08-25.981
		c-27.531,0-48.26,15.774-48.26,38.036c0,24.435,25.68,31.543,53.826,38.966c33.41,9.584,69.91,20.101,69.91,61.841
		c0,26.6-17.635,58.451-73.314,58.451c-34.025,0-59.701-13.607-75.471-32.782L520.246,225.739z"/>
	<path fill="#193B4D" d="M675.199,61.848h130.85V77.93H692.834v76.371h111.045v16.092H692.834v81.633h113.215v16.086h-130.85V61.848
		z"/>
	<path fill="#193B4D" d="M846.863,61.848h30.93v179.049h93.727v27.215H846.863V61.848z"/>
	<path fill="#193B4D" d="M1001.828,181.833L921.094,61.848h35.572l60.627,92.156l60.008-92.156h35.875l-80.42,119.985v86.279
		h-30.928V181.833z"/>
	<path fill="#193B4D" d="M1196.066,58.448c61.555,0,103.939,45.451,103.939,106.686c0,61.226-42.385,106.684-103.939,106.684
		c-61.553,0-103.93-45.458-103.93-106.684C1092.137,103.899,1134.514,58.448,1196.066,58.448z M1196.066,85.969
		c-44.232,0-72.068,33.706-72.068,79.165c0,45.142,27.836,79.165,72.068,79.165c43.615,0,72.08-34.023,72.08-79.165
		C1268.146,119.675,1239.682,85.969,1196.066,85.969z"/>
	<path fill="#193B4D" d="M1343.602,109.783v158.329h-30.934V61.848h31.859l112.287,154.614V61.848h30.938v206.264h-30.006
		L1343.602,109.783z"/>
	<path fill="#193B4D" d="M1620.74,58.448c34.027,0,58.77,13.6,77.637,35.251l-13.297,9.584
		c-14.537-17.314-38.047-28.759-64.34-28.759c-48.561,0-85.99,36.804-85.99,90.61c0,53.188,37.43,90.909,85.99,90.909
		c27.533,0,49.188-13.603,60.629-25.046v-49.479h-77.949v-15.765h95.582v72.053c-18.25,20.404-45.781,34.319-78.262,34.319
		c-57.846,0-104.549-43.297-104.549-106.991C1516.191,101.43,1562.895,58.448,1620.74,58.448z"/>
	<path fill="#193B4D" d="M1719.094,61.848h130.844V77.93h-113.219v76.371h111.051v16.092h-111.051v81.633h113.219v16.086h-130.844
		V61.848z"/>
	<path fill="#193B4D" d="M1931.891,182.761h-45.473v85.351h-17.627V61.848h77.018c35.576,0,62.797,22.575,62.797,60.304
		c0,37.413-26.604,58.131-57.229,59.367l59.699,86.594h-21.344L1931.891,182.761z M1944.262,77.93h-57.844v88.747h57.844
		c27.223,0,45.783-18.559,45.783-44.526C1990.045,96.169,1971.484,77.93,1944.262,77.93z"/>
	<path fill="#193B4D" d="M2027.773,61.848h17.627v190.178h99.914v16.086h-117.541V61.848z"/>
	<path fill="#193B4D" d="M2312.963,217.391h-109.807l-20.732,50.721h-19.793l84.447-206.264h21.957l84.445,206.264h-19.799
		L2312.963,217.391z M2208.713,201.315h98.678l-49.488-122.152L2208.713,201.315z"/>
	<path fill="#193B4D" d="M2376.658,89.985v178.126h-17.627V61.848h17.945l129.295,175.642V61.848h17.629v206.264h-17.32
		L2376.658,89.985z"/>
	<path fill="#193B4D" d="M2544.305,61.848h65.887c64.025,0,104.242,46.689,104.242,103.287c0,57.21-40.217,102.978-104.242,102.978
		h-65.887V61.848z M2610.191,252.026c54.438,0,85.68-38.659,85.68-86.892c0-48.244-30.93-87.204-85.68-87.204h-48.258v174.096
		H2610.191z"/>
</g>
<g id="Calque_4">
	<g>
		<path fill="#193B4D" d="M2868.658,186.209h40.23v7.902h-31.25v17.511h30.621v7.902h-30.621v18.679h31.25v7.902h-40.23V186.209z
			 M2886.08,181.182l12.931-12.933h7.992l-14.997,12.933H2886.08z"/>
		<path fill="#193B4D" d="M2913.557,202.732h8.62l13.561,34.034l13.56-34.034h8.71l-17.87,43.374h-8.711L2913.557,202.732z"/>
		<path fill="#193B4D" d="M2991.32,241.346c-3.412,3.771-8.352,5.837-14.188,5.837c-7.184,0-15.086-4.85-15.086-14.368
			c0-9.878,7.812-14.188,15.086-14.188c5.836,0,10.865,1.887,14.188,5.747v-7.185c0-5.387-4.399-8.62-10.596-8.62
			c-4.938,0-9.16,1.886-13.021,5.746l-3.502-5.565c4.849-4.76,10.774-7.095,17.779-7.095c9.429,0,17.421,4.13,17.421,15.175v29.275
			h-8.082V241.346z M2991.32,229.224c-2.424-3.233-6.645-4.939-11.135-4.939c-5.836,0-9.968,3.502-9.968,8.62
			c0,5.119,4.132,8.621,9.968,8.621c4.49,0,8.711-1.707,11.135-4.938V229.224z"/>
		<path fill="#193B4D" d="M3041.607,218.358c0-7.184-3.683-9.518-9.25-9.518c-5.029,0-9.609,3.053-11.943,6.285v30.98h-8.082
			v-43.374h8.082v6.108c2.874-3.504,8.621-7.185,15.355-7.185c9.16,0,13.919,4.85,13.919,14.009v30.441h-8.081V218.358z"/>
		<path fill="#193B4D" d="M3066.029,251.314c3.593,4.131,7.992,5.748,13.92,5.748c6.734,0,13.471-3.234,13.471-12.394v-5.657
			c-3.324,4.312-8.441,7.453-14.279,7.453c-11.225,0-19.307-8.261-19.307-22.449c0-13.919,8.082-22.359,19.307-22.359
			c5.658,0,10.777,2.694,14.279,7.364v-6.288h8.08v41.667c0,14.907-10.865,19.308-21.551,19.308c-7.273,0-12.572-1.527-17.779-6.465
			L3066.029,251.314z M3093.42,215.215c-2.246-3.502-7.185-6.375-12.034-6.375c-8.081,0-13.11,6.285-13.11,15.175
			c0,8.979,5.029,15.266,13.11,15.266c4.85,0,9.788-2.963,12.034-6.466V215.215z"/>
		<path fill="#193B4D" d="M3133.377,201.656c13.021,0,21.103,10.147,21.103,23.438v1.976h-34.303
			c0.629,7.363,6.017,13.47,14.727,13.47c4.581,0,9.608-1.796,12.841-5.119l3.772,5.299c-4.31,4.22-10.417,6.465-17.421,6.465
			c-12.932,0-22.449-9.159-22.449-22.809C3111.646,211.803,3120.716,201.656,3133.377,201.656z M3120.086,221.231h26.491
			c-0.18-5.746-4.04-12.931-13.2-12.931C3124.666,208.3,3120.536,215.305,3120.086,221.231z M3130.145,196.177l12.931-12.931h7.991
			l-14.996,12.931H3130.145z"/>
		<path fill="#193B4D" d="M3164.625,186.209h8.082v59.896h-8.082V186.209z"/>
		<path fill="#193B4D" d="M3184.289,190.7c0-2.873,2.425-5.118,5.209-5.118c2.873,0,5.208,2.245,5.208,5.118
			s-2.335,5.208-5.208,5.208C3186.714,195.908,3184.289,193.573,3184.289,190.7z M3185.547,202.732h8.082v43.374h-8.082V202.732z"/>
		<path fill="#193B4D" d="M3237.359,262.628v-22.81c-3.502,4.76-8.621,7.364-14.278,7.364c-11.314,0-19.307-8.62-19.307-22.809
			s7.992-22.719,19.307-22.719c5.837,0,11.044,2.963,14.278,7.274v-6.198h8.08v59.896H3237.359z M3237.359,215.215
			c-2.246-3.502-7.184-6.375-12.033-6.375c-8.082,0-13.111,6.555-13.111,15.534c0,9.069,5.029,15.625,13.111,15.625
			c4.85,0,9.787-2.963,12.033-6.376V215.215z"/>
		<path fill="#193B4D" d="M3287.555,240.179c-3.322,3.592-8.799,7.004-15.445,7.004c-9.25,0-13.829-4.67-13.829-13.829v-30.622
			h8.082v27.928c0,7.185,3.593,9.34,9.159,9.34c5.029,0,9.609-2.873,12.033-6.106v-31.161h8.082v43.374h-8.082V240.179z"/>
		<path fill="#193B4D" d="M3327.514,201.656c13.02,0,21.102,10.147,21.102,23.438v1.976h-34.303
			c0.629,7.363,6.017,13.47,14.727,13.47c4.58,0,9.609-1.796,12.842-5.119l3.771,5.299c-4.311,4.22-10.417,6.465-17.422,6.465
			c-12.931,0-22.448-9.159-22.448-22.809C3305.782,211.803,3314.852,201.656,3327.514,201.656z M3314.223,221.231h26.49
			c-0.18-5.746-4.041-12.931-13.199-12.931C3318.803,208.3,3314.672,215.305,3314.223,221.231z"/>
	</g>
	<g>
		<path fill="#193B4D" d="M2888.863,120.479h-11.225v23.078h-8.98V83.662h25.233c11.405,0,19.218,7.364,19.218,18.409
			c0,10.775-7.273,16.522-14.906,17.511l15.354,23.976h-10.417L2888.863,120.479z M2892.725,91.564h-15.086v21.013h15.086
			c6.466,0,11.136-4.221,11.136-10.506C2903.86,95.785,2899.19,91.564,2892.725,91.564z"/>
		<path fill="#193B4D" d="M2940.316,99.107c13.021,0,21.103,10.148,21.103,23.438v1.975h-34.303
			c0.629,7.364,6.017,13.471,14.727,13.471c4.581,0,9.608-1.797,12.841-5.118l3.772,5.296c-4.31,4.222-10.417,6.467-17.421,6.467
			c-12.932,0-22.449-9.159-22.449-22.809C2918.586,109.255,2927.655,99.107,2940.316,99.107z M2927.026,118.683h26.491
			c-0.181-5.747-4.041-12.931-13.201-12.931C2931.605,105.752,2927.476,112.757,2927.026,118.683z M2937.084,93.63l12.931-12.932
			h7.992L2943.01,93.63H2937.084z"/>
		<path fill="#193B4D" d="M2973.541,107.279h-7.184v-7.094h7.184v-2.874c0-9.338,5.478-14.547,13.2-14.547
			c2.784,0,5.209,0.539,7.095,1.616l-1.886,6.016c-1.077-0.628-2.425-0.988-3.862-0.988c-4.04,0-6.465,2.694-6.465,7.902v2.874
			h8.801v7.094h-8.801v36.278h-8.082V107.279z"/>
		<path fill="#193B4D" d="M2995.45,121.827c0-12.482,8.44-22.72,21.911-22.72c13.559,0,21.91,10.238,21.91,22.72
			c0,12.571-8.352,22.809-21.91,22.809C3003.891,144.635,2995.45,134.398,2995.45,121.827z M3030.83,121.827
			c0-8.172-4.76-15.535-13.469-15.535c-8.621,0-13.471,7.363-13.471,15.535c0,8.262,4.85,15.625,13.471,15.625
			C3026.07,137.452,3030.83,130.088,3030.83,121.827z"/>
		<path fill="#193B4D" d="M3049.507,100.185h8.081v6.646c3.323-4.311,8.441-7.633,14.189-7.633v8.172
			c-0.809-0.18-1.707-0.27-2.785-0.27c-4.039,0-9.518,3.053-11.404,6.286v30.172h-8.081V100.185z"/>
		<path fill="#193B4D" d="M3132.57,114.642c0-5.028-2.246-8.351-7.543-8.351c-4.4,0-8.711,3.053-10.777,6.196v31.07h-8.081v-28.915
			c0-5.028-2.155-8.351-7.633-8.351c-4.22,0-8.441,3.143-10.597,6.286v30.98h-8.082v-43.373h8.082v6.107
			c1.797-2.694,7.544-7.185,14.01-7.185c6.555,0,10.416,3.413,11.764,8.082c2.514-4.041,8.262-8.082,14.637-8.082
			c7.992,0,12.302,4.401,12.302,13.111v31.339h-8.081V114.642z"/>
		<path fill="#193B4D" d="M3172.527,99.107c13.02,0,21.102,10.148,21.102,23.438v1.975h-34.303
			c0.629,7.364,6.018,13.471,14.727,13.471c4.582,0,9.609-1.797,12.842-5.118l3.771,5.296c-4.31,4.222-10.416,6.467-17.42,6.467
			c-12.932,0-22.449-9.159-22.449-22.809C3150.797,109.255,3159.865,99.107,3172.527,99.107z M3159.236,118.683h26.491
			c-0.181-5.747-4.04-12.931-13.2-12.931C3163.816,105.752,3159.686,112.757,3159.236,118.683z M3169.295,93.63l12.93-12.932h7.992
			l-14.996,12.932H3169.295z"/>
		<path fill="#193B4D" d="M3222.813,99.107c13.021,0,21.103,10.148,21.103,23.438v1.975h-34.304
			c0.63,7.364,6.017,13.471,14.728,13.471c4.579,0,9.608-1.797,12.841-5.118l3.772,5.296c-4.311,4.222-10.418,6.467-17.422,6.467
			c-12.932,0-22.449-9.159-22.449-22.809C3201.082,109.255,3210.152,99.107,3222.813,99.107z M3209.522,118.683h26.491
			c-0.18-5.747-4.041-12.931-13.2-12.931C3214.102,105.752,3209.973,112.757,3209.522,118.683z"/>
	</g>
	<rect x="2788.839" y="93.924" fill="#193B4D" width="5.275" height="141.732"/>
</g>
</svg>
