<?xml version="1.0" encoding="utf-8"?>
<!-- Generator: Adobe Illustrator 16.0.0, SVG Export Plug-In . SVG Version: 6.00 Build 0)  -->
<!DOCTYPE svg PUBLIC "-//W3C//DTD SVG 1.1//EN" "http://www.w3.org/Graphics/SVG/1.1/DTD/svg11.dtd">
<svg version="1.1" id="Calque_1" xmlns="http://www.w3.org/2000/svg" xmlns:xlink="http://www.w3.org/1999/xlink" x="0px" y="0px"
	 width="221.447px" height="249.41px" viewBox="0 0 221.447 249.41" enable-background="new 0 0 221.447 249.41"
	 xml:space="preserve">
<g>
	<path display="none" fill="#BADBE1" stroke="#BADBE1" stroke-width="11.3386" stroke-miterlimit="10" d="M110.723,27.3
		c-54.456,0-98.601,44.145-98.601,98.601s44.145,98.601,98.601,98.601s98.602-44.145,98.602-98.601S165.179,27.3,110.723,27.3z
		 M110.723,191.091c-36.004,0-65.19-29.186-65.19-65.19c0-36.004,29.187-65.19,65.19-65.19s65.191,29.187,65.191,65.19
		C175.915,161.905,146.727,191.091,110.723,191.091z"/>
	<path display="none" fill="#3D8BBA" stroke="#3D8BBA" stroke-width="11.3386" stroke-miterlimit="10" d="M203.66,125.9h-22.392
		c-3.043,0-5.603,2.467-5.603,5.51l0,0c-2.8,33.423-30.796,59.681-64.942,59.681c-36.004,0-65.19-29.186-65.19-65.19
		c0-36.004,29.187-65.19,65.19-65.19V27.3c-54.456,0-98.601,44.145-98.601,98.601s44.145,98.601,98.601,98.601
		c52.607,0,95.587-41.199,98.445-93.091C209.168,128.367,206.702,125.9,203.66,125.9z"/>
	<g display="none">
		<path display="inline" fill="#3D8BBA" d="M177.046,48.912c5.323-3.25,5.323-8.566,0-11.815L119.78,2.14
			c-5.323-3.25-9.678-0.805-9.678,5.431v24.095c0,6.236,0,16.441,0,22.677v24.095c0,6.236,4.355,8.68,9.678,5.431L177.046,48.912z"
			/>
	</g>
	<path fill="#BADBE1" d="M110.723,21.63c-57.495,0-104.27,46.775-104.27,104.27c0,57.494,46.775,104.27,104.27,104.27
		c57.495,0,104.271-46.775,104.271-104.27C214.994,68.406,168.218,21.63,110.723,21.63z M110.723,185.422
		c-32.82,0-59.521-26.701-59.521-59.521s26.701-59.521,59.521-59.521c32.821,0,59.522,26.701,59.522,59.521
		S143.544,185.422,110.723,185.422z"/>
	<path fill="#3D8BBA" d="M203.66,120.231h-22.392c-6.12,0-11.116,4.862-11.268,10.896c-1.283,14.742-7.989,28.406-18.899,38.495
		c-11.019,10.189-25.358,15.8-40.377,15.8c-32.82,0-59.521-26.701-59.521-59.521c0-32.612,26.366-59.169,58.9-59.505v12.042
		c0,6.236,4.355,8.68,9.678,5.431l57.266-34.956c5.323-3.25,5.323-8.566,0-11.815L119.78,2.14c-5.323-3.25-9.678-0.805-9.678,5.431
		v14.067C52.893,21.975,6.453,68.613,6.453,125.9c0,57.494,46.775,104.27,104.27,104.27c55.336,0,101.065-43.243,104.106-98.448
		l0.009-0.312C214.838,125.246,209.823,120.231,203.66,120.231z"/>
</g>
</svg>
