<?xml version="1.0" encoding="UTF-8"?>
<svg width="1440px" height="517px" viewBox="0 0 1440 517" version="1.1" xmlns="http://www.w3.org/2000/svg" xmlns:xlink="http://www.w3.org/1999/xlink">
    <!-- Generator: Sketch 55 (78076) - https://sketchapp.com -->
    <title>wave1</title>
    <desc>Created with Sketch.</desc>
    <g id="Divers" stroke="none" stroke-width="1" fill="none" fill-rule="evenodd">
        <g id="Move-announcement" transform="translate(0.000000, -694.000000)" fill="#FFB425">
            <g id="Group" transform="translate(730.000000, 754.000000) scale(1, -1) translate(-730.000000, -754.000000) translate(-33.000000, 297.000000)">
                <path d="M0.999876058,287.467449 C48.251573,173.188572 101.217016,116.049134 159.896206,116.049134 C247.91499,116.049134 286.348984,216.894003 381.867765,216.894003 C477.386546,216.894003 542.058224,66.6434108 673.45209,66.6434108 C804.845955,66.6434108 824.899686,306.235301 975.349689,306.235301 C1125.79969,306.235301 1119.21199,162.207128 1176.22753,162.207128 C1233.24307,162.207128 1232.41729,235.083785 1296.17867,235.083785 C1359.94006,235.083785 1381.11717,1.36474999e-13 1449.43602,0 C1494.98192,-8.89503076e-14 1520.50325,82.869887 1526,248.609661 L1526,517 L0,517 L0.999876058,287.467449 Z" id="wave1" transform="translate(763.000000, 258.500000) scale(1, -1) translate(-763.000000, -258.500000) "></path>
            </g>
        </g>
    </g>
</svg>