<?xml version="1.0" encoding="UTF-8"?>
<svg width="1440px" height="914px" viewBox="0 0 1440 914" version="1.1" xmlns="http://www.w3.org/2000/svg" xmlns:xlink="http://www.w3.org/1999/xlink">
    <!-- Generator: Sketch 55 (78076) - https://sketchapp.com -->
    <title>wave3</title>
    <desc>Created with Sketch.</desc>
    <g id="Divers" stroke="none" stroke-width="1" fill="none" fill-rule="evenodd">
        <g id="Move-announcement" transform="translate(0.000000, -297.000000)" fill="#FFC736">
            <g id="Group" transform="translate(730.000000, 754.000000) scale(1, -1) translate(-730.000000, -754.000000) translate(-33.000000, 297.000000)">
                <path d="M0.999876058,149.827915 C48.251573,90.2658122 101.217016,60.4847606 159.896206,60.4847606 C247.91499,60.4847606 286.348984,113.045065 381.867765,113.045065 C477.386546,113.045065 542.058224,34.7345182 673.45209,34.7345182 C804.845955,34.7345182 824.899686,159.609712 975.349689,159.609712 C1125.79969,159.609712 1119.21199,84.5422878 1176.22753,84.5422878 C1233.24307,84.5422878 1232.41729,122.525572 1296.17867,122.525572 C1359.94006,122.525572 1381.11717,7.45202511e-14 1449.43602,0 C1494.98192,-4.75661177e-14 1520.50325,43.1917508 1526,129.575252 L1526,914 L0,914 L0.999876058,149.827915 Z" id="wave3" transform="translate(763.000000, 457.000000) scale(1, -1) translate(-763.000000, -457.000000) "></path>
            </g>
        </g>
    </g>
</svg>