<?xml version="1.0" encoding="UTF-8" standalone="yes"?>
<svg width="100" height="100" version="1.2" baseProfile="tiny-ps" xmlns="http://www.w3.org/2000/svg">
  <title>bimi-svg-tiny-12-ps</title>
  <g fill="none" fill-rule="evenodd">
    <path fill="#4843bb" d="M0 0h100v100H0z"/>
    <path d="M41.555 63.012a2.074 2.074 0 011.143 2.702 30.52 30.52 0 00-1.845 6.656c-.808 5.054-.36 10.138 1.222 14.8l.174.493.083-.1.503-.657.485-.674a2.074 2.074 0 113.404 2.372 31.45 31.45 0 01-3 3.68l-.66.675L41.002 95l-1.264-2.612c-3.045-6.29-4.125-13.513-2.982-20.672a34.667 34.667 0 012.097-7.56 2.074 2.074 0 012.702-1.144zm11.661-9.566c5.217 4.765 8.75 11.153 9.99 18.32a32.476 32.476 0 01-2.885 20.005l-.345.677-1.25 2.382-1.986-1.814c-5.216-4.764-8.749-11.152-9.99-18.32a32.528 32.528 0 01.789-14.605 2.074 2.074 0 113.985 1.151 28.38 28.38 0 00-.686 12.746c.882 5.097 3.087 9.734 6.33 13.52l.343.389.244-.625a28.339 28.339 0 001.48-14.075l-.116-.722c-1.083-6.256-4.158-11.818-8.7-15.965a2.074 2.074 0 012.797-3.064zM39.91 47.538a2.074 2.074 0 01-1.15 3.986 28.383 28.383 0 00-12.746-.686c-5.098.882-9.734 3.088-13.52 6.33l-.391.342.627.245a28.34 28.34 0 0014.074 1.48l.723-.116c6.255-1.084 11.817-4.159 15.964-8.7a2.074 2.074 0 113.064 2.797c-4.764 5.217-11.153 8.75-18.32 9.99A32.478 32.478 0 018.23 60.321l-.678-.345-2.381-1.25 1.813-1.986c4.764-5.216 11.153-8.749 18.32-9.99a32.532 32.532 0 0114.605.788zm48.695 5.739c1.31.913 2.54 1.916 3.681 3l.674.66 2.04 2.06-2.612 1.264c-6.29 3.045-13.513 4.126-20.672 2.982a34.673 34.673 0 01-7.56-2.097 2.074 2.074 0 011.558-3.845 30.525 30.525 0 006.656 1.846c5.054.807 10.138.359 14.8-1.223l.493-.176-.1-.08-.657-.504-.674-.485a2.074 2.074 0 012.372-3.403zm3.167-13.598l.677.345 2.382 1.25-1.814 1.986c-4.764 5.216-11.152 8.749-18.32 9.99a32.53 32.53 0 01-14.604-.788 2.074 2.074 0 011.15-3.986 28.383 28.383 0 0012.746.686c5.097-.882 9.734-3.088 13.52-6.33l.389-.344-.625-.243a28.341 28.341 0 00-14.075-1.48l-.722.116c-6.256 1.084-11.818 4.159-15.965 8.7a2.074 2.074 0 11-3.063-2.797c4.764-5.217 11.152-8.75 18.32-9.99a32.478 32.478 0 0120.004 2.885zm-63.487-2.923c2.63.42 5.163 1.125 7.561 2.097a2.074 2.074 0 01-1.558 3.845 30.494 30.494 0 00-6.657-1.846c-5.054-.807-10.137-.359-14.8 1.223l-.494.174.101.083c.216.17.435.338.657.503l.674.485a2.074 2.074 0 01-2.372 3.403 31.489 31.489 0 01-3.68-3l-.674-.659L5 41.002l2.612-1.264c6.292-3.045 13.513-4.126 20.672-2.982zM41.274 5.17l1.986 1.814c5.217 4.764 8.749 11.152 9.99 18.32a32.52 32.52 0 01-.788 14.605 2.074 2.074 0 11-3.986-1.151 28.38 28.38 0 00.687-12.746c-.883-5.097-3.088-9.734-6.331-13.52l-.344-.39-.243.626a28.339 28.339 0 00-1.479 14.075l.116.722c1.083 6.256 4.158 11.818 8.7 15.965a2.074 2.074 0 01-2.798 3.064c-5.217-4.765-8.749-11.153-9.99-18.32A32.476 32.476 0 0139.68 8.228l.346-.677 1.249-2.382zM58.999 5l1.264 2.612c3.044 6.29 4.125 13.513 2.981 20.672a34.667 34.667 0 01-2.097 7.56 2.074 2.074 0 11-3.844-1.558 30.52 30.52 0 001.845-6.656c.807-5.054.36-10.138-1.223-14.8l-.176-.495-.08.102-.504.657-.485.674a2.074 2.074 0 11-3.403-2.372 31.45 31.45 0 013-3.68l.66-.675L58.998 5z" fill="#FFF" fill-rule="nonzero"/>
  </g>
</svg>